SplineFontDB: 1.0
FontName: DejaVuSans-Bold
FullName: DejaVu Sans Bold
FamilyName: DejaVu Sans
Weight: Bold
Copyright: Copyright (c) 2003 by Bitstream, Inc. All Rights Reserved.\nDejaVu changes are in public domain\n
Version: 2.2
ItalicAngle: 0
UnderlinePosition: -227
UnderlineWidth: 258
Ascent: 1556
Descent: 492
Order2: 1
NeedsXUIDChange: 1
FSType: 0
PfmFamily: 17
TTFWeight: 700
TTFWidth: 5
LineGap: 0
VLineGap: 0
Panose: 2 11 8 3 3 6 4 2 2 4
OS2TypoAscent: 1556
OS2TypoAOffset: 0
OS2TypoDescent: -492
OS2TypoDOffset: 0
OS2TypoLinegap: 410
OS2WinAscent: 1901
OS2WinAOffset: 0
OS2WinDescent: 483
OS2WinDOffset: 0
HheadAscent: 1901
HheadAOffset: 0
HheadDescent: -483
HheadDOffset: 0
OS2Vendor: 'PfEd'
ScriptLang: 3
 3 cyrl 1 dflt grek 1 dflt latn 1 dflt 
 1 DFLT 1 dflt 
 1 latn 1 dflt 
ChainSub: class 0 0 'ccmp' 4 4 4 2
  Class: 3 i j
  Class: 181 gravecomb acutecomb uni0302 tildecomb uni0304 uni0305 uni0306 uni0307 uni0308 uni030A uni030B uni030C uni030D uni030E uni030F uni0310 uni0311 uni0312 uni0313 uni0314 uni033D uni033E

StartChar: .notdef
Encoding: 0 -1 0
AltUni: 0
Width: 1229
Flags: W
Fore
102 -362 m 1,0,-1
 102 1444 l 1,1,-1
 1126 1444 l 1,2,-1
 1126 -362 l 1,3,-1
 102 -362 l 1,0,-1
217 -248 m 1,4,-1
 1012 -248 l 1,5,-1
 1012 1329 l 1,6,-1
 217 1329 l 1,7,-1
 217 -248 l 1,4,-1
EndSplineSet
EndChar
StartChar: exclam
Encoding: 33 33 33
Width: 934
Flags: W
Fore
287 1493 m 1,0,-1
 647 1493 l 1,1,-1
 647 920 l 1,2,-1
 596 502 l 1,3,-1
 338 502 l 1,4,-1
 287 920 l 1,5,-1
 287 1493 l 1,0,-1
287 356 m 1,6,-1
 647 356 l 1,7,-1
 647 0 l 1,8,-1
 287 0 l 1,9,-1
 287 356 l 1,6,-1
EndSplineSet
EndChar
StartChar: quotedbl
Encoding: 34 34 34
Width: 1067
Flags: W
Fore
872 1493 m 1,0,-1
 872 938 l 1,1,-1
 635 938 l 1,2,-1
 635 1493 l 1,3,-1
 872 1493 l 1,0,-1
432 1493 m 1,4,-1
 432 938 l 1,5,-1
 195 938 l 1,6,-1
 195 1493 l 1,7,-1
 432 1493 l 1,4,-1
EndSplineSet
EndChar
StartChar: numbersign
Encoding: 35 35 35
Width: 1716
Flags: W
Fore
911 1470 m 1,0,-1
 815 1085 l 1,1,-1
 1079 1085 l 1,2,-1
 1176 1470 l 1,3,-1
 1397 1470 l 1,4,-1
 1300 1085 l 1,5,-1
 1577 1085 l 1,6,-1
 1577 872 l 1,7,-1
 1247 872 l 1,8,-1
 1178 598 l 1,9,-1
 1462 598 l 1,10,-1
 1462 383 l 1,11,-1
 1126 383 l 1,12,-1
 1030 0 l 1,13,-1
 809 0 l 1,14,-1
 905 383 l 1,15,-1
 641 383 l 1,16,-1
 545 0 l 1,17,-1
 322 0 l 1,18,-1
 418 383 l 1,19,-1
 139 383 l 1,20,-1
 139 598 l 1,21,-1
 467 598 l 1,22,-1
 537 872 l 1,23,-1
 254 872 l 1,24,-1
 254 1085 l 1,25,-1
 592 1085 l 1,26,-1
 688 1470 l 1,27,-1
 911 1470 l 1,0,-1
1024 872 m 1,28,-1
 760 872 l 1,29,-1
 690 598 l 1,30,-1
 954 598 l 1,31,-1
 1024 872 l 1,28,-1
EndSplineSet
EndChar
StartChar: dollar
Encoding: 36 36 36
Width: 1425
Flags: W
Fore
795 -301 m 1,0,-1
 633 -301 l 1,1,-1
 632 0 l 1,2,3
 507 5 507 5 390 28 c 128,-1,4
 273 51 273 51 162 92 c 1,5,-1
 162 354 l 1,6,7
 277 295 277 295 394.5 263.5 c 128,-1,8
 512 232 512 232 633 228 c 1,9,-1
 633 539 l 1,10,-1
 600 545 l 2,11,12
 361 587 361 587 260.5 677 c 128,-1,13
 160 767 160 767 160 936 c 0,14,15
 160 1115 160 1115 282.5 1215.5 c 128,-1,16
 405 1316 405 1316 632 1325 c 1,17,-1
 633 1556 l 1,18,-1
 795 1556 l 1,19,-1
 795 1329 l 1,20,21
 895 1321 895 1321 995 1304 c 128,-1,22
 1095 1287 1095 1287 1196 1260 c 1,23,-1
 1196 1006 l 1,24,25
 1096 1048 1096 1048 996 1071.5 c 128,-1,26
 896 1095 896 1095 795 1100 c 1,27,-1
 795 813 l 1,28,-1
 827 807 l 2,29,30
 1081 767 1081 767 1183.5 673.5 c 128,-1,31
 1286 580 1286 580 1286 397 c 0,32,33
 1286 213 1286 213 1164 114.5 c 128,-1,34
 1042 16 1042 16 795 2 c 1,35,-1
 795 -301 l 1,0,-1
633 836 m 1,36,-1
 633 1097 l 1,37,38
 562 1093 562 1093 519.5 1058.5 c 128,-1,39
 477 1024 477 1024 477 971 c 0,40,41
 477 912 477 912 516 878.5 c 128,-1,42
 555 845 555 845 633 836 c 1,36,-1
795 510 m 1,43,-1
 795 232 l 1,44,45
 882 233 882 233 925.5 266 c 128,-1,46
 969 299 969 299 969 365 c 0,47,48
 969 433 969 433 929 466.5 c 128,-1,49
 889 500 889 500 795 510 c 1,43,-1
EndSplineSet
EndChar
StartChar: percent
Encoding: 37 37 37
Width: 2052
Flags: W
Fore
1587 616 m 0,0,1
 1516 616 1516 616 1477 554.5 c 128,-1,2
 1438 493 1438 493 1438 379 c 0,3,4
 1438 264 1438 264 1476.5 202.5 c 128,-1,5
 1515 141 1515 141 1587 141 c 0,6,7
 1659 141 1659 141 1697 202.5 c 128,-1,8
 1735 264 1735 264 1735 379 c 0,9,10
 1735 493 1735 493 1696.5 554.5 c 128,-1,11
 1658 616 1658 616 1587 616 c 0,0,1
1587 784 m 0,12,13
 1773 784 1773 784 1880 676 c 128,-1,14
 1987 568 1987 568 1987 379 c 0,15,16
 1987 190 1987 190 1880 80.5 c 128,-1,17
 1773 -29 1773 -29 1587 -29 c 0,18,19
 1401 -29 1401 -29 1293.5 80.5 c 128,-1,20
 1186 190 1186 190 1186 379 c 0,21,22
 1186 567 1186 567 1293.5 675.5 c 128,-1,23
 1401 784 1401 784 1587 784 c 0,12,13
670 -29 m 1,24,-1
 449 -29 l 1,25,-1
 1382 1520 l 1,26,-1
 1604 1520 l 1,27,-1
 670 -29 l 1,24,-1
465 1520 m 0,28,29
 651 1520 651 1520 757.5 1411.5 c 128,-1,30
 864 1303 864 1303 864 1114 c 0,31,32
 864 925 864 925 757.5 816 c 128,-1,33
 651 707 651 707 465 707 c 0,34,35
 279 707 279 707 172.5 816 c 128,-1,36
 66 925 66 925 66 1114 c 0,37,38
 66 1303 66 1303 172.5 1411.5 c 128,-1,39
 279 1520 279 1520 465 1520 c 0,28,29
465 1352 m 0,40,41
 393 1352 393 1352 354 1290 c 128,-1,42
 315 1228 315 1228 315 1114 c 0,43,44
 315 999 315 999 354 936.5 c 128,-1,45
 393 874 393 874 465 874 c 0,46,47
 537 874 537 874 575.5 936.5 c 128,-1,48
 614 999 614 999 614 1114 c 0,49,50
 614 1228 614 1228 575 1290 c 128,-1,51
 536 1352 536 1352 465 1352 c 0,40,41
EndSplineSet
EndChar
StartChar: ampersand
Encoding: 38 38 38
Width: 1786
Flags: W
Fore
799 991 m 2,0,-1
 1208 541 l 1,1,2
 1261 611 1261 611 1288.5 698 c 128,-1,3
 1316 785 1316 785 1321 895 c 1,4,-1
 1632 895 l 1,5,6
 1617 713 1617 713 1561.5 571 c 128,-1,7
 1506 429 1506 429 1407 322 c 1,8,-1
 1700 0 l 1,9,-1
 1276 0 l 1,10,-1
 1178 109 l 1,11,12
 1073 39 1073 39 957 5 c 128,-1,13
 841 -29 841 -29 711 -29 c 0,14,15
 448 -29 448 -29 285.5 109.5 c 128,-1,16
 123 248 123 248 123 467 c 0,17,18
 123 613 123 613 194.5 725.5 c 128,-1,19
 266 838 266 838 428 944 c 1,20,21
 386 997 386 997 366 1050 c 128,-1,22
 346 1103 346 1103 346 1161 c 0,23,24
 346 1324 346 1324 473 1422 c 128,-1,25
 600 1520 600 1520 811 1520 c 0,26,27
 902 1520 902 1520 1000.5 1505.5 c 128,-1,28
 1099 1491 1099 1491 1206 1462 c 1,29,-1
 1206 1184 l 1,30,31
 1112 1232 1112 1232 1028 1255 c 128,-1,32
 944 1278 944 1278 864 1278 c 0,33,34
 787 1278 787 1278 744.5 1248.5 c 128,-1,35
 702 1219 702 1219 702 1165 c 0,36,37
 702 1131 702 1131 726.5 1087.5 c 128,-1,38
 751 1044 751 1044 799 991 c 2,0,-1
600 743 m 1,39,40
 535 696 535 696 502 636.5 c 128,-1,41
 469 577 469 577 469 506 c 0,42,43
 469 391 469 391 554 310 c 128,-1,44
 639 229 639 229 758 229 c 0,45,46
 825 229 825 229 883 249.5 c 128,-1,47
 941 270 941 270 991 311 c 1,48,-1
 600 743 l 1,39,40
EndSplineSet
EndChar
StartChar: quotesingle
Encoding: 39 39 39
Width: 627
Flags: W
Fore
432 1493 m 1,0,-1
 432 938 l 1,1,-1
 195 938 l 1,2,-1
 195 1493 l 1,3,-1
 432 1493 l 1,0,-1
EndSplineSet
EndChar
StartChar: parenleft
Encoding: 40 40 40
Width: 936
Flags: W
Fore
772 -270 m 1,0,-1
 475 -270 l 1,1,2
 322 -23 322 -23 249 199.5 c 128,-1,3
 176 422 176 422 176 641 c 0,4,5
 176 860 176 860 249.5 1084.5 c 128,-1,6
 323 1309 323 1309 475 1554 c 1,7,-1
 772 1554 l 1,8,9
 644 1317 644 1317 580 1090.5 c 128,-1,10
 516 864 516 864 516 643 c 0,11,12
 516 422 516 422 579.5 195 c 128,-1,13
 643 -32 643 -32 772 -270 c 1,0,-1
EndSplineSet
EndChar
StartChar: parenright
Encoding: 41 41 41
Width: 936
Flags: W
Fore
164 -270 m 1,0,1
 292 -32 292 -32 356 195 c 128,-1,2
 420 422 420 422 420 643 c 0,3,4
 420 864 420 864 356 1090.5 c 128,-1,5
 292 1317 292 1317 164 1554 c 1,6,-1
 461 1554 l 1,7,8
 613 1309 613 1309 686.5 1084.5 c 128,-1,9
 760 860 760 860 760 641 c 0,10,11
 760 422 760 422 687 199.5 c 128,-1,12
 614 -23 614 -23 461 -270 c 1,13,-1
 164 -270 l 1,0,1
EndSplineSet
EndChar
StartChar: asterisk
Encoding: 42 42 42
Width: 1071
Flags: W
Fore
1030 1217 m 1,0,-1
 700 1044 l 1,1,-1
 1030 870 l 1,2,-1
 954 729 l 1,3,-1
 621 913 l 1,4,-1
 621 569 l 1,5,-1
 451 569 l 1,6,-1
 451 913 l 1,7,-1
 117 729 l 1,8,-1
 41 870 l 1,9,-1
 375 1044 l 1,10,-1
 41 1217 l 1,11,-1
 117 1358 l 1,12,-1
 451 1176 l 1,13,-1
 451 1520 l 1,14,-1
 621 1520 l 1,15,-1
 621 1176 l 1,16,-1
 954 1358 l 1,17,-1
 1030 1217 l 1,0,-1
EndSplineSet
EndChar
StartChar: plus
Encoding: 43 43 43
Width: 1716
Flags: W
Fore
977 1284 m 1,0,-1
 977 760 l 1,1,-1
 1499 760 l 1,2,-1
 1499 524 l 1,3,-1
 977 524 l 1,4,-1
 977 0 l 1,5,-1
 739 0 l 1,6,-1
 739 524 l 1,7,-1
 217 524 l 1,8,-1
 217 760 l 1,9,-1
 739 760 l 1,10,-1
 739 1284 l 1,11,-1
 977 1284 l 1,0,-1
EndSplineSet
EndChar
StartChar: comma
Encoding: 44 44 44
Width: 778
Flags: W
Fore
209 387 m 1,0,-1
 569 387 l 1,1,-1
 569 82 l 1,2,-1
 322 -291 l 1,3,-1
 109 -291 l 1,4,-1
 209 82 l 1,5,-1
 209 387 l 1,0,-1
EndSplineSet
EndChar
StartChar: hyphen
Encoding: 45 45 45
Width: 850
Flags: W
Fore
111 735 m 1,0,-1
 739 735 l 1,1,-1
 739 444 l 1,2,-1
 111 444 l 1,3,-1
 111 735 l 1,0,-1
EndSplineSet
KernsSLIFO: 356 -301 0 0 221 -301 0 0 376 -301 0 0 89 -301 0 0 88 -167 0 0 87 -92 0 0 86 -149 0 0 84 -301 0 0
EndChar
StartChar: period
Encoding: 46 46 46
Width: 778
Flags: W
Fore
209 387 m 1,0,-1
 569 387 l 1,1,-1
 569 0 l 1,2,-1
 209 0 l 1,3,-1
 209 387 l 1,0,-1
EndSplineSet
EndChar
StartChar: slash
Encoding: 47 47 47
Width: 748
Flags: W
Fore
526 1493 m 1,0,-1
 748 1493 l 1,1,-1
 221 -190 l 1,2,-1
 0 -190 l 1,3,-1
 526 1493 l 1,0,-1
EndSplineSet
EndChar
StartChar: zero
Encoding: 48 48 48
Width: 1425
Flags: W
Fore
942 748 m 0,0,1
 942 1028 942 1028 889.5 1142.5 c 128,-1,2
 837 1257 837 1257 713 1257 c 0,3,4
 589 1257 589 1257 536 1142.5 c 128,-1,5
 483 1028 483 1028 483 748 c 0,6,7
 483 465 483 465 536 349 c 128,-1,8
 589 233 589 233 713 233 c 0,9,10
 836 233 836 233 889 349 c 128,-1,11
 942 465 942 465 942 748 c 0,0,1
1327 745 m 0,12,13
 1327 374 1327 374 1167 172.5 c 128,-1,14
 1007 -29 1007 -29 713 -29 c 0,15,16
 418 -29 418 -29 258 172.5 c 128,-1,17
 98 374 98 374 98 745 c 0,18,19
 98 1117 98 1117 258 1318.5 c 128,-1,20
 418 1520 418 1520 713 1520 c 0,21,22
 1007 1520 1007 1520 1167 1318.5 c 128,-1,23
 1327 1117 1327 1117 1327 745 c 0,12,13
EndSplineSet
EndChar
StartChar: one
Encoding: 49 49 49
Width: 1425
Flags: W
Fore
240 266 m 1,0,-1
 580 266 l 1,1,-1
 580 1231 l 1,2,-1
 231 1159 l 1,3,-1
 231 1421 l 1,4,-1
 578 1493 l 1,5,-1
 944 1493 l 1,6,-1
 944 266 l 1,7,-1
 1284 266 l 1,8,-1
 1284 0 l 1,9,-1
 240 0 l 1,10,-1
 240 266 l 1,0,-1
EndSplineSet
EndChar
StartChar: two
Encoding: 50 50 50
Width: 1425
Flags: W
Fore
590 283 m 1,0,-1
 1247 283 l 1,1,-1
 1247 0 l 1,2,-1
 162 0 l 1,3,-1
 162 283 l 1,4,-1
 707 764 l 1,5,6
 780 830 780 830 815 893 c 128,-1,7
 850 956 850 956 850 1024 c 0,8,9
 850 1129 850 1129 779.5 1193 c 128,-1,10
 709 1257 709 1257 592 1257 c 0,11,12
 502 1257 502 1257 395 1218.5 c 128,-1,13
 288 1180 288 1180 166 1104 c 1,14,-1
 166 1432 l 1,15,16
 296 1475 296 1475 423 1497.5 c 128,-1,17
 550 1520 550 1520 672 1520 c 0,18,19
 940 1520 940 1520 1088.5 1402 c 128,-1,20
 1237 1284 1237 1284 1237 1073 c 0,21,22
 1237 951 1237 951 1174 845.5 c 128,-1,23
 1111 740 1111 740 909 563 c 2,24,-1
 590 283 l 1,0,-1
EndSplineSet
EndChar
StartChar: three
Encoding: 51 51 51
Width: 1425
Flags: W
Fore
954 805 m 1,0,1
 1105 766 1105 766 1183.5 669.5 c 128,-1,2
 1262 573 1262 573 1262 424 c 0,3,4
 1262 202 1262 202 1092 86.5 c 128,-1,5
 922 -29 922 -29 596 -29 c 0,6,7
 481 -29 481 -29 365.5 -10.5 c 128,-1,8
 250 8 250 8 137 45 c 1,9,-1
 137 342 l 1,10,11
 245 288 245 288 351.5 260.5 c 128,-1,12
 458 233 458 233 561 233 c 0,13,14
 714 233 714 233 795.5 286 c 128,-1,15
 877 339 877 339 877 438 c 0,16,17
 877 540 877 540 793.5 592.5 c 128,-1,18
 710 645 710 645 547 645 c 2,19,-1
 393 645 l 1,20,-1
 393 893 l 1,21,-1
 555 893 l 2,22,23
 700 893 700 893 771 938.5 c 128,-1,24
 842 984 842 984 842 1077 c 0,25,26
 842 1163 842 1163 773 1210 c 128,-1,27
 704 1257 704 1257 578 1257 c 0,28,29
 485 1257 485 1257 390 1236 c 128,-1,30
 295 1215 295 1215 201 1174 c 1,31,-1
 201 1456 l 1,32,33
 315 1488 315 1488 427 1504 c 128,-1,34
 539 1520 539 1520 647 1520 c 0,35,36
 938 1520 938 1520 1082.5 1424.5 c 128,-1,37
 1227 1329 1227 1329 1227 1137 c 0,38,39
 1227 1006 1227 1006 1158 922.5 c 128,-1,40
 1089 839 1089 839 954 805 c 1,0,1
EndSplineSet
EndChar
StartChar: four
Encoding: 52 52 52
Width: 1425
Flags: W
Fore
754 1176 m 1,0,-1
 332 551 l 1,1,-1
 754 551 l 1,2,-1
 754 1176 l 1,0,-1
690 1493 m 1,3,-1
 1118 1493 l 1,4,-1
 1118 551 l 1,5,-1
 1331 551 l 1,6,-1
 1331 272 l 1,7,-1
 1118 272 l 1,8,-1
 1118 0 l 1,9,-1
 754 0 l 1,10,-1
 754 272 l 1,11,-1
 92 272 l 1,12,-1
 92 602 l 1,13,-1
 690 1493 l 1,3,-1
EndSplineSet
EndChar
StartChar: five
Encoding: 53 53 53
Width: 1425
Flags: W
Fore
217 1493 m 1,0,-1
 1174 1493 l 1,1,-1
 1174 1210 l 1,2,-1
 524 1210 l 1,3,-1
 524 979 l 1,4,5
 568 991 568 991 612.5 997.5 c 128,-1,6
 657 1004 657 1004 705 1004 c 0,7,8
 978 1004 978 1004 1130 867.5 c 128,-1,9
 1282 731 1282 731 1282 487 c 0,10,11
 1282 245 1282 245 1116.5 108 c 128,-1,12
 951 -29 951 -29 657 -29 c 0,13,14
 530 -29 530 -29 405.5 -4.5 c 128,-1,15
 281 20 281 20 158 70 c 1,16,-1
 158 373 l 1,17,18
 280 303 280 303 389.5 268 c 128,-1,19
 499 233 499 233 596 233 c 0,20,21
 736 233 736 233 816.5 301.5 c 128,-1,22
 897 370 897 370 897 487 c 0,23,24
 897 605 897 605 816.5 673 c 128,-1,25
 736 741 736 741 596 741 c 0,26,27
 513 741 513 741 419 719.5 c 128,-1,28
 325 698 325 698 217 653 c 1,29,-1
 217 1493 l 1,0,-1
EndSplineSet
EndChar
StartChar: six
Encoding: 54 54 54
Width: 1425
Flags: W
Fore
741 737 m 0,0,1
 640 737 640 737 589.5 671.5 c 128,-1,2
 539 606 539 606 539 475 c 0,3,4
 539 344 539 344 589.5 278.5 c 128,-1,5
 640 213 640 213 741 213 c 0,6,7
 843 213 843 213 893.5 278.5 c 128,-1,8
 944 344 944 344 944 475 c 0,9,10
 944 606 944 606 893.5 671.5 c 128,-1,11
 843 737 843 737 741 737 c 0,0,1
1217 1454 m 1,12,-1
 1217 1178 l 1,13,14
 1122 1223 1122 1223 1038 1244.5 c 128,-1,15
 954 1266 954 1266 874 1266 c 0,16,17
 702 1266 702 1266 606 1170.5 c 128,-1,18
 510 1075 510 1075 494 887 c 1,19,20
 560 936 560 936 637 960.5 c 128,-1,21
 714 985 714 985 805 985 c 0,22,23
 1034 985 1034 985 1174.5 851 c 128,-1,24
 1315 717 1315 717 1315 500 c 0,25,26
 1315 260 1315 260 1158 115.5 c 128,-1,27
 1001 -29 1001 -29 737 -29 c 0,28,29
 446 -29 446 -29 286.5 167.5 c 128,-1,30
 127 364 127 364 127 725 c 0,31,32
 127 1095 127 1095 313.5 1306.5 c 128,-1,33
 500 1518 500 1518 825 1518 c 0,34,35
 928 1518 928 1518 1025 1502 c 128,-1,36
 1122 1486 1122 1486 1217 1454 c 1,12,-1
EndSplineSet
EndChar
StartChar: seven
Encoding: 55 55 55
Width: 1425
Flags: W
Fore
137 1493 m 1,0,-1
 1262 1493 l 1,1,-1
 1262 1276 l 1,2,-1
 680 0 l 1,3,-1
 305 0 l 1,4,-1
 856 1210 l 1,5,-1
 137 1210 l 1,6,-1
 137 1493 l 1,0,-1
EndSplineSet
EndChar
StartChar: eight
Encoding: 56 56 56
Width: 1425
Flags: W
Fore
713 668 m 0,0,1
 605 668 605 668 547 609 c 128,-1,2
 489 550 489 550 489 440 c 0,3,4
 489 330 489 330 547 271.5 c 128,-1,5
 605 213 605 213 713 213 c 0,6,7
 820 213 820 213 877 271.5 c 128,-1,8
 934 330 934 330 934 440 c 0,9,10
 934 551 934 551 877 609.5 c 128,-1,11
 820 668 820 668 713 668 c 0,0,1
432 795 m 1,12,13
 296 836 296 836 227 921 c 128,-1,14
 158 1006 158 1006 158 1133 c 0,15,16
 158 1322 158 1322 299 1421 c 128,-1,17
 440 1520 440 1520 713 1520 c 0,18,19
 984 1520 984 1520 1125 1421.5 c 128,-1,20
 1266 1323 1266 1323 1266 1133 c 0,21,22
 1266 1006 1266 1006 1196.5 921 c 128,-1,23
 1127 836 1127 836 991 795 c 1,24,25
 1143 753 1143 753 1220.5 658.5 c 128,-1,26
 1298 564 1298 564 1298 420 c 0,27,28
 1298 198 1298 198 1150.5 84.5 c 128,-1,29
 1003 -29 1003 -29 713 -29 c 0,30,31
 422 -29 422 -29 273.5 84.5 c 128,-1,32
 125 198 125 198 125 420 c 0,33,34
 125 564 125 564 202.5 658.5 c 128,-1,35
 280 753 280 753 432 795 c 1,12,13
522 1094 m 0,36,37
 522 1005 522 1005 571.5 957 c 128,-1,38
 621 909 621 909 713 909 c 0,39,40
 803 909 803 909 852 957 c 128,-1,41
 901 1005 901 1005 901 1094 c 0,42,43
 901 1183 901 1183 852 1230.5 c 128,-1,44
 803 1278 803 1278 713 1278 c 0,45,46
 621 1278 621 1278 571.5 1230 c 128,-1,47
 522 1182 522 1182 522 1094 c 0,36,37
EndSplineSet
EndChar
StartChar: nine
Encoding: 57 57 57
Width: 1425
Flags: W
Fore
205 33 m 1,0,-1
 205 309 l 1,1,2
 297 266 297 266 381 244.5 c 128,-1,3
 465 223 465 223 547 223 c 0,4,5
 719 223 719 223 815 318.5 c 128,-1,6
 911 414 911 414 928 602 c 1,7,8
 860 552 860 552 783 527 c 128,-1,9
 706 502 706 502 616 502 c 0,10,11
 387 502 387 502 246.5 635.5 c 128,-1,12
 106 769 106 769 106 987 c 0,13,14
 106 1228 106 1228 262.5 1373 c 128,-1,15
 419 1518 419 1518 682 1518 c 0,16,17
 974 1518 974 1518 1134 1321 c 128,-1,18
 1294 1124 1294 1124 1294 764 c 0,19,20
 1294 394 1294 394 1107 182.5 c 128,-1,21
 920 -29 920 -29 594 -29 c 0,22,23
 489 -29 489 -29 393 -13.5 c 128,-1,24
 297 2 297 2 205 33 c 1,0,-1
680 752 m 0,25,26
 781 752 781 752 832 817.5 c 128,-1,27
 883 883 883 883 883 1014 c 0,28,29
 883 1144 883 1144 832 1210 c 128,-1,30
 781 1276 781 1276 680 1276 c 0,31,32
 579 1276 579 1276 528 1210 c 128,-1,33
 477 1144 477 1144 477 1014 c 0,34,35
 477 883 477 883 528 817.5 c 128,-1,36
 579 752 579 752 680 752 c 0,25,26
EndSplineSet
EndChar
StartChar: colon
Encoding: 58 58 58
Width: 819
Flags: W
Fore
229 1120 m 1,0,-1
 590 1120 l 1,1,-1
 590 733 l 1,2,-1
 229 733 l 1,3,-1
 229 1120 l 1,0,-1
229 387 m 1,4,-1
 590 387 l 1,5,-1
 590 0 l 1,6,-1
 229 0 l 1,7,-1
 229 387 l 1,4,-1
EndSplineSet
EndChar
StartChar: semicolon
Encoding: 59 59 59
Width: 819
Flags: W
Fore
229 387 m 1,0,-1
 590 387 l 1,1,-1
 590 82 l 1,2,-1
 342 -291 l 1,3,-1
 129 -291 l 1,4,-1
 229 82 l 1,5,-1
 229 387 l 1,0,-1
229 1120 m 1,6,-1
 590 1120 l 1,7,-1
 590 733 l 1,8,-1
 229 733 l 1,9,-1
 229 1120 l 1,6,-1
EndSplineSet
EndChar
StartChar: less
Encoding: 60 60 60
Width: 1716
Flags: W
Fore
1499 973 m 1,0,-1
 535 641 l 1,1,-1
 1499 311 l 1,2,-1
 1499 61 l 1,3,-1
 217 524 l 1,4,-1
 217 760 l 1,5,-1
 1499 1223 l 1,6,-1
 1499 973 l 1,0,-1
EndSplineSet
EndChar
StartChar: equal
Encoding: 61 61 61
Width: 1716
Flags: W
Fore
217 987 m 1,0,-1
 1499 987 l 1,1,-1
 1499 752 l 1,2,-1
 217 752 l 1,3,-1
 217 987 l 1,0,-1
217 532 m 1,4,-1
 1499 532 l 1,5,-1
 1499 295 l 1,6,-1
 217 295 l 1,7,-1
 217 532 l 1,4,-1
EndSplineSet
EndChar
StartChar: greater
Encoding: 62 62 62
Width: 1716
Flags: W
Fore
217 973 m 1,0,-1
 217 1223 l 1,1,-1
 1499 760 l 1,2,-1
 1499 524 l 1,3,-1
 217 61 l 1,4,-1
 217 311 l 1,5,-1
 1182 641 l 1,6,-1
 217 973 l 1,0,-1
EndSplineSet
EndChar
StartChar: question
Encoding: 63 63 63
Width: 1188
Flags: W
Fore
709 504 m 1,0,-1
 348 504 l 1,1,-1
 348 553 l 2,2,3
 348 635 348 635 381 698.5 c 128,-1,4
 414 762 414 762 520 860 c 2,5,-1
 584 918 l 2,6,7
 641 970 641 970 667.5 1016 c 128,-1,8
 694 1062 694 1062 694 1108 c 0,9,10
 694 1178 694 1178 646 1217.5 c 128,-1,11
 598 1257 598 1257 512 1257 c 0,12,13
 431 1257 431 1257 337 1223.5 c 128,-1,14
 243 1190 243 1190 141 1124 c 1,15,-1
 141 1438 l 1,16,17
 262 1480 262 1480 362 1500 c 128,-1,18
 462 1520 462 1520 555 1520 c 0,19,20
 799 1520 799 1520 927 1420.5 c 128,-1,21
 1055 1321 1055 1321 1055 1130 c 0,22,23
 1055 1032 1055 1032 1016 954.5 c 128,-1,24
 977 877 977 877 883 788 c 1,25,-1
 819 731 l 2,26,27
 751 669 751 669 730 631.5 c 128,-1,28
 709 594 709 594 709 549 c 2,29,-1
 709 504 l 1,0,-1
348 356 m 1,30,-1
 709 356 l 1,31,-1
 709 0 l 1,32,-1
 348 0 l 1,33,-1
 348 356 l 1,30,-1
EndSplineSet
EndChar
StartChar: at
Encoding: 64 64 64
Width: 2048
Flags: W
Fore
831 539 m 0,0,1
 831 416 831 416 883.5 345 c 128,-1,2
 936 274 936 274 1026 274 c 0,3,4
 1115 274 1115 274 1168 345.5 c 128,-1,5
 1221 417 1221 417 1221 539 c 0,6,7
 1221 660 1221 660 1167.5 730.5 c 128,-1,8
 1114 801 1114 801 1024 801 c 0,9,10
 936 801 936 801 883.5 730.5 c 128,-1,11
 831 660 831 660 831 539 c 0,0,1
1241 238 m 1,12,13
 1211 167 1211 167 1144.5 127.5 c 128,-1,14
 1078 88 1078 88 989 88 c 0,15,16
 817 88 817 88 709.5 212.5 c 128,-1,17
 602 337 602 337 602 537 c 0,18,19
 602 737 602 737 710 862 c 128,-1,20
 818 987 818 987 989 987 c 0,21,22
 1078 987 1078 987 1144.5 947 c 128,-1,23
 1211 907 1211 907 1241 836 c 1,24,-1
 1241 967 l 1,25,-1
 1450 967 l 1,26,-1
 1450 274 l 1,27,28
 1574 293 1574 293 1645 393.5 c 128,-1,29
 1716 494 1716 494 1716 651 c 0,30,31
 1716 751 1716 751 1687 838.5 c 128,-1,32
 1658 926 1658 926 1599 999 c 1,33,34
 1504 1121 1504 1121 1361.5 1187 c 128,-1,35
 1219 1253 1219 1253 1053 1253 c 0,36,37
 937 1253 937 1253 831 1222.5 c 128,-1,38
 725 1192 725 1192 635 1133 c 0,39,40
 487 1035 487 1035 404.5 879.5 c 128,-1,41
 322 724 322 724 322 543 c 0,42,43
 322 394 322 394 375.5 263.5 c 128,-1,44
 429 133 429 133 530 33 c 0,45,46
 630 -65 630 -65 759.5 -116.5 c 128,-1,47
 889 -168 889 -168 1036 -168 c 0,48,49
 1162 -168 1162 -168 1288 -121 c 128,-1,50
 1414 -74 1414 -74 1503 6 c 1,51,-1
 1610 -156 l 1,52,53
 1485 -253 1485 -253 1337.5 -304.5 c 128,-1,54
 1190 -356 1190 -356 1038 -356 c 0,55,56
 853 -356 853 -356 689 -290.5 c 128,-1,57
 525 -225 525 -225 397 -100 c 0,58,59
 269 25 269 25 202 189.5 c 128,-1,60
 135 354 135 354 135 543 c 0,61,62
 135 725 135 725 203 890 c 128,-1,63
 271 1055 271 1055 397 1180 c 0,64,65
 523 1304 523 1304 690.5 1372 c 128,-1,66
 858 1440 858 1440 1038 1440 c 0,67,68
 1262 1440 1262 1440 1445 1354.5 c 128,-1,69
 1628 1269 1628 1269 1751 1108 c 0,70,71
 1826 1010 1826 1010 1864.5 895.5 c 128,-1,72
 1903 781 1903 781 1903 655 c 0,73,74
 1903 384 1903 384 1740 234 c 128,-1,75
 1577 84 1577 84 1280 84 c 2,76,-1
 1241 84 l 1,77,-1
 1241 238 l 1,12,13
EndSplineSet
EndChar
StartChar: A
Encoding: 65 65 65
Width: 1585
Flags: W
AnchorPoint: "above" 790 1520 basechar 0
Fore
1094 272 m 1,0,-1
 492 272 l 1,1,-1
 397 0 l 1,2,-1
 10 0 l 1,3,-1
 563 1493 l 1,4,-1
 1022 1493 l 1,5,-1
 1575 0 l 1,6,-1
 1188 0 l 1,7,-1
 1094 272 l 1,0,-1
588 549 m 1,8,-1
 997 549 l 1,9,-1
 793 1143 l 1,10,-1
 588 549 l 1,8,-1
EndSplineSet
KernsSLIFO: 563 -73 0 0 375 -73 0 0 7922 -196 0 0 562 -196 0 0 374 -196 0 0 368 -63 0 0 364 -63 0 0 362 -63 0 0 360 -63 0 0 7812 -92 0 0 7810 -92 0 0 7808 -92 0 0 372 -92 0 0 538 -159 0 0 354 -159 0 0 366 -63 0 0 356 -159 0 0 253 -73 0 0 221 -196 0 0 217 -63 0 0 219 -63 0 0 218 -63 0 0 8222 114 0 0 8218 114 0 0 376 -196 0 0 255 -73 0 0 8217 -188 0 0 8221 -188 0 0 220 -63 0 0 121 -73 0 0 118 -73 0 0 89 -196 0 0 87 -92 0 0 86 -139 0 0 85 -63 0 0 84 -159 0 0 59 38 0 0 58 38 0 0 46 38 0 0 44 38 0 0
EndChar
StartChar: B
Encoding: 66 66 66
Width: 1561
Flags: W
Fore
786 915 m 2,0,1
 877 915 877 915 924 955 c 128,-1,2
 971 995 971 995 971 1073 c 0,3,4
 971 1150 971 1150 924 1190.5 c 128,-1,5
 877 1231 877 1231 786 1231 c 2,6,-1
 573 1231 l 1,7,-1
 573 915 l 1,8,-1
 786 915 l 2,0,1
799 262 m 2,9,10
 915 262 915 262 973.5 311 c 128,-1,11
 1032 360 1032 360 1032 459 c 0,12,13
 1032 556 1032 556 974 604.5 c 128,-1,14
 916 653 916 653 799 653 c 2,15,-1
 573 653 l 1,16,-1
 573 262 l 1,17,-1
 799 262 l 2,9,10
1157 799 m 1,18,19
 1281 763 1281 763 1349 666 c 128,-1,20
 1417 569 1417 569 1417 428 c 0,21,22
 1417 212 1417 212 1271 106 c 128,-1,23
 1125 0 1125 0 827 0 c 2,24,-1
 188 0 l 1,25,-1
 188 1493 l 1,26,-1
 766 1493 l 2,27,28
 1077 1493 1077 1493 1216.5 1399 c 128,-1,29
 1356 1305 1356 1305 1356 1098 c 0,30,31
 1356 989 1356 989 1305 912.5 c 128,-1,32
 1254 836 1254 836 1157 799 c 1,18,19
EndSplineSet
KernsSLIFO: 7922 -112 0 0 562 -112 0 0 374 -112 0 0 7812 -112 0 0 7810 -112 0 0 7808 -112 0 0 372 -112 0 0 221 -112 0 0 376 -112 0 0 89 -112 0 0 87 -112 0 0 86 -83 0 0
EndChar
StartChar: C
Encoding: 67 67 67
Width: 1503
Flags: W
AnchorPoint: "above" 909 1520 basechar 0
Fore
1372 82 m 1,0,1
 1266 27 1266 27 1151 -1 c 128,-1,2
 1036 -29 1036 -29 911 -29 c 0,3,4
 538 -29 538 -29 320 179.5 c 128,-1,5
 102 388 102 388 102 745 c 0,6,7
 102 1103 102 1103 320 1311.5 c 128,-1,8
 538 1520 538 1520 911 1520 c 0,9,10
 1036 1520 1036 1520 1151 1492 c 128,-1,11
 1266 1464 1266 1464 1372 1409 c 1,12,-1
 1372 1100 l 1,13,14
 1265 1173 1265 1173 1161 1207 c 128,-1,15
 1057 1241 1057 1241 942 1241 c 0,16,17
 736 1241 736 1241 618 1109 c 128,-1,18
 500 977 500 977 500 745 c 0,19,20
 500 514 500 514 618 382 c 128,-1,21
 736 250 736 250 942 250 c 0,22,23
 1057 250 1057 250 1161 284 c 128,-1,24
 1265 318 1265 318 1372 391 c 1,25,-1
 1372 82 l 1,0,1
EndSplineSet
KernsSLIFO: 536 38 0 0 348 38 0 0 346 38 0 0 350 38 0 0 352 38 0 0 8217 75 0 0 8221 75 0 0 83 38 0 0 45 47 0 0
EndChar
StartChar: D
Encoding: 68 68 68
Width: 1700
Flags: W
AnchorPoint: "above" 777 1520 basechar 0
Fore
573 1202 m 1,0,-1
 573 291 l 1,1,-1
 711 291 l 2,2,3
 947 291 947 291 1071.5 408 c 128,-1,4
 1196 525 1196 525 1196 748 c 0,5,6
 1196 970 1196 970 1072 1086 c 128,-1,7
 948 1202 948 1202 711 1202 c 2,8,-1
 573 1202 l 1,0,-1
188 1493 m 1,9,-1
 594 1493 l 2,10,11
 934 1493 934 1493 1100.5 1444.5 c 128,-1,12
 1267 1396 1267 1396 1386 1280 c 0,13,14
 1491 1179 1491 1179 1542 1047 c 128,-1,15
 1593 915 1593 915 1593 748 c 0,16,17
 1593 579 1593 579 1542 446.5 c 128,-1,18
 1491 314 1491 314 1386 213 c 0,19,20
 1266 97 1266 97 1098 48.5 c 128,-1,21
 930 0 930 0 594 0 c 2,22,-1
 188 0 l 1,23,-1
 188 1493 l 1,9,-1
EndSplineSet
KernsSLIFO: 7922 -149 0 0 562 -149 0 0 374 -149 0 0 221 -149 0 0 8222 -36 0 0 8218 -36 0 0 376 -149 0 0 89 -149 0 0 45 38 0 0
EndChar
StartChar: E
Encoding: 69 69 69
Width: 1399
Flags: W
AnchorPoint: "above" 690 1520 basechar 0
Fore
188 1493 m 1,0,-1
 1227 1493 l 1,1,-1
 1227 1202 l 1,2,-1
 573 1202 l 1,3,-1
 573 924 l 1,4,-1
 1188 924 l 1,5,-1
 1188 633 l 1,6,-1
 573 633 l 1,7,-1
 573 291 l 1,8,-1
 1249 291 l 1,9,-1
 1249 0 l 1,10,-1
 188 0 l 1,11,-1
 188 1493 l 1,0,-1
EndSplineSet
EndChar
StartChar: F
Encoding: 70 70 70
Width: 1399
Flags: W
Fore
188 1493 m 1,0,-1
 1227 1493 l 1,1,-1
 1227 1202 l 1,2,-1
 573 1202 l 1,3,-1
 573 924 l 1,4,-1
 1188 924 l 1,5,-1
 1188 633 l 1,6,-1
 573 633 l 1,7,-1
 573 0 l 1,8,-1
 188 0 l 1,9,-1
 188 1493 l 1,0,-1
EndSplineSet
KernsSLIFO: 483 -120 0 0 7923 -112 0 0 563 -112 0 0 375 -112 0 0 371 -102 0 0 369 -102 0 0 365 -102 0 0 363 -102 0 0 361 -102 0 0 343 -131 0 0 559 -83 0 0 493 -83 0 0 491 -83 0 0 337 -83 0 0 335 -83 0 0 333 -83 0 0 281 -83 0 0 279 -83 0 0 277 -83 0 0 275 -83 0 0 261 -120 0 0 259 -120 0 0 257 -120 0 0 260 -235 0 0 258 -235 0 0 256 -235 0 0 252 -102 0 0 229 -120 0 0 230 -120 0 0 59 -112 0 0 242 -83 0 0 45 -63 0 0 8222 -339 0 0 367 -102 0 0 245 -83 0 0 235 -83 0 0 249 -102 0 0 44 -329 0 0 224 -120 0 0 195 -235 0 0 234 -83 0 0 341 -131 0 0 232 -83 0 0 196 -235 0 0 193 -235 0 0 8217 38 0 0 251 -102 0 0 253 -112 0 0 8218 -339 0 0 227 -120 0 0 194 -235 0 0 248 -83 0 0 244 -83 0 0 65 -235 0 0 97 -120 0 0 228 -120 0 0 246 -83 0 0 250 -102 0 0 225 -120 0 0 345 -131 0 0 46 -301 0 0 226 -120 0 0 233 -83 0 0 283 -83 0 0 101 -83 0 0 339 -83 0 0 255 -112 0 0 111 -83 0 0 114 -131 0 0 117 -102 0 0 192 -235 0 0 121 -112 0 0 58 -112 0 0 243 -83 0 0
EndChar
StartChar: G
Encoding: 71 71 71
Width: 1681
Flags: W
AnchorPoint: "above" 930 1520 basechar 0
Fore
1530 111 m 1,0,1
 1386 41 1386 41 1231 6 c 128,-1,2
 1076 -29 1076 -29 911 -29 c 0,3,4
 538 -29 538 -29 320 179.5 c 128,-1,5
 102 388 102 388 102 745 c 0,6,7
 102 1106 102 1106 324 1313 c 128,-1,8
 546 1520 546 1520 932 1520 c 0,9,10
 1081 1520 1081 1520 1217.5 1492 c 128,-1,11
 1354 1464 1354 1464 1475 1409 c 1,12,-1
 1475 1100 l 1,13,14
 1350 1171 1350 1171 1226.5 1206 c 128,-1,15
 1103 1241 1103 1241 979 1241 c 0,16,17
 749 1241 749 1241 624.5 1112.5 c 128,-1,18
 500 984 500 984 500 745 c 0,19,20
 500 508 500 508 620 379 c 128,-1,21
 740 250 740 250 961 250 c 0,22,23
 1021 250 1021 250 1072.5 257.5 c 128,-1,24
 1124 265 1124 265 1165 281 c 1,25,-1
 1165 571 l 1,26,-1
 930 571 l 1,27,-1
 930 829 l 1,28,-1
 1530 829 l 1,29,-1
 1530 111 l 1,0,1
EndSplineSet
KernsSLIFO: 356 -36 0 0 221 -45 0 0 376 -45 0 0 89 -45 0 0 84 -36 0 0
EndChar
StartChar: H
Encoding: 72 72 72
Width: 1714
Flags: W
AnchorPoint: "above" 855 1520 basechar 0
Fore
188 1493 m 1,0,-1
 573 1493 l 1,1,-1
 573 924 l 1,2,-1
 1141 924 l 1,3,-1
 1141 1493 l 1,4,-1
 1526 1493 l 1,5,-1
 1526 0 l 1,6,-1
 1141 0 l 1,7,-1
 1141 633 l 1,8,-1
 573 633 l 1,9,-1
 573 0 l 1,10,-1
 188 0 l 1,11,-1
 188 1493 l 1,0,-1
EndSplineSet
EndChar
StartChar: I
Encoding: 73 73 73
Width: 762
Flags: W
AnchorPoint: "above" 378 1520 basechar 0
Fore
188 1493 m 1,0,-1
 573 1493 l 1,1,-1
 573 0 l 1,2,-1
 188 0 l 1,3,-1
 188 1493 l 1,0,-1
EndSplineSet
EndChar
StartChar: J
Encoding: 74 74 74
Width: 762
Flags: W
AnchorPoint: "above" 378 1520 basechar 0
Fore
188 1493 m 1,0,-1
 573 1493 l 1,1,-1
 573 145 l 2,2,3
 573 -134 573 -134 421.5 -272 c 128,-1,4
 270 -410 270 -410 -37 -410 c 2,5,-1
 -115 -410 l 1,6,-1
 -115 -119 l 1,7,-1
 -55 -119 l 2,8,9
 65 -119 65 -119 126.5 -52 c 128,-1,10
 188 15 188 15 188 145 c 2,11,-1
 188 1493 l 1,0,-1
EndSplineSet
EndChar
StartChar: K
Encoding: 75 75 75
Width: 1587
Flags: W
Fore
188 1493 m 1,0,-1
 573 1493 l 1,1,-1
 573 948 l 1,2,-1
 1128 1493 l 1,3,-1
 1575 1493 l 1,4,-1
 856 786 l 1,5,-1
 1649 0 l 1,6,-1
 1167 0 l 1,7,-1
 573 588 l 1,8,-1
 573 0 l 1,9,-1
 188 0 l 1,10,-1
 188 1493 l 1,0,-1
EndSplineSet
KernsSLIFO: 367 -36 0 0 366 -36 0 0 283 -36 0 0 268 -92 0 0 262 -92 0 0 253 -131 0 0 217 -36 0 0 219 -36 0 0 218 -36 0 0 210 -92 0 0 212 -92 0 0 211 -92 0 0 8222 38 0 0 8218 38 0 0 255 -131 0 0 339 -36 0 0 338 -102 0 0 213 -92 0 0 248 -36 0 0 216 -55 0 0 252 -36 0 0 251 -36 0 0 249 -36 0 0 250 -36 0 0 245 -36 0 0 246 -36 0 0 244 -36 0 0 242 -36 0 0 243 -36 0 0 235 -36 0 0 234 -36 0 0 232 -36 0 0 233 -36 0 0 220 -36 0 0 214 -92 0 0 199 -92 0 0 121 -131 0 0 117 -36 0 0 111 -36 0 0 101 -36 0 0 85 -36 0 0 79 -92 0 0 67 -92 0 0 45 -178 0 0
EndChar
StartChar: L
Encoding: 76 76 76
Width: 1305
Flags: W
Fore
188 1493 m 1,0,-1
 573 1493 l 1,1,-1
 573 291 l 1,2,-1
 1249 291 l 1,3,-1
 1249 0 l 1,4,-1
 188 0 l 1,5,-1
 188 1493 l 1,0,-1
EndSplineSet
KernsSLIFO: 366 -73 0 0 356 -339 0 0 253 -139 0 0 221 -319 0 0 217 -73 0 0 219 -73 0 0 218 -73 0 0 210 -73 0 0 212 -73 0 0 211 -73 0 0 376 -319 0 0 255 -139 0 0 8217 -471 0 0 8221 -491 0 0 338 -73 0 0 213 -73 0 0 216 -73 0 0 220 -73 0 0 214 -73 0 0 121 -139 0 0 89 -319 0 0 87 -159 0 0 86 -282 0 0 85 -73 0 0 84 -339 0 0 79 -73 0 0
EndChar
StartChar: M
Encoding: 77 77 77
Width: 2038
Flags: W
Fore
188 1493 m 1,0,-1
 678 1493 l 1,1,-1
 1018 694 l 1,2,-1
 1360 1493 l 1,3,-1
 1849 1493 l 1,4,-1
 1849 0 l 1,5,-1
 1485 0 l 1,6,-1
 1485 1092 l 1,7,-1
 1141 287 l 1,8,-1
 897 287 l 1,9,-1
 553 1092 l 1,10,-1
 553 0 l 1,11,-1
 188 0 l 1,12,-1
 188 1493 l 1,0,-1
EndSplineSet
EndChar
StartChar: N
Encoding: 78 78 78
Width: 1714
Flags: W
AnchorPoint: "above" 879 1520 basechar 0
Fore
188 1493 m 1,0,-1
 618 1493 l 1,1,-1
 1161 469 l 1,2,-1
 1161 1493 l 1,3,-1
 1526 1493 l 1,4,-1
 1526 0 l 1,5,-1
 1096 0 l 1,6,-1
 553 1024 l 1,7,-1
 553 0 l 1,8,-1
 188 0 l 1,9,-1
 188 1493 l 1,0,-1
EndSplineSet
EndChar
StartChar: O
Encoding: 79 79 79
Width: 1741
Flags: W
AnchorPoint: "above" 844 1520 basechar 0
Fore
870 1241 m 0,0,1
 694 1241 694 1241 597 1111 c 128,-1,2
 500 981 500 981 500 745 c 0,3,4
 500 510 500 510 597 380 c 128,-1,5
 694 250 694 250 870 250 c 0,6,7
 1047 250 1047 250 1144 380 c 128,-1,8
 1241 510 1241 510 1241 745 c 0,9,10
 1241 981 1241 981 1144 1111 c 128,-1,11
 1047 1241 1047 1241 870 1241 c 0,0,1
870 1520 m 0,12,13
 1230 1520 1230 1520 1434 1314 c 128,-1,14
 1638 1108 1638 1108 1638 745 c 0,15,16
 1638 383 1638 383 1434 177 c 128,-1,17
 1230 -29 1230 -29 870 -29 c 0,18,19
 511 -29 511 -29 306.5 177 c 128,-1,20
 102 383 102 383 102 745 c 0,21,22
 102 1108 102 1108 306.5 1314 c 128,-1,23
 511 1520 511 1520 870 1520 c 0,12,13
EndSplineSet
KernsSLIFO: 221 -73 0 0 193 -55 0 0 194 -55 0 0 376 -73 0 0 195 -55 0 0 192 -55 0 0 196 -55 0 0 89 -73 0 0 88 -73 0 0 86 -55 0 0 65 -55 0 0 46 -45 0 0 45 38 0 0 44 -45 0 0
EndChar
StartChar: P
Encoding: 80 80 80
Width: 1501
Flags: W
Fore
188 1493 m 1,0,-1
 827 1493 l 2,1,2
 1112 1493 1112 1493 1264.5 1366.5 c 128,-1,3
 1417 1240 1417 1240 1417 1006 c 0,4,5
 1417 771 1417 771 1264.5 644.5 c 128,-1,6
 1112 518 1112 518 827 518 c 2,7,-1
 573 518 l 1,8,-1
 573 0 l 1,9,-1
 188 0 l 1,10,-1
 188 1493 l 1,0,-1
573 1214 m 1,11,-1
 573 797 l 1,12,-1
 786 797 l 2,13,14
 898 797 898 797 959 851.5 c 128,-1,15
 1020 906 1020 906 1020 1006 c 0,16,17
 1020 1106 1020 1106 959 1160 c 128,-1,18
 898 1214 898 1214 786 1214 c 2,19,-1
 573 1214 l 1,11,-1
EndSplineSet
KernsSLIFO: 351 -36 0 0 253 38 0 0 353 -36 0 0 193 -188 0 0 194 -188 0 0 8222 -415 0 0 8218 -415 0 0 255 38 0 0 8217 57 0 0 8221 38 0 0 195 -188 0 0 192 -188 0 0 230 -55 0 0 229 -55 0 0 227 -55 0 0 228 -55 0 0 226 -55 0 0 224 -55 0 0 225 -55 0 0 196 -188 0 0 121 38 0 0 115 -36 0 0 97 -55 0 0 65 -188 0 0 46 -376 0 0 45 -36 0 0 44 -376 0 0
EndChar
StartChar: Q
Encoding: 81 81 81
Width: 1741
Flags: W
Fore
911 -27 m 1,0,-1
 881 -27 l 2,1,2
 512 -27 512 -27 307 177 c 128,-1,3
 102 381 102 381 102 745 c 0,4,5
 102 1108 102 1108 306.5 1314 c 128,-1,6
 511 1520 511 1520 870 1520 c 0,7,8
 1233 1520 1233 1520 1435.5 1316 c 128,-1,9
 1638 1112 1638 1112 1638 745 c 0,10,11
 1638 493 1638 493 1530.5 311 c 128,-1,12
 1423 129 1423 129 1221 37 c 1,13,-1
 1522 -299 l 1,14,-1
 1155 -299 l 1,15,-1
 911 -27 l 1,0,-1
870 1241 m 0,16,17
 694 1241 694 1241 597 1111 c 128,-1,18
 500 981 500 981 500 745 c 0,19,20
 500 505 500 505 595 377.5 c 128,-1,21
 690 250 690 250 870 250 c 0,22,23
 1047 250 1047 250 1144 380 c 128,-1,24
 1241 510 1241 510 1241 745 c 0,25,26
 1241 981 1241 981 1144 1111 c 128,-1,27
 1047 1241 1047 1241 870 1241 c 0,16,17
EndSplineSet
KernsSLIFO: 45 38 0 0
EndChar
StartChar: R
Encoding: 82 82 82
Width: 1577
Flags: W
AnchorPoint: "above" 711 1520 basechar 0
Fore
735 831 m 2,0,1
 856 831 856 831 908.5 876 c 128,-1,2
 961 921 961 921 961 1024 c 0,3,4
 961 1126 961 1126 908.5 1170 c 128,-1,5
 856 1214 856 1214 735 1214 c 2,6,-1
 573 1214 l 1,7,-1
 573 831 l 1,8,-1
 735 831 l 2,0,1
573 565 m 1,9,-1
 573 0 l 1,10,-1
 188 0 l 1,11,-1
 188 1493 l 1,12,-1
 776 1493 l 2,13,14
 1071 1493 1071 1493 1208.5 1394 c 128,-1,15
 1346 1295 1346 1295 1346 1081 c 0,16,17
 1346 933 1346 933 1274.5 838 c 128,-1,18
 1203 743 1203 743 1059 698 c 1,19,20
 1138 680 1138 680 1200.5 616.5 c 128,-1,21
 1263 553 1263 553 1327 424 c 2,22,-1
 1536 0 l 1,23,-1
 1126 0 l 1,24,-1
 944 371 l 2,25,26
 889 483 889 483 832.5 524 c 128,-1,27
 776 565 776 565 682 565 c 2,28,-1
 573 565 l 1,9,-1
EndSplineSet
KernsSLIFO: 356 -92 0 0 253 -92 0 0 221 -112 0 0 376 -112 0 0 255 -92 0 0 121 -92 0 0 89 -112 0 0 84 -92 0 0 46 38 0 0 44 38 0 0
EndChar
StartChar: S
Encoding: 83 83 83
Width: 1475
Flags: W
AnchorPoint: "above" 703 1520 basechar 0
Fore
1227 1446 m 1,0,-1
 1227 1130 l 1,1,2
 1104 1185 1104 1185 987 1213 c 128,-1,3
 870 1241 870 1241 766 1241 c 0,4,5
 628 1241 628 1241 562 1203 c 128,-1,6
 496 1165 496 1165 496 1085 c 0,7,8
 496 1025 496 1025 540.5 991.5 c 128,-1,9
 585 958 585 958 702 934 c 2,10,-1
 866 901 l 2,11,12
 1115 851 1115 851 1220 749 c 128,-1,13
 1325 647 1325 647 1325 459 c 0,14,15
 1325 212 1325 212 1178.5 91.5 c 128,-1,16
 1032 -29 1032 -29 731 -29 c 0,17,18
 589 -29 589 -29 446 -2 c 128,-1,19
 303 25 303 25 160 78 c 1,20,-1
 160 403 l 1,21,22
 303 327 303 327 436.5 288.5 c 128,-1,23
 570 250 570 250 694 250 c 0,24,25
 820 250 820 250 887 292 c 128,-1,26
 954 334 954 334 954 412 c 0,27,28
 954 482 954 482 908.5 520 c 128,-1,29
 863 558 863 558 727 588 c 2,30,-1
 578 621 l 2,31,32
 354 669 354 669 250.5 774 c 128,-1,33
 147 879 147 879 147 1057 c 0,34,35
 147 1280 147 1280 291 1400 c 128,-1,36
 435 1520 435 1520 705 1520 c 0,37,38
 828 1520 828 1520 958 1501.5 c 128,-1,39
 1088 1483 1088 1483 1227 1446 c 1,0,-1
EndSplineSet
KernsSLIFO: 350 -92 0 0 352 -92 0 0 83 -92 0 0
EndChar
StartChar: T
Encoding: 84 84 84
Width: 1397
Flags: W
AnchorPoint: "above" 711 1520 basechar 0
Fore
10 1493 m 1,0,-1
 1386 1493 l 1,1,-1
 1386 1202 l 1,2,-1
 891 1202 l 1,3,-1
 891 0 l 1,4,-1
 506 0 l 1,5,-1
 506 1202 l 1,6,-1
 10 1202 l 1,7,-1
 10 1493 l 1,0,-1
EndSplineSet
KernsSLIFO: 252 -225 0 0 229 -264 0 0 230 -196 0 0 59 -112 0 0 242 -272 0 0 45 -301 0 0 8222 -264 0 0 367 -225 0 0 245 -272 0 0 235 -272 0 0 249 -225 0 0 58 -112 0 0 224 -264 0 0 195 -159 0 0 234 -272 0 0 231 -272 0 0 341 -225 0 0 232 -272 0 0 196 -159 0 0 193 -159 0 0 269 -272 0 0 345 -225 0 0 251 -225 0 0 253 -243 0 0 8218 -264 0 0 227 -264 0 0 194 -159 0 0 248 -159 0 0 244 -272 0 0 353 -272 0 0 65 -159 0 0 283 -272 0 0 351 -272 0 0 228 -264 0 0 119 -225 0 0 246 -272 0 0 250 -225 0 0 263 -272 0 0 225 -264 0 0 46 -311 0 0 84 47 0 0 226 -264 0 0 233 -272 0 0 97 -264 0 0 99 -272 0 0 101 -272 0 0 339 -159 0 0 255 -243 0 0 111 -272 0 0 115 -272 0 0 114 -225 0 0 117 -225 0 0 192 -159 0 0 121 -243 0 0 44 -292 0 0 243 -272 0 0
EndChar
StartChar: U
Encoding: 85 85 85
Width: 1663
Flags: W
AnchorPoint: "above" 830 1520 basechar 0
Fore
188 1493 m 1,0,-1
 573 1493 l 1,1,-1
 573 598 l 2,2,3
 573 413 573 413 633.5 333.5 c 128,-1,4
 694 254 694 254 831 254 c 0,5,6
 969 254 969 254 1029.5 333.5 c 128,-1,7
 1090 413 1090 413 1090 598 c 2,8,-1
 1090 1493 l 1,9,-1
 1475 1493 l 1,10,-1
 1475 598 l 2,11,12
 1475 281 1475 281 1316 126 c 128,-1,13
 1157 -29 1157 -29 831 -29 c 0,14,15
 506 -29 506 -29 347 126 c 128,-1,16
 188 281 188 281 188 598 c 2,17,-1
 188 1493 l 1,0,-1
EndSplineSet
KernsSLIFO: 193 -63 0 0 194 -63 0 0 195 -63 0 0 192 -63 0 0 196 -63 0 0 65 -63 0 0
EndChar
StartChar: V
Encoding: 86 86 86
Width: 1585
Flags: W
Fore
10 1493 m 1,0,-1
 397 1493 l 1,1,-1
 793 391 l 1,2,-1
 1188 1493 l 1,3,-1
 1575 1493 l 1,4,-1
 1022 0 l 1,5,-1
 563 0 l 1,6,-1
 10 1493 l 1,0,-1
EndSplineSet
KernsSLIFO: 367 -73 0 0 283 -112 0 0 210 -36 0 0 212 -36 0 0 211 -36 0 0 193 -139 0 0 194 -139 0 0 8222 -188 0 0 8218 -225 0 0 339 -112 0 0 338 -36 0 0 213 -36 0 0 195 -139 0 0 192 -139 0 0 248 -112 0 0 230 -112 0 0 216 -36 0 0 252 -73 0 0 251 -73 0 0 249 -73 0 0 250 -73 0 0 245 -112 0 0 246 -112 0 0 244 -112 0 0 242 -112 0 0 243 -112 0 0 235 -112 0 0 234 -112 0 0 232 -112 0 0 233 -112 0 0 229 -112 0 0 227 -112 0 0 228 -112 0 0 226 -112 0 0 224 -112 0 0 225 -112 0 0 214 -36 0 0 196 -139 0 0 117 -73 0 0 111 -112 0 0 105 -36 0 0 101 -112 0 0 97 -112 0 0 79 -36 0 0 65 -139 0 0 59 -92 0 0 58 -92 0 0 46 -264 0 0 45 -149 0 0 44 -264 0 0
EndChar
StartChar: W
Encoding: 87 87 87
Width: 2259
Flags: W
AnchorPoint: "above" 1126 1527 basechar 0
Fore
61 1493 m 1,0,-1
 430 1493 l 1,1,-1
 688 408 l 1,2,-1
 944 1493 l 1,3,-1
 1315 1493 l 1,4,-1
 1571 408 l 1,5,-1
 1829 1493 l 1,6,-1
 2195 1493 l 1,7,-1
 1843 0 l 1,8,-1
 1399 0 l 1,9,-1
 1128 1135 l 1,10,-1
 860 0 l 1,11,-1
 416 0 l 1,12,-1
 61 1493 l 1,0,-1
EndSplineSet
KernsSLIFO: 229 -73 0 0 230 -73 0 0 59 -63 0 0 242 -73 0 0 45 -92 0 0 46 -167 0 0 245 -73 0 0 235 -73 0 0 44 -167 0 0 224 -73 0 0 195 -92 0 0 234 -73 0 0 341 -36 0 0 232 -73 0 0 196 -92 0 0 193 -92 0 0 227 -73 0 0 194 -92 0 0 248 -73 0 0 244 -73 0 0 65 -92 0 0 97 -73 0 0 228 -73 0 0 246 -73 0 0 225 -73 0 0 345 -36 0 0 226 -73 0 0 233 -73 0 0 283 -73 0 0 101 -73 0 0 339 -73 0 0 111 -73 0 0 114 -36 0 0 192 -92 0 0 58 -63 0 0 243 -73 0 0
EndChar
StartChar: X
Encoding: 88 88 88
Width: 1579
Flags: W
Fore
1020 762 m 1,0,-1
 1538 0 l 1,1,-1
 1137 0 l 1,2,-1
 788 510 l 1,3,-1
 442 0 l 1,4,-1
 39 0 l 1,5,-1
 557 762 l 1,6,-1
 59 1493 l 1,7,-1
 461 1493 l 1,8,-1
 788 1012 l 1,9,-1
 1114 1493 l 1,10,-1
 1518 1493 l 1,11,-1
 1020 762 l 1,0,-1
EndSplineSet
KernsSLIFO: 283 -55 0 0 268 -73 0 0 262 -73 0 0 210 -73 0 0 212 -73 0 0 211 -73 0 0 8222 38 0 0 8218 38 0 0 338 -73 0 0 213 -73 0 0 216 -73 0 0 235 -55 0 0 234 -55 0 0 232 -55 0 0 233 -55 0 0 214 -73 0 0 199 -73 0 0 101 -55 0 0 79 -73 0 0 67 -73 0 0 45 -167 0 0
EndChar
StartChar: Y
Encoding: 89 89 89
Width: 1483
Flags: W
AnchorPoint: "above" 739 1527 basechar 0
Fore
-20 1493 m 1,0,-1
 401 1493 l 1,1,-1
 741 961 l 1,2,-1
 1081 1493 l 1,3,-1
 1503 1493 l 1,4,-1
 934 629 l 1,5,-1
 934 0 l 1,6,-1
 549 0 l 1,7,-1
 549 629 l 1,8,-1
 -20 1493 l 1,0,-1
EndSplineSet
KernsSLIFO: 367 -149 0 0 283 -188 0 0 268 -73 0 0 262 -73 0 0 210 -73 0 0 212 -73 0 0 211 -73 0 0 193 -196 0 0 194 -196 0 0 8222 -301 0 0 8218 -376 0 0 339 -188 0 0 338 -92 0 0 213 -73 0 0 195 -196 0 0 192 -196 0 0 248 -188 0 0 230 -188 0 0 216 -36 0 0 252 -149 0 0 251 -149 0 0 249 -149 0 0 250 -149 0 0 245 -188 0 0 246 -188 0 0 244 -188 0 0 242 -188 0 0 243 -188 0 0 235 -188 0 0 234 -188 0 0 232 -188 0 0 233 -188 0 0 229 -188 0 0 227 -188 0 0 228 -188 0 0 226 -188 0 0 224 -188 0 0 225 -188 0 0 214 -73 0 0 199 -73 0 0 196 -196 0 0 117 -149 0 0 111 -188 0 0 101 -188 0 0 97 -188 0 0 79 -73 0 0 67 -73 0 0 65 -196 0 0 59 -178 0 0 58 -178 0 0 46 -339 0 0 45 -301 0 0 44 -339 0 0
EndChar
StartChar: Z
Encoding: 90 90 90
Width: 1485
Flags: W
AnchorPoint: "above" 717 1520 basechar 0
Fore
115 1493 m 1,0,-1
 1370 1493 l 1,1,-1
 1370 1260 l 1,2,-1
 569 291 l 1,3,-1
 1393 291 l 1,4,-1
 1393 0 l 1,5,-1
 92 0 l 1,6,-1
 92 233 l 1,7,-1
 893 1202 l 1,8,-1
 115 1202 l 1,9,-1
 115 1493 l 1,0,-1
EndSplineSet
KernsSLIFO: 45 -36 0 0
EndChar
StartChar: bracketleft
Encoding: 91 91 91
Width: 936
Flags: W
Fore
176 1556 m 1,0,-1
 797 1556 l 1,1,-1
 797 1331 l 1,2,-1
 516 1331 l 1,3,-1
 516 -45 l 1,4,-1
 797 -45 l 1,5,-1
 797 -270 l 1,6,-1
 176 -270 l 1,7,-1
 176 1556 l 1,0,-1
EndSplineSet
EndChar
StartChar: backslash
Encoding: 92 92 92
Width: 748
Flags: W
Fore
526 -190 m 1,0,-1
 0 1493 l 1,1,-1
 221 1493 l 1,2,-1
 748 -190 l 1,3,-1
 526 -190 l 1,0,-1
EndSplineSet
EndChar
StartChar: bracketright
Encoding: 93 93 93
Width: 936
Flags: W
Fore
760 -270 m 1,0,-1
 139 -270 l 1,1,-1
 139 -45 l 1,2,-1
 420 -45 l 1,3,-1
 420 1331 l 1,4,-1
 139 1331 l 1,5,-1
 139 1556 l 1,6,-1
 760 1556 l 1,7,-1
 760 -270 l 1,0,-1
EndSplineSet
EndChar
StartChar: asciicircum
Encoding: 94 94 94
Width: 1716
Flags: W
Fore
981 1493 m 1,0,-1
 1509 936 l 1,1,-1
 1268 936 l 1,2,-1
 858 1237 l 1,3,-1
 449 936 l 1,4,-1
 207 936 l 1,5,-1
 735 1493 l 1,6,-1
 981 1493 l 1,0,-1
EndSplineSet
EndChar
StartChar: underscore
Encoding: 95 95 95
Width: 1024
Flags: W
Fore
1024 -293 m 1,0,-1
 1024 -483 l 1,1,-1
 0 -483 l 1,2,-1
 0 -293 l 1,3,-1
 1024 -293 l 1,0,-1
EndSplineSet
EndChar
StartChar: grave
Encoding: 96 96 96
Width: 1024
Flags: W
Fore
377 1638 m 1,0,-1
 659 1262 l 1,1,-1
 463 1262 l 1,2,-1
 94 1638 l 1,3,-1
 377 1638 l 1,0,-1
EndSplineSet
EndChar
StartChar: a
Encoding: 97 97 97
Width: 1382
Flags: W
AnchorPoint: "above" 698 1147 basechar 0
Fore
674 504 m 2,0,1
 562 504 562 504 505.5 466 c 128,-1,2
 449 428 449 428 449 354 c 0,3,4
 449 286 449 286 494.5 247.5 c 128,-1,5
 540 209 540 209 621 209 c 0,6,7
 722 209 722 209 791 281.5 c 128,-1,8
 860 354 860 354 860 463 c 2,9,-1
 860 504 l 1,10,-1
 674 504 l 2,0,1
1221 639 m 2,11,-1
 1221 0 l 1,12,-1
 860 0 l 1,13,-1
 860 166 l 1,14,15
 788 64 788 64 698 17.5 c 128,-1,16
 608 -29 608 -29 479 -29 c 0,17,18
 305 -29 305 -29 196.5 72.5 c 128,-1,19
 88 174 88 174 88 336 c 0,20,21
 88 533 88 533 223.5 625 c 128,-1,22
 359 717 359 717 649 717 c 2,23,-1
 860 717 l 1,24,-1
 860 745 l 2,25,26
 860 830 860 830 793 869.5 c 128,-1,27
 726 909 726 909 584 909 c 0,28,29
 469 909 469 909 370 886 c 128,-1,30
 271 863 271 863 186 817 c 1,31,-1
 186 1090 l 1,32,33
 301 1118 301 1118 417 1132.5 c 128,-1,34
 533 1147 533 1147 649 1147 c 0,35,36
 952 1147 952 1147 1086.5 1027.5 c 128,-1,37
 1221 908 1221 908 1221 639 c 2,11,-1
EndSplineSet
KernsSLIFO: 253 -63 0 0 255 -63 0 0 121 -63 0 0
EndChar
StartChar: b
Encoding: 98 98 98
Width: 1466
Flags: W
AnchorPoint: "above" 356 1520 basechar 0
Fore
768 231 m 0,0,1
 883 231 883 231 943.5 315 c 128,-1,2
 1004 399 1004 399 1004 559 c 0,3,4
 1004 719 1004 719 943.5 803 c 128,-1,5
 883 887 883 887 768 887 c 0,6,7
 653 887 653 887 591.5 802.5 c 128,-1,8
 530 718 530 718 530 559 c 0,9,10
 530 400 530 400 591.5 315.5 c 128,-1,11
 653 231 653 231 768 231 c 0,0,1
530 956 m 1,12,13
 604 1054 604 1054 694 1100.5 c 128,-1,14
 784 1147 784 1147 901 1147 c 0,15,16
 1108 1147 1108 1147 1241 982.5 c 128,-1,17
 1374 818 1374 818 1374 559 c 0,18,19
 1374 300 1374 300 1241 135.5 c 128,-1,20
 1108 -29 1108 -29 901 -29 c 0,21,22
 784 -29 784 -29 694 17.5 c 128,-1,23
 604 64 604 64 530 162 c 1,24,-1
 530 0 l 1,25,-1
 172 0 l 1,26,-1
 172 1556 l 1,27,-1
 530 1556 l 1,28,-1
 530 956 l 1,12,13
EndSplineSet
EndChar
StartChar: c
Encoding: 99 99 99
Width: 1214
Flags: W
AnchorPoint: "above" 733 1147 basechar 0
Fore
1077 1085 m 1,0,-1
 1077 793 l 1,1,2
 1004 843 1004 843 930.5 867 c 128,-1,3
 857 891 857 891 778 891 c 0,4,5
 628 891 628 891 544.5 803.5 c 128,-1,6
 461 716 461 716 461 559 c 0,7,8
 461 402 461 402 544.5 314.5 c 128,-1,9
 628 227 628 227 778 227 c 0,10,11
 862 227 862 227 937.5 252 c 128,-1,12
 1013 277 1013 277 1077 326 c 1,13,-1
 1077 33 l 1,14,15
 993 2 993 2 906.5 -13.5 c 128,-1,16
 820 -29 820 -29 733 -29 c 0,17,18
 430 -29 430 -29 259 126.5 c 128,-1,19
 88 282 88 282 88 559 c 0,20,21
 88 836 88 836 259 991.5 c 128,-1,22
 430 1147 430 1147 733 1147 c 0,23,24
 821 1147 821 1147 906.5 1131.5 c 128,-1,25
 992 1116 992 1116 1077 1085 c 1,0,-1
EndSplineSet
EndChar
StartChar: d
Encoding: 100 100 100
Width: 1466
Flags: W
AnchorPoint: "above" 1114 1520 basechar 0
Fore
934 956 m 1,0,-1
 934 1556 l 1,1,-1
 1294 1556 l 1,2,-1
 1294 0 l 1,3,-1
 934 0 l 1,4,-1
 934 162 l 1,5,6
 860 63 860 63 771 17 c 128,-1,7
 682 -29 682 -29 565 -29 c 0,8,9
 358 -29 358 -29 225 135.5 c 128,-1,10
 92 300 92 300 92 559 c 0,11,12
 92 818 92 818 225 982.5 c 128,-1,13
 358 1147 358 1147 565 1147 c 0,14,15
 681 1147 681 1147 770.5 1100.5 c 128,-1,16
 860 1054 860 1054 934 956 c 1,0,-1
698 231 m 0,17,18
 813 231 813 231 873.5 315 c 128,-1,19
 934 399 934 399 934 559 c 0,20,21
 934 719 934 719 873.5 803 c 128,-1,22
 813 887 813 887 698 887 c 0,23,24
 584 887 584 887 523.5 803 c 128,-1,25
 463 719 463 719 463 559 c 0,26,27
 463 399 463 399 523.5 315 c 128,-1,28
 584 231 584 231 698 231 c 0,17,18
EndSplineSet
EndChar
StartChar: e
Encoding: 101 101 101
Width: 1389
Flags: W
AnchorPoint: "above" 729 1147 basechar 0
Fore
1290 563 m 2,0,-1
 1290 461 l 1,1,-1
 453 461 l 1,2,3
 466 335 466 335 544 272 c 128,-1,4
 622 209 622 209 762 209 c 0,5,6
 875 209 875 209 993.5 242.5 c 128,-1,7
 1112 276 1112 276 1237 344 c 1,8,-1
 1237 68 l 1,9,10
 1110 20 1110 20 983 -4.5 c 128,-1,11
 856 -29 856 -29 729 -29 c 0,12,13
 425 -29 425 -29 256.5 125.5 c 128,-1,14
 88 280 88 280 88 559 c 0,15,16
 88 833 88 833 253.5 990 c 128,-1,17
 419 1147 419 1147 709 1147 c 0,18,19
 973 1147 973 1147 1131.5 988 c 128,-1,20
 1290 829 1290 829 1290 563 c 2,0,-1
922 682 m 1,21,22
 922 784 922 784 862.5 846.5 c 128,-1,23
 803 909 803 909 707 909 c 0,24,25
 603 909 603 909 538 850.5 c 128,-1,26
 473 792 473 792 457 682 c 1,27,-1
 922 682 l 1,21,22
EndSplineSet
EndChar
StartChar: f
Encoding: 102 102 102
Width: 891
Flags: W
AnchorPoint: "above" 394 1520 basechar 0
Fore
909 1556 m 1,0,-1
 909 1321 l 1,1,-1
 711 1321 l 2,2,3
 635 1321 635 1321 605 1293.5 c 128,-1,4
 575 1266 575 1266 575 1198 c 2,5,-1
 575 1120 l 1,6,-1
 881 1120 l 1,7,-1
 881 864 l 1,8,-1
 575 864 l 1,9,-1
 575 0 l 1,10,-1
 217 0 l 1,11,-1
 217 864 l 1,12,-1
 39 864 l 1,13,-1
 39 1120 l 1,14,-1
 217 1120 l 1,15,-1
 217 1198 l 2,16,17
 217 1381 217 1381 319 1468.5 c 128,-1,18
 421 1556 421 1556 635 1556 c 2,19,-1
 909 1556 l 1,0,-1
EndSplineSet
KernsSLIFO: 8217 141 0 0 8221 86 0 0 46 -112 0 0 45 -36 0 0 44 -112 0 0
EndChar
StartChar: g
Encoding: 103 103 103
Width: 1466
Flags: W
AnchorPoint: "above" 698 1147 basechar 0
Fore
934 190 m 1,0,1
 860 92 860 92 771 46 c 128,-1,2
 682 0 682 0 565 0 c 0,3,4
 360 0 360 0 226 161.5 c 128,-1,5
 92 323 92 323 92 573 c 0,6,7
 92 824 92 824 226 984.5 c 128,-1,8
 360 1145 360 1145 565 1145 c 0,9,10
 682 1145 682 1145 771 1099 c 128,-1,11
 860 1053 860 1053 934 954 c 1,12,-1
 934 1120 l 1,13,-1
 1294 1120 l 1,14,-1
 1294 113 l 2,15,16
 1294 -157 1294 -157 1123.5 -299.5 c 128,-1,17
 953 -442 953 -442 629 -442 c 0,18,19
 524 -442 524 -442 426 -426 c 128,-1,20
 328 -410 328 -410 229 -377 c 1,21,-1
 229 -98 l 1,22,23
 323 -152 323 -152 413 -178.5 c 128,-1,24
 503 -205 503 -205 594 -205 c 0,25,26
 770 -205 770 -205 852 -128 c 128,-1,27
 934 -51 934 -51 934 113 c 2,28,-1
 934 190 l 1,0,1
698 887 m 0,29,30
 587 887 587 887 525 805 c 128,-1,31
 463 723 463 723 463 573 c 0,32,33
 463 419 463 419 523 339.5 c 128,-1,34
 583 260 583 260 698 260 c 0,35,36
 810 260 810 260 872 342 c 128,-1,37
 934 424 934 424 934 573 c 0,38,39
 934 723 934 723 872 805 c 128,-1,40
 810 887 810 887 698 887 c 0,29,30
EndSplineSet
EndChar
StartChar: h
Encoding: 104 104 104
Width: 1458
Flags: W
AnchorPoint: "above" 356 1520 basechar 0
Fore
1298 682 m 2,0,-1
 1298 0 l 1,1,-1
 938 0 l 1,2,-1
 938 111 l 1,3,-1
 938 520 l 2,4,5
 938 667 938 667 931.5 722 c 128,-1,6
 925 777 925 777 909 803 c 0,7,8
 888 838 888 838 852 857.5 c 128,-1,9
 816 877 816 877 770 877 c 0,10,11
 658 877 658 877 594 790.5 c 128,-1,12
 530 704 530 704 530 551 c 2,13,-1
 530 0 l 1,14,-1
 172 0 l 1,15,-1
 172 1556 l 1,16,-1
 530 1556 l 1,17,-1
 530 956 l 1,18,19
 611 1054 611 1054 702 1100.5 c 128,-1,20
 793 1147 793 1147 903 1147 c 0,21,22
 1097 1147 1097 1147 1197.5 1028 c 128,-1,23
 1298 909 1298 909 1298 682 c 2,0,-1
EndSplineSet
EndChar
StartChar: i
Encoding: 105 105 105
Width: 702
Flags: W
AnchorPoint: "above" 350 1583 basechar 0
Fore
172 1120 m 1,0,-1
 530 1120 l 1,1,-1
 530 0 l 1,2,-1
 172 0 l 1,3,-1
 172 1120 l 1,0,-1
172 1556 m 1,4,-1
 530 1556 l 1,5,-1
 530 1264 l 1,6,-1
 172 1264 l 1,7,-1
 172 1556 l 1,4,-1
EndSplineSet
Substitution: 0 65534 's001' dotlessi
EndChar
StartChar: j
Encoding: 106 106 106
Width: 702
Flags: W
AnchorPoint: "above" 351 1583 basechar 0
Fore
172 1120 m 1,0,-1
 530 1120 l 1,1,-1
 530 20 l 2,2,3
 530 -205 530 -205 422 -323.5 c 128,-1,4
 314 -442 314 -442 109 -442 c 2,5,-1
 -68 -442 l 1,6,-1
 -68 -207 l 1,7,-1
 -6 -207 l 2,8,9
 96 -207 96 -207 134 -161 c 128,-1,10
 172 -115 172 -115 172 20 c 2,11,-1
 172 1120 l 1,0,-1
172 1556 m 1,12,-1
 530 1556 l 1,13,-1
 530 1264 l 1,14,-1
 172 1264 l 1,15,-1
 172 1556 l 1,12,-1
EndSplineSet
Substitution: 0 65534 's001' dotlessj
EndChar
StartChar: k
Encoding: 107 107 107
Width: 1362
Flags: W
AnchorPoint: "above" 356 1520 basechar 0
Fore
172 1556 m 1,0,-1
 530 1556 l 1,1,-1
 530 709 l 1,2,-1
 942 1120 l 1,3,-1
 1358 1120 l 1,4,-1
 811 606 l 1,5,-1
 1401 0 l 1,6,-1
 967 0 l 1,7,-1
 530 467 l 1,8,-1
 530 0 l 1,9,-1
 172 0 l 1,10,-1
 172 1556 l 1,0,-1
EndSplineSet
KernsSLIFO: 283 -55 0 0 339 -55 0 0 248 -45 0 0 245 -55 0 0 246 -55 0 0 244 -55 0 0 242 -55 0 0 243 -55 0 0 235 -55 0 0 234 -55 0 0 232 -55 0 0 233 -55 0 0 111 -55 0 0 101 -55 0 0
EndChar
StartChar: l
Encoding: 108 108 108
Width: 702
Flags: W
AnchorPoint: "above" 356 1520 basechar 0
Fore
172 1556 m 1,0,-1
 530 1556 l 1,1,-1
 530 0 l 1,2,-1
 172 0 l 1,3,-1
 172 1556 l 1,0,-1
EndSplineSet
EndChar
StartChar: m
Encoding: 109 109 109
Width: 2134
Flags: W
AnchorPoint: "above" 1071 1147 basechar 0
Fore
1210 934 m 1,0,1
 1278 1038 1278 1038 1371.5 1092.5 c 128,-1,2
 1465 1147 1465 1147 1577 1147 c 0,3,4
 1770 1147 1770 1147 1871 1028 c 128,-1,5
 1972 909 1972 909 1972 682 c 2,6,-1
 1972 0 l 1,7,-1
 1612 0 l 1,8,-1
 1612 584 l 1,9,10
 1613 597 1613 597 1613.5 611 c 128,-1,11
 1614 625 1614 625 1614 651 c 0,12,13
 1614 770 1614 770 1579 823.5 c 128,-1,14
 1544 877 1544 877 1466 877 c 0,15,16
 1364 877 1364 877 1308.5 793 c 128,-1,17
 1253 709 1253 709 1251 550 c 1,18,-1
 1251 0 l 1,19,-1
 891 0 l 1,20,-1
 891 584 l 2,21,22
 891 770 891 770 859 823.5 c 128,-1,23
 827 877 827 877 745 877 c 0,24,25
 642 877 642 877 586 792.5 c 128,-1,26
 530 708 530 708 530 551 c 2,27,-1
 530 0 l 1,28,-1
 170 0 l 1,29,-1
 170 1120 l 1,30,-1
 530 1120 l 1,31,-1
 530 956 l 1,32,33
 596 1051 596 1051 681.5 1099 c 128,-1,34
 767 1147 767 1147 870 1147 c 0,35,36
 986 1147 986 1147 1075 1091 c 128,-1,37
 1164 1035 1164 1035 1210 934 c 1,0,1
EndSplineSet
EndChar
StartChar: n
Encoding: 110 110 110
Width: 1458
Flags: W
AnchorPoint: "above" 681 1147 basechar 0
Fore
1298 682 m 2,0,-1
 1298 0 l 1,1,-1
 938 0 l 1,2,-1
 938 111 l 1,3,-1
 938 522 l 2,4,5
 938 667 938 667 931.5 722 c 128,-1,6
 925 777 925 777 909 803 c 0,7,8
 888 838 888 838 852 857.5 c 128,-1,9
 816 877 816 877 770 877 c 0,10,11
 658 877 658 877 594 790.5 c 128,-1,12
 530 704 530 704 530 551 c 2,13,-1
 530 0 l 1,14,-1
 172 0 l 1,15,-1
 172 1120 l 1,16,-1
 530 1120 l 1,17,-1
 530 956 l 1,18,19
 611 1054 611 1054 702 1100.5 c 128,-1,20
 793 1147 793 1147 903 1147 c 0,21,22
 1097 1147 1097 1147 1197.5 1028 c 128,-1,23
 1298 909 1298 909 1298 682 c 2,0,-1
EndSplineSet
EndChar
StartChar: o
Encoding: 111 111 111
Width: 1407
Flags: W
AnchorPoint: "above" 705 1147 basechar 0
Fore
705 891 m 0,0,1
 586 891 586 891 523.5 805.5 c 128,-1,2
 461 720 461 720 461 559 c 0,3,4
 461 398 461 398 523.5 312.5 c 128,-1,5
 586 227 586 227 705 227 c 0,6,7
 822 227 822 227 884 312.5 c 128,-1,8
 946 398 946 398 946 559 c 0,9,10
 946 720 946 720 884 805.5 c 128,-1,11
 822 891 822 891 705 891 c 0,0,1
705 1147 m 0,12,13
 994 1147 994 1147 1156.5 991 c 128,-1,14
 1319 835 1319 835 1319 559 c 0,15,16
 1319 283 1319 283 1156.5 127 c 128,-1,17
 994 -29 994 -29 705 -29 c 0,18,19
 415 -29 415 -29 251.5 127 c 128,-1,20
 88 283 88 283 88 559 c 0,21,22
 88 835 88 835 251.5 991 c 128,-1,23
 415 1147 415 1147 705 1147 c 0,12,13
EndSplineSet
EndChar
StartChar: p
Encoding: 112 112 112
Width: 1466
Flags: W
AnchorPoint: "above" 729 1147 basechar 0
Fore
530 162 m 1,0,-1
 530 -426 l 1,1,-1
 172 -426 l 1,2,-1
 172 1120 l 1,3,-1
 530 1120 l 1,4,-1
 530 956 l 1,5,6
 604 1054 604 1054 694 1100.5 c 128,-1,7
 784 1147 784 1147 901 1147 c 0,8,9
 1108 1147 1108 1147 1241 982.5 c 128,-1,10
 1374 818 1374 818 1374 559 c 0,11,12
 1374 300 1374 300 1241 135.5 c 128,-1,13
 1108 -29 1108 -29 901 -29 c 0,14,15
 784 -29 784 -29 694 17.5 c 128,-1,16
 604 64 604 64 530 162 c 1,0,-1
768 887 m 0,17,18
 653 887 653 887 591.5 802.5 c 128,-1,19
 530 718 530 718 530 559 c 0,20,21
 530 400 530 400 591.5 315.5 c 128,-1,22
 653 231 653 231 768 231 c 0,23,24
 883 231 883 231 943.5 315 c 128,-1,25
 1004 399 1004 399 1004 559 c 0,26,27
 1004 719 1004 719 943.5 803 c 128,-1,28
 883 887 883 887 768 887 c 0,17,18
EndSplineSet
EndChar
StartChar: q
Encoding: 113 113 113
Width: 1466
Flags: W
AnchorPoint: "above" 729 1147 basechar 0
Fore
698 887 m 0,0,1
 584 887 584 887 523.5 803 c 128,-1,2
 463 719 463 719 463 559 c 0,3,4
 463 399 463 399 523.5 315 c 128,-1,5
 584 231 584 231 698 231 c 0,6,7
 813 231 813 231 873.5 315 c 128,-1,8
 934 399 934 399 934 559 c 0,9,10
 934 719 934 719 873.5 803 c 128,-1,11
 813 887 813 887 698 887 c 0,0,1
934 162 m 1,12,13
 860 63 860 63 771 17 c 128,-1,14
 682 -29 682 -29 565 -29 c 0,15,16
 358 -29 358 -29 225 135.5 c 128,-1,17
 92 300 92 300 92 559 c 0,18,19
 92 818 92 818 225 981.5 c 128,-1,20
 358 1145 358 1145 565 1145 c 0,21,22
 682 1145 682 1145 771 1099 c 128,-1,23
 860 1053 860 1053 934 954 c 1,24,-1
 934 1120 l 1,25,-1
 1294 1120 l 1,26,-1
 1294 -426 l 1,27,-1
 934 -426 l 1,28,-1
 934 162 l 1,12,13
EndSplineSet
EndChar
StartChar: r
Encoding: 114 114 114
Width: 1010
Flags: W
AnchorPoint: "above" 597 1147 basechar 0
Fore
1004 815 m 1,0,1
 957 837 957 837 910.5 847.5 c 128,-1,2
 864 858 864 858 817 858 c 0,3,4
 679 858 679 858 604.5 769.5 c 128,-1,5
 530 681 530 681 530 516 c 2,6,-1
 530 0 l 1,7,-1
 172 0 l 1,8,-1
 172 1120 l 1,9,-1
 530 1120 l 1,10,-1
 530 936 l 1,11,12
 599 1046 599 1046 688.5 1096.5 c 128,-1,13
 778 1147 778 1147 903 1147 c 0,14,15
 921 1147 921 1147 942 1145.5 c 128,-1,16
 963 1144 963 1144 1003 1139 c 1,17,-1
 1004 815 l 1,0,1
EndSplineSet
KernsSLIFO: 8217 86 0 0 8221 38 0 0 46 -292 0 0 44 -301 0 0
EndChar
StartChar: s
Encoding: 115 115 115
Width: 1219
Flags: W
AnchorPoint: "above" 602 1147 basechar 0
Fore
1047 1085 m 1,0,-1
 1047 813 l 1,1,2
 932 861 932 861 825 885 c 128,-1,3
 718 909 718 909 623 909 c 0,4,5
 521 909 521 909 471.5 883.5 c 128,-1,6
 422 858 422 858 422 805 c 0,7,8
 422 762 422 762 459.5 739 c 128,-1,9
 497 716 497 716 594 705 c 1,10,-1
 657 696 l 2,11,12
 932 661 932 661 1027 581 c 128,-1,13
 1122 501 1122 501 1122 330 c 0,14,15
 1122 151 1122 151 990 61 c 128,-1,16
 858 -29 858 -29 596 -29 c 0,17,18
 485 -29 485 -29 366.5 -11.5 c 128,-1,19
 248 6 248 6 123 41 c 1,20,-1
 123 313 l 1,21,22
 230 261 230 261 342.5 235 c 128,-1,23
 455 209 455 209 571 209 c 0,24,25
 676 209 676 209 729 238 c 128,-1,26
 782 267 782 267 782 324 c 0,27,28
 782 372 782 372 745.5 395.5 c 128,-1,29
 709 419 709 419 600 432 c 2,30,-1
 537 440 l 2,31,32
 298 470 298 470 202 551 c 128,-1,33
 106 632 106 632 106 797 c 0,34,35
 106 975 106 975 228 1061 c 128,-1,36
 350 1147 350 1147 602 1147 c 0,37,38
 701 1147 701 1147 810 1132 c 128,-1,39
 919 1117 919 1117 1047 1085 c 1,0,-1
EndSplineSet
EndChar
StartChar: t
Encoding: 116 116 116
Width: 979
Flags: W
AnchorPoint: "above" 394 1520 basechar 0
Fore
563 1438 m 1,0,-1
 563 1120 l 1,1,-1
 932 1120 l 1,2,-1
 932 864 l 1,3,-1
 563 864 l 1,4,-1
 563 389 l 2,5,6
 563 311 563 311 594 283.5 c 128,-1,7
 625 256 625 256 717 256 c 2,8,-1
 901 256 l 1,9,-1
 901 0 l 1,10,-1
 594 0 l 2,11,12
 382 0 382 0 293.5 88.5 c 128,-1,13
 205 177 205 177 205 389 c 2,14,-1
 205 864 l 1,15,-1
 27 864 l 1,16,-1
 27 1120 l 1,17,-1
 205 1120 l 1,18,-1
 205 1438 l 1,19,-1
 563 1438 l 1,0,-1
EndSplineSet
EndChar
StartChar: u
Encoding: 117 117 117
Width: 1458
Flags: W
AnchorPoint: "above" 724 1147 basechar 0
Fore
160 436 m 2,0,-1
 160 1120 l 1,1,-1
 520 1120 l 1,2,-1
 520 1008 l 2,3,4
 520 917 520 917 519 779.5 c 128,-1,5
 518 642 518 642 518 596 c 0,6,7
 518 461 518 461 525 401.5 c 128,-1,8
 532 342 532 342 549 315 c 0,9,10
 571 280 571 280 606.5 261 c 128,-1,11
 642 242 642 242 688 242 c 0,12,13
 800 242 800 242 864 328 c 128,-1,14
 928 414 928 414 928 567 c 2,15,-1
 928 1120 l 1,16,-1
 1286 1120 l 1,17,-1
 1286 0 l 1,18,-1
 928 0 l 1,19,-1
 928 162 l 1,20,21
 847 64 847 64 756.5 17.5 c 128,-1,22
 666 -29 666 -29 557 -29 c 0,23,24
 363 -29 363 -29 261.5 90 c 128,-1,25
 160 209 160 209 160 436 c 2,0,-1
EndSplineSet
EndChar
StartChar: v
Encoding: 118 118 118
Width: 1335
Flags: W
AnchorPoint: "above" 668 1147 basechar 0
Fore
31 1120 m 1,0,-1
 389 1120 l 1,1,-1
 668 346 l 1,2,-1
 946 1120 l 1,3,-1
 1305 1120 l 1,4,-1
 864 0 l 1,5,-1
 471 0 l 1,6,-1
 31 1120 l 1,0,-1
EndSplineSet
KernsSLIFO: 46 -167 0 0 44 -167 0 0
EndChar
StartChar: w
Encoding: 119 119 119
Width: 1892
Flags: W
AnchorPoint: "above" 946 1147 basechar 0
Fore
72 1120 m 1,0,-1
 420 1120 l 1,1,-1
 608 348 l 1,2,-1
 797 1120 l 1,3,-1
 1096 1120 l 1,4,-1
 1284 356 l 1,5,-1
 1473 1120 l 1,6,-1
 1821 1120 l 1,7,-1
 1526 0 l 1,8,-1
 1135 0 l 1,9,-1
 946 770 l 1,10,-1
 758 0 l 1,11,-1
 367 0 l 1,12,-1
 72 1120 l 1,0,-1
EndSplineSet
KernsSLIFO: 46 -131 0 0 44 -131 0 0
EndChar
StartChar: x
Encoding: 120 120 120
Width: 1321
Flags: W
AnchorPoint: "above" 659 1147 basechar 0
Fore
455 573 m 1,0,-1
 51 1120 l 1,1,-1
 430 1120 l 1,2,-1
 659 788 l 1,3,-1
 891 1120 l 1,4,-1
 1270 1120 l 1,5,-1
 866 575 l 1,6,-1
 1290 0 l 1,7,-1
 911 0 l 1,8,-1
 659 354 l 1,9,-1
 410 0 l 1,10,-1
 31 0 l 1,11,-1
 455 573 l 1,0,-1
EndSplineSet
EndChar
StartChar: y
Encoding: 121 121 121
Width: 1335
Flags: W
AnchorPoint: "above" 661 1147 basechar 0
Fore
25 1120 m 1,0,-1
 383 1120 l 1,1,-1
 684 360 l 1,2,-1
 940 1120 l 1,3,-1
 1298 1120 l 1,4,-1
 827 -106 l 1,5,6
 756 -293 756 -293 661.5 -367.5 c 128,-1,7
 567 -442 567 -442 412 -442 c 2,8,-1
 205 -442 l 1,9,-1
 205 -207 l 1,10,-1
 317 -207 l 2,11,12
 408 -207 408 -207 449.5 -178 c 128,-1,13
 491 -149 491 -149 514 -74 c 1,14,-1
 524 -43 l 1,15,-1
 25 1120 l 1,0,-1
EndSplineSet
KernsSLIFO: 46 -188 0 0 44 -159 0 0
EndChar
StartChar: z
Encoding: 122 122 122
Width: 1192
Flags: W
AnchorPoint: "above" 596 1147 basechar 0
Fore
117 1120 m 1,0,-1
 1094 1120 l 1,1,-1
 1094 870 l 1,2,-1
 504 256 l 1,3,-1
 1094 256 l 1,4,-1
 1094 0 l 1,5,-1
 92 0 l 1,6,-1
 92 250 l 1,7,-1
 682 864 l 1,8,-1
 117 864 l 1,9,-1
 117 1120 l 1,0,-1
EndSplineSet
EndChar
StartChar: braceleft
Encoding: 123 123 123
Width: 1458
Flags: W
Fore
1202 -109 m 1,0,-1
 1202 -334 l 1,1,-1
 985 -334 l 2,2,3
 767 -334 767 -334 667 -246 c 128,-1,4
 567 -158 567 -158 567 35 c 2,5,-1
 567 227 l 2,6,7
 567 377 567 377 513 435.5 c 128,-1,8
 459 494 459 494 317 494 c 2,9,-1
 256 494 l 1,10,-1
 256 717 l 1,11,-1
 317 717 l 2,12,13
 459 717 459 717 513 775 c 128,-1,14
 567 833 567 833 567 983 c 2,15,-1
 567 1188 l 2,16,17
 567 1381 567 1381 667 1468.5 c 128,-1,18
 767 1556 767 1556 985 1556 c 2,19,-1
 1202 1556 l 1,20,-1
 1202 1331 l 1,21,-1
 1133 1331 l 2,22,23
 992 1331 992 1331 949.5 1287.5 c 128,-1,24
 907 1244 907 1244 907 1102 c 2,25,-1
 907 936 l 2,26,27
 907 779 907 779 862 708 c 128,-1,28
 817 637 817 637 707 612 c 1,29,30
 818 585 818 585 862.5 514 c 128,-1,31
 907 443 907 443 907 287 c 2,32,-1
 907 121 l 2,33,34
 907 -22 907 -22 949.5 -65.5 c 128,-1,35
 992 -109 992 -109 1133 -109 c 2,36,-1
 1202 -109 l 1,0,-1
EndSplineSet
EndChar
StartChar: bar
Encoding: 124 124 124
Width: 748
Flags: W
Fore
487 1565 m 1,0,-1
 487 -483 l 1,1,-1
 260 -483 l 1,2,-1
 260 1565 l 1,3,-1
 487 1565 l 1,0,-1
EndSplineSet
EndChar
StartChar: braceright
Encoding: 125 125 125
Width: 1458
Flags: W
Fore
256 -109 m 1,0,-1
 326 -109 l 2,1,2
 466 -109 466 -109 508.5 -65.5 c 128,-1,3
 551 -22 551 -22 551 121 c 2,4,-1
 551 287 l 2,5,6
 551 443 551 443 596 514 c 128,-1,7
 641 585 641 585 752 612 c 1,8,9
 641 637 641 637 596 708 c 128,-1,10
 551 779 551 779 551 936 c 2,11,-1
 551 1102 l 2,12,13
 551 1244 551 1244 508.5 1287.5 c 128,-1,14
 466 1331 466 1331 326 1331 c 2,15,-1
 256 1331 l 1,16,-1
 256 1556 l 1,17,-1
 473 1556 l 2,18,19
 691 1556 691 1556 791 1468.5 c 128,-1,20
 891 1381 891 1381 891 1188 c 2,21,-1
 891 983 l 2,22,23
 891 833 891 833 945 775 c 128,-1,24
 999 717 999 717 1141 717 c 2,25,-1
 1202 717 l 1,26,-1
 1202 494 l 1,27,-1
 1141 494 l 2,28,29
 999 494 999 494 945 435.5 c 128,-1,30
 891 377 891 377 891 227 c 2,31,-1
 891 35 l 2,32,33
 891 -158 891 -158 791 -246 c 128,-1,34
 691 -334 691 -334 473 -334 c 2,35,-1
 256 -334 l 1,36,-1
 256 -109 l 1,0,-1
EndSplineSet
EndChar
StartChar: asciitilde
Encoding: 126 126 126
Width: 1716
Flags: W
Fore
1499 850 m 1,0,-1
 1499 606 l 1,1,2
 1393 526 1393 526 1303.5 491.5 c 128,-1,3
 1214 457 1214 457 1118 457 c 0,4,5
 1011 457 1011 457 868 515 c 0,6,7
 854 521 854 521 846 524 c 0,8,9
 839 527 839 527 824 533 c 0,10,11
 669 594 669 594 575 594 c 0,12,13
 487 594 487 594 401 555.5 c 128,-1,14
 315 517 315 517 217 434 c 1,15,-1
 217 678 l 1,16,17
 324 758 324 758 413 792.5 c 128,-1,18
 502 827 502 827 598 827 c 0,19,20
 705 827 705 827 848 769 c 0,21,22
 863 763 863 763 870 760 c 0,23,24
 877 757 877 757 892 751 c 0,25,26
 1047 690 1047 690 1141 690 c 0,27,28
 1227 690 1227 690 1311.5 727.5 c 128,-1,29
 1396 765 1396 765 1499 850 c 1,0,-1
EndSplineSet
EndChar
StartChar: exclamdown
Encoding: 161 161 161
Width: 934
Flags: W
Fore
287 0 m 1,0,-1
 287 573 l 1,1,-1
 338 991 l 1,2,-1
 596 991 l 1,3,-1
 647 573 l 1,4,-1
 647 0 l 1,5,-1
 287 0 l 1,0,-1
287 1137 m 1,6,-1
 287 1493 l 1,7,-1
 647 1493 l 1,8,-1
 647 1137 l 1,9,-1
 287 1137 l 1,6,-1
EndSplineSet
EndChar
StartChar: cent
Encoding: 162 162 162
Width: 1425
Flags: W
Fore
702 858 m 1,0,1
 624 814 624 814 585.5 740.5 c 128,-1,2
 547 667 547 667 547 559 c 0,3,4
 547 450 547 450 585.5 376 c 128,-1,5
 624 302 624 302 702 260 c 1,6,-1
 702 858 l 1,0,1
1161 1085 m 1,7,-1
 1161 793 l 1,8,9
 1087 841 1087 841 1015.5 866 c 128,-1,10
 944 891 944 891 879 891 c 2,11,-1
 864 891 l 1,12,-1
 864 228 l 1,13,14
 953 229 953 229 1028.5 254 c 128,-1,15
 1104 279 1104 279 1161 326 c 1,16,-1
 1161 33 l 1,17,18
 1078 3 1078 3 1005 -13 c 128,-1,19
 932 -29 932 -29 874 -29 c 2,20,-1
 864 -29 l 1,21,-1
 864 -313 l 1,22,-1
 702 -313 l 1,23,-1
 702 -25 l 1,24,25
 440 15 440 15 307 166 c 128,-1,26
 174 317 174 317 174 575 c 0,27,28
 174 819 174 819 309 964.5 c 128,-1,29
 444 1110 444 1110 702 1145 c 1,30,-1
 702 1432 l 1,31,-1
 864 1432 l 1,32,-1
 865 1145 l 1,33,34
 936 1142 936 1142 1009.5 1127.5 c 128,-1,35
 1083 1113 1083 1113 1161 1085 c 1,7,-1
EndSplineSet
EndChar
StartChar: sterling
Encoding: 163 163 163
Width: 1425
Flags: W
Fore
1243 1466 m 1,0,-1
 1243 1180 l 1,1,2
 1173 1219 1173 1219 1099 1238 c 128,-1,3
 1025 1257 1025 1257 948 1257 c 0,4,5
 830 1257 830 1257 773.5 1194.5 c 128,-1,6
 717 1132 717 1132 717 1001 c 2,7,-1
 717 831 l 1,8,-1
 1090 831 l 1,9,-1
 1090 592 l 1,10,-1
 717 592 l 1,11,-1
 717 266 l 1,12,-1
 1255 266 l 1,13,-1
 1255 0 l 1,14,-1
 125 0 l 1,15,-1
 125 266 l 1,16,-1
 352 266 l 1,17,-1
 352 592 l 1,18,-1
 158 592 l 1,19,-1
 158 831 l 1,20,-1
 352 831 l 1,21,-1
 352 1001 l 2,22,23
 352 1272 352 1272 479 1396 c 128,-1,24
 606 1520 606 1520 881 1520 c 0,25,26
 973 1520 973 1520 1063.5 1506.5 c 128,-1,27
 1154 1493 1154 1493 1243 1466 c 1,0,-1
EndSplineSet
EndChar
StartChar: currency
Encoding: 164 164 164
Width: 1303
Flags: W
Fore
434 268 m 1,0,-1
 227 61 l 1,1,-1
 74 215 l 1,2,-1
 281 422 l 1,3,4
 253 471 253 471 239 524.5 c 128,-1,5
 225 578 225 578 225 641 c 0,6,7
 225 704 225 704 240 758 c 128,-1,8
 255 812 255 812 285 858 c 1,9,-1
 76 1063 l 1,10,-1
 229 1217 l 1,11,-1
 436 1010 l 1,12,13
 484 1040 484 1040 538 1054.5 c 128,-1,14
 592 1069 592 1069 653 1069 c 0,15,16
 707 1069 707 1069 761 1055.5 c 128,-1,17
 815 1042 815 1042 872 1014 c 1,18,-1
 1079 1221 l 1,19,-1
 1231 1067 l 1,20,-1
 1024 860 l 1,21,22
 1053 805 1053 805 1067 750 c 128,-1,23
 1081 695 1081 695 1081 641 c 0,24,25
 1081 578 1081 578 1066.5 525.5 c 128,-1,26
 1052 473 1052 473 1022 426 c 1,27,-1
 1229 219 l 1,28,-1
 1075 66 l 1,29,-1
 868 272 l 1,30,31
 822 242 822 242 769 227.5 c 128,-1,32
 716 213 716 213 653 213 c 0,33,34
 595 213 595 213 541 226.5 c 128,-1,35
 487 240 487 240 434 268 c 1,0,-1
653 422 m 0,36,37
 744 422 744 422 808 485.5 c 128,-1,38
 872 549 872 549 872 641 c 0,39,40
 872 733 872 733 808.5 796.5 c 128,-1,41
 745 860 745 860 653 860 c 0,42,43
 562 860 562 860 498 796.5 c 128,-1,44
 434 733 434 733 434 641 c 0,45,46
 434 548 434 548 497 485 c 128,-1,47
 560 422 560 422 653 422 c 0,36,37
EndSplineSet
EndChar
StartChar: yen
Encoding: 165 165 165
Width: 1425
Flags: W
Fore
1358 416 m 1,0,-1
 903 416 l 1,1,-1
 903 0 l 1,2,-1
 522 0 l 1,3,-1
 522 416 l 1,4,-1
 68 416 l 1,5,-1
 68 610 l 1,6,-1
 522 610 l 1,7,-1
 522 676 l 1,8,-1
 473 762 l 1,9,-1
 68 762 l 1,10,-1
 68 954 l 1,11,-1
 360 954 l 1,12,-1
 25 1493 l 1,13,-1
 424 1493 l 1,14,-1
 713 1032 l 1,15,-1
 1001 1493 l 1,16,-1
 1401 1493 l 1,17,-1
 1065 954 l 1,18,-1
 1358 954 l 1,19,-1
 1358 762 l 1,20,-1
 952 762 l 1,21,-1
 903 676 l 1,22,-1
 903 610 l 1,23,-1
 1358 610 l 1,24,-1
 1358 416 l 1,0,-1
EndSplineSet
EndChar
StartChar: brokenbar
Encoding: 166 166 166
Width: 748
Flags: W
Fore
487 1432 m 1,0,-1
 487 674 l 1,1,-1
 260 674 l 1,2,-1
 260 1432 l 1,3,-1
 487 1432 l 1,0,-1
487 408 m 1,4,-1
 487 -350 l 1,5,-1
 260 -350 l 1,6,-1
 260 408 l 1,7,-1
 487 408 l 1,4,-1
EndSplineSet
EndChar
StartChar: section
Encoding: 167 167 167
Width: 1024
Flags: W
Fore
885 1462 m 1,0,-1
 885 1235 l 1,1,2
 786 1274 786 1274 707 1293.5 c 128,-1,3
 628 1313 628 1313 571 1313 c 0,4,5
 496 1313 496 1313 458 1288.5 c 128,-1,6
 420 1264 420 1264 420 1217 c 0,7,8
 420 1150 420 1150 608 1071 c 0,9,10
 634 1060 634 1060 647 1055 c 0,11,12
 857 966 857 966 936.5 879.5 c 128,-1,13
 1016 793 1016 793 1016 668 c 0,14,15
 1016 551 1016 551 959.5 471.5 c 128,-1,16
 903 392 903 392 786 344 c 1,17,18
 863 303 863 303 900.5 246.5 c 128,-1,19
 938 190 938 190 938 117 c 0,20,21
 938 -28 938 -28 817 -111.5 c 128,-1,22
 696 -195 696 -195 483 -195 c 0,23,24
 398 -195 398 -195 307.5 -180.5 c 128,-1,25
 217 -166 217 -166 115 -137 c 1,26,-1
 115 100 l 1,27,28
 230 59 230 59 321 37.5 c 128,-1,29
 412 16 412 16 469 16 c 0,30,31
 534 16 534 16 573 41 c 128,-1,32
 612 66 612 66 612 106 c 0,33,34
 612 176 612 176 432 250 c 0,35,36
 396 264 396 264 377 272 c 0,37,38
 174 359 174 359 94 448.5 c 128,-1,39
 14 538 14 538 14 668 c 0,40,41
 14 772 14 772 69.5 849 c 128,-1,42
 125 926 125 926 238 977 c 1,43,44
 163 1028 163 1028 130.5 1083.5 c 128,-1,45
 98 1139 98 1139 98 1214 c 0,46,47
 98 1358 98 1358 212.5 1439 c 128,-1,48
 327 1520 327 1520 528 1520 c 0,49,50
 612 1520 612 1520 702 1505.5 c 128,-1,51
 792 1491 792 1491 885 1462 c 1,0,-1
434 856 m 1,52,53
 366 828 366 828 332.5 790 c 128,-1,54
 299 752 299 752 299 702 c 0,55,56
 299 635 299 635 360.5 586 c 128,-1,57
 422 537 422 537 604 471 c 1,58,59
 669 494 669 494 704 533.5 c 128,-1,60
 739 573 739 573 739 625 c 0,61,62
 739 692 739 692 670 745 c 128,-1,63
 601 798 601 798 434 856 c 1,52,53
EndSplineSet
EndChar
StartChar: dieresis
Encoding: 168 168 168
Width: 1024
Flags: W
Fore
197 1585 m 1,0,-1
 432 1585 l 1,1,-1
 432 1339 l 1,2,-1
 197 1339 l 1,3,-1
 197 1585 l 1,0,-1
592 1585 m 1,4,-1
 827 1585 l 1,5,-1
 827 1339 l 1,6,-1
 592 1339 l 1,7,-1
 592 1585 l 1,4,-1
EndSplineSet
Ligature: 0 1 'liga' space uni0308
EndChar
StartChar: copyright
Encoding: 169 169 169
Width: 2048
Flags: W
Fore
1323 1126 m 1,0,-1
 1323 911 l 1,1,2
 1266 948 1266 948 1210.5 965.5 c 128,-1,3
 1155 983 1155 983 1098 983 c 0,4,5
 985 983 985 983 921.5 919 c 128,-1,6
 858 855 858 855 858 741 c 0,7,8
 858 626 858 626 921 563 c 128,-1,9
 984 500 984 500 1098 500 c 0,10,11
 1162 500 1162 500 1219.5 518 c 128,-1,12
 1277 536 1277 536 1323 571 c 1,13,-1
 1323 358 l 1,14,15
 1258 336 1258 336 1192.5 324.5 c 128,-1,16
 1127 313 1127 313 1065 313 c 0,17,18
 854 313 854 313 727 430 c 128,-1,19
 600 547 600 547 600 741 c 0,20,21
 600 936 600 936 727 1052.5 c 128,-1,22
 854 1169 854 1169 1065 1169 c 0,23,24
 1134 1169 1134 1169 1198 1158.5 c 128,-1,25
 1262 1148 1262 1148 1323 1126 c 1,0,-1
1024 1331 m 0,26,27
 903 1331 903 1331 799 1287.5 c 128,-1,28
 695 1244 695 1244 608 1157 c 0,29,30
 521 1070 521 1070 477.5 966.5 c 128,-1,31
 434 863 434 863 434 741 c 0,32,33
 434 620 434 620 477.5 516.5 c 128,-1,34
 521 413 521 413 608 326 c 0,35,36
 694 240 694 240 798.5 197 c 128,-1,37
 903 154 903 154 1024 154 c 0,38,39
 1147 154 1147 154 1250 196.5 c 128,-1,40
 1353 239 1353 239 1440 326 c 0,41,42
 1527 413 1527 413 1570.5 516.5 c 128,-1,43
 1614 620 1614 620 1614 741 c 0,44,45
 1614 863 1614 863 1570.5 966.5 c 128,-1,46
 1527 1070 1527 1070 1440 1157 c 0,47,48
 1352 1245 1352 1245 1248.5 1288 c 128,-1,49
 1145 1331 1145 1331 1024 1331 c 0,26,27
1024 1485 m 0,50,51
 1176 1485 1176 1485 1307.5 1430 c 128,-1,52
 1439 1375 1439 1375 1548 1266 c 0,53,54
 1657 1157 1657 1157 1711 1026 c 128,-1,55
 1765 895 1765 895 1765 741 c 0,56,57
 1765 589 1765 589 1711 458.5 c 128,-1,58
 1657 328 1657 328 1548 219 c 0,59,60
 1439 110 1439 110 1307.5 55 c 128,-1,61
 1176 0 1176 0 1024 0 c 0,62,63
 872 0 872 0 740.5 55 c 128,-1,64
 609 110 609 110 500 219 c 0,65,66
 391 328 391 328 337 458.5 c 128,-1,67
 283 589 283 589 283 741 c 0,68,69
 283 895 283 895 337 1026 c 128,-1,70
 391 1157 391 1157 500 1266 c 0,71,72
 609 1375 609 1375 740.5 1430 c 128,-1,73
 872 1485 872 1485 1024 1485 c 0,50,51
EndSplineSet
EndChar
StartChar: ordfeminine
Encoding: 170 170 170
Width: 1155
Flags: W
Fore
176 573 m 1,0,-1
 989 573 l 1,1,-1
 989 373 l 1,2,-1
 176 373 l 1,3,-1
 176 573 l 1,0,-1
643 1081 m 2,4,5
 510 1081 510 1081 458 1055 c 128,-1,6
 406 1029 406 1029 406 967 c 0,7,8
 406 916 406 916 439 887 c 128,-1,9
 472 858 472 858 530 858 c 0,10,11
 619 858 619 858 676 915 c 128,-1,12
 733 972 733 972 733 1059 c 2,13,-1
 733 1081 l 1,14,-1
 643 1081 l 2,4,5
1001 1165 m 2,15,-1
 1001 717 l 1,16,-1
 756 717 l 1,17,-1
 756 844 l 1,18,19
 701 768 701 768 631 732 c 128,-1,20
 561 696 561 696 467 696 c 0,21,22
 322 696 322 696 240 763 c 128,-1,23
 158 830 158 830 158 946 c 0,24,25
 158 1087 158 1087 263 1153 c 128,-1,26
 368 1219 368 1219 594 1219 c 2,27,-1
 731 1219 l 1,28,-1
 731 1239 l 2,29,30
 731 1295 731 1295 686.5 1324.5 c 128,-1,31
 642 1354 642 1354 557 1354 c 0,32,33
 470 1354 470 1354 387 1336.5 c 128,-1,34
 304 1319 304 1319 225 1284 c 1,35,-1
 225 1464 l 1,36,37
 317 1492 317 1492 401.5 1506 c 128,-1,38
 486 1520 486 1520 561 1520 c 0,39,40
 785 1520 785 1520 893 1432.5 c 128,-1,41
 1001 1345 1001 1345 1001 1165 c 2,15,-1
EndSplineSet
EndChar
StartChar: guillemotleft
Encoding: 171 171 171
Width: 1323
Flags: W
Fore
651 1063 m 1,0,-1
 651 821 l 1,1,-1
 358 600 l 1,2,-1
 651 379 l 1,3,-1
 651 137 l 1,4,-1
 158 506 l 1,5,-1
 158 692 l 1,6,-1
 651 1063 l 1,0,-1
1130 1063 m 1,7,-1
 1130 821 l 1,8,-1
 838 600 l 1,9,-1
 1130 379 l 1,10,-1
 1130 137 l 1,11,-1
 637 506 l 1,12,-1
 637 692 l 1,13,-1
 1130 1063 l 1,7,-1
EndSplineSet
EndChar
StartChar: logicalnot
Encoding: 172 172 172
Width: 1716
Flags: W
Fore
217 909 m 1,0,-1
 1499 909 l 1,1,-1
 1499 287 l 1,2,-1
 1264 287 l 1,3,-1
 1264 672 l 1,4,-1
 217 672 l 1,5,-1
 217 909 l 1,0,-1
EndSplineSet
EndChar
StartChar: sfthyphen
Encoding: 173 173 173
Width: 850
Flags: W
Fore
111 735 m 1,0,-1
 739 735 l 1,1,-1
 739 444 l 1,2,-1
 111 444 l 1,3,-1
 111 735 l 1,0,-1
EndSplineSet
EndChar
StartChar: registered
Encoding: 174 174 174
Width: 2048
Flags: W
Fore
1024 1331 m 0,0,1
 903 1331 903 1331 799 1287.5 c 128,-1,2
 695 1244 695 1244 608 1157 c 0,3,4
 521 1070 521 1070 477.5 966.5 c 128,-1,5
 434 863 434 863 434 741 c 0,6,7
 434 620 434 620 477.5 516.5 c 128,-1,8
 521 413 521 413 608 326 c 0,9,10
 694 240 694 240 798.5 197 c 128,-1,11
 903 154 903 154 1024 154 c 0,12,13
 1147 154 1147 154 1250 196.5 c 128,-1,14
 1353 239 1353 239 1440 326 c 0,15,16
 1527 413 1527 413 1570.5 516.5 c 128,-1,17
 1614 620 1614 620 1614 741 c 0,18,19
 1614 863 1614 863 1570.5 966.5 c 128,-1,20
 1527 1070 1527 1070 1440 1157 c 0,21,22
 1352 1245 1352 1245 1248.5 1288 c 128,-1,23
 1145 1331 1145 1331 1024 1331 c 0,0,1
967 1036 m 2,24,-1
 932 1036 l 1,25,-1
 932 829 l 1,26,-1
 967 829 l 2,27,28
 1045 829 1045 829 1084.5 855.5 c 128,-1,29
 1124 882 1124 882 1124 934 c 0,30,31
 1124 986 1124 986 1085.5 1011 c 128,-1,32
 1047 1036 1047 1036 967 1036 c 2,24,-1
1004 1174 m 2,33,34
 1180 1174 1180 1174 1267 1114.5 c 128,-1,35
 1354 1055 1354 1055 1354 934 c 0,36,37
 1354 848 1354 848 1301.5 792 c 128,-1,38
 1249 736 1249 736 1153 719 c 1,39,40
 1194 697 1194 697 1229.5 657 c 128,-1,41
 1265 617 1265 617 1294 559 c 2,42,-1
 1405 338 l 1,43,-1
 1176 338 l 1,44,-1
 1069 551 l 1,45,46
 1031 629 1031 629 1002 661.5 c 128,-1,47
 973 694 973 694 944 694 c 2,48,-1
 932 694 l 1,49,-1
 932 338 l 1,50,-1
 719 338 l 1,51,-1
 719 1174 l 1,52,-1
 1004 1174 l 2,33,34
1024 1485 m 0,53,54
 1176 1485 1176 1485 1307.5 1430 c 128,-1,55
 1439 1375 1439 1375 1548 1266 c 0,56,57
 1657 1157 1657 1157 1711 1026 c 128,-1,58
 1765 895 1765 895 1765 741 c 0,59,60
 1765 589 1765 589 1711 458.5 c 128,-1,61
 1657 328 1657 328 1548 219 c 0,62,63
 1439 110 1439 110 1307.5 55 c 128,-1,64
 1176 0 1176 0 1024 0 c 0,65,66
 872 0 872 0 740.5 55 c 128,-1,67
 609 110 609 110 500 219 c 0,68,69
 391 328 391 328 337 458.5 c 128,-1,70
 283 589 283 589 283 741 c 0,71,72
 283 895 283 895 337 1026 c 128,-1,73
 391 1157 391 1157 500 1266 c 0,74,75
 609 1375 609 1375 740.5 1430 c 128,-1,76
 872 1485 872 1485 1024 1485 c 0,53,54
EndSplineSet
EndChar
StartChar: macron
Encoding: 175 175 175
Width: 1024
Flags: W
Fore
197 1556 m 1,0,-1
 827 1556 l 1,1,-1
 827 1368 l 1,2,-1
 197 1368 l 1,3,-1
 197 1556 l 1,0,-1
EndSplineSet
Ligature: 0 1 'liga' space uni0304
EndChar
StartChar: degree
Encoding: 176 176 176
Width: 1024
Flags: W
Fore
512 1372 m 0,0,1
 440 1372 440 1372 390 1322 c 128,-1,2
 340 1272 340 1272 340 1200 c 0,3,4
 340 1128 340 1128 389.5 1079 c 128,-1,5
 439 1030 439 1030 512 1030 c 0,6,7
 584 1030 584 1030 634 1079.5 c 128,-1,8
 684 1129 684 1129 684 1200 c 0,9,10
 684 1272 684 1272 633.5 1322 c 128,-1,11
 583 1372 583 1372 512 1372 c 0,0,1
512 1534 m 0,12,13
 578 1534 578 1534 639 1508.5 c 128,-1,14
 700 1483 700 1483 748 1436 c 1,15,16
 795 1388 795 1388 819.5 1328 c 128,-1,17
 844 1268 844 1268 844 1200 c 0,18,19
 844 1133 844 1133 819.5 1072.5 c 128,-1,20
 795 1012 795 1012 750 967 c 0,21,22
 702 919 702 919 640 893.5 c 128,-1,23
 578 868 578 868 510 868 c 0,24,25
 369 868 369 868 273.5 963.5 c 128,-1,26
 178 1059 178 1059 178 1200 c 0,27,28
 178 1341 178 1341 274.5 1437.5 c 128,-1,29
 371 1534 371 1534 512 1534 c 0,12,13
EndSplineSet
EndChar
StartChar: plusminus
Encoding: 177 177 177
Width: 1716
Flags: W
Fore
977 1284 m 1,0,-1
 977 930 l 1,1,-1
 1499 930 l 1,2,-1
 1499 694 l 1,3,-1
 977 694 l 1,4,-1
 977 340 l 1,5,-1
 739 340 l 1,6,-1
 739 694 l 1,7,-1
 217 694 l 1,8,-1
 217 930 l 1,9,-1
 739 930 l 1,10,-1
 739 1284 l 1,11,-1
 977 1284 l 1,0,-1
217 238 m 1,12,-1
 1499 238 l 1,13,-1
 1499 0 l 1,14,-1
 217 0 l 1,15,-1
 217 238 l 1,12,-1
EndSplineSet
EndChar
StartChar: twosuperior
Encoding: 178 178 178
Width: 897
Flags: W
Fore
412 836 m 1,0,-1
 782 836 l 1,1,-1
 782 668 l 1,2,-1
 109 668 l 1,3,-1
 109 821 l 1,4,-1
 422 1087 l 2,5,6
 483 1140 483 1140 509 1180 c 128,-1,7
 535 1220 535 1220 535 1260 c 0,8,9
 535 1310 535 1310 498.5 1341 c 128,-1,10
 462 1372 462 1372 403 1372 c 0,11,12
 341 1372 341 1372 270 1349.5 c 128,-1,13
 199 1327 199 1327 115 1280 c 1,14,-1
 115 1466 l 1,15,16
 202 1493 202 1493 283.5 1506.5 c 128,-1,17
 365 1520 365 1520 440 1520 c 0,18,19
 598 1520 598 1520 688 1455.5 c 128,-1,20
 778 1391 778 1391 778 1280 c 0,21,22
 778 1208 778 1208 742.5 1147.5 c 128,-1,23
 707 1087 707 1087 606 1001 c 2,24,-1
 412 836 l 1,0,-1
EndSplineSet
EndChar
StartChar: threesuperior
Encoding: 179 179 179
Width: 897
Flags: W
Fore
592 1120 m 1,0,1
 684 1102 684 1102 735 1047 c 128,-1,2
 786 992 786 992 786 911 c 0,3,4
 786 782 786 782 687 717.5 c 128,-1,5
 588 653 588 653 387 653 c 0,6,7
 306 653 306 653 232 664.5 c 128,-1,8
 158 676 158 676 90 698 c 1,9,-1
 90 872 l 1,10,11
 156 836 156 836 220 817.5 c 128,-1,12
 284 799 284 799 344 799 c 0,13,14
 439 799 439 799 491 831 c 128,-1,15
 543 863 543 863 543 922 c 0,16,17
 543 986 543 986 489.5 1016.5 c 128,-1,18
 436 1047 436 1047 322 1047 c 2,19,-1
 248 1047 l 1,20,-1
 248 1184 l 1,21,-1
 332 1184 l 2,22,23
 430 1184 430 1184 475 1207.5 c 128,-1,24
 520 1231 520 1231 520 1282 c 0,25,26
 520 1327 520 1327 481 1349.5 c 128,-1,27
 442 1372 442 1372 362 1372 c 0,28,29
 310 1372 310 1372 248.5 1359 c 128,-1,30
 187 1346 187 1346 117 1319 c 1,31,-1
 117 1485 l 1,32,33
 182 1502 182 1502 257.5 1511 c 128,-1,34
 333 1520 333 1520 420 1520 c 0,35,36
 587 1520 587 1520 675.5 1464 c 128,-1,37
 764 1408 764 1408 764 1303 c 0,38,39
 764 1234 764 1234 719 1186 c 128,-1,40
 674 1138 674 1138 592 1120 c 1,0,1
EndSplineSet
EndChar
StartChar: acute
Encoding: 180 180 180
Width: 1024
Flags: W
Fore
647 1638 m 1,0,-1
 930 1638 l 1,1,-1
 561 1262 l 1,2,-1
 365 1262 l 1,3,-1
 647 1638 l 1,0,-1
EndSplineSet
LCarets: 0 65535 '    ' 1 0 
Ligature: 0 1 'liga' space acutecomb
EndChar
StartChar: mu
Encoding: 181 181 181
Width: 1507
Flags: W
Fore
174 -428 m 1,0,-1
 174 1120 l 1,1,-1
 535 1120 l 1,2,-1
 535 469 l 2,3,4
 535 353 535 353 585 296.5 c 128,-1,5
 635 240 635 240 737 240 c 0,6,7
 840 240 840 240 890 296.5 c 128,-1,8
 940 353 940 353 940 469 c 2,9,-1
 940 1120 l 1,10,-1
 1300 1120 l 1,11,-1
 1300 371 l 2,12,13
 1300 300 1300 300 1316.5 272 c 128,-1,14
 1333 244 1333 244 1372 244 c 0,15,16
 1390 244 1390 244 1406.5 249 c 128,-1,17
 1423 254 1423 254 1442 266 c 1,18,-1
 1442 16 l 1,19,20
 1389 -7 1389 -7 1342.5 -18 c 128,-1,21
 1296 -29 1296 -29 1251 -29 c 0,22,23
 1162 -29 1162 -29 1105.5 8.5 c 128,-1,24
 1049 46 1049 46 1014 129 c 1,25,26
 967 50 967 50 899.5 10.5 c 128,-1,27
 832 -29 832 -29 743 -29 c 0,28,29
 669 -29 669 -29 617 -5.5 c 128,-1,30
 565 18 565 18 535 66 c 1,31,-1
 535 -428 l 1,32,-1
 174 -428 l 1,0,-1
EndSplineSet
EndChar
StartChar: paragraph
Encoding: 182 182 182
Width: 1303
Flags: W
Fore
604 1493 m 2,0,-1
 1124 1493 l 1,1,-1
 1124 -197 l 1,2,-1
 934 -197 l 1,3,-1
 934 1346 l 1,4,-1
 745 1346 l 1,5,-1
 745 -197 l 1,6,-1
 555 -197 l 1,7,-1
 555 649 l 1,8,9
 351 674 351 674 240 783.5 c 128,-1,10
 129 893 129 893 129 1071 c 0,11,12
 129 1261 129 1261 259 1377 c 128,-1,13
 389 1493 389 1493 604 1493 c 2,0,-1
EndSplineSet
EndChar
StartChar: periodcentered
Encoding: 183 183 183
Width: 778
Flags: W
Fore
209 905 m 1,0,-1
 569 905 l 1,1,-1
 569 518 l 1,2,-1
 209 518 l 1,3,-1
 209 905 l 1,0,-1
EndSplineSet
EndChar
StartChar: cedilla
Encoding: 184 184 184
Width: 1024
Flags: W
Fore
602 0 m 1,0,1
 660 -62 660 -62 687.5 -115 c 128,-1,2
 715 -168 715 -168 715 -215 c 0,3,4
 715 -310 715 -310 653.5 -355.5 c 128,-1,5
 592 -401 592 -401 465 -401 c 0,6,7
 417 -401 417 -401 366 -394.5 c 128,-1,8
 315 -388 315 -388 263 -375 c 1,9,-1
 262 -223 l 1,10,11
 312 -239 312 -239 353.5 -246.5 c 128,-1,12
 395 -254 395 -254 428 -254 c 0,13,14
 486 -254 486 -254 518.5 -231 c 128,-1,15
 551 -208 551 -208 551 -168 c 0,16,17
 551 -142 551 -142 529.5 -101 c 128,-1,18
 508 -60 508 -60 463 0 c 1,19,-1
 602 0 l 1,0,1
EndSplineSet
Ligature: 0 1 'liga' space uni0327
EndChar
StartChar: onesuperior
Encoding: 185 185 185
Width: 897
Flags: W
Fore
141 825 m 1,0,-1
 348 825 l 1,1,-1
 348 1346 l 1,2,-1
 123 1294 l 1,3,-1
 123 1454 l 1,4,-1
 352 1503 l 1,5,-1
 578 1503 l 1,6,-1
 578 825 l 1,7,-1
 782 825 l 1,8,-1
 782 668 l 1,9,-1
 141 668 l 1,10,-1
 141 825 l 1,0,-1
EndSplineSet
EndChar
StartChar: ordmasculine
Encoding: 186 186 186
Width: 1155
Flags: W
Fore
578 1520 m 0,0,1
 791 1520 791 1520 914.5 1409 c 128,-1,2
 1038 1298 1038 1298 1038 1108 c 0,3,4
 1038 918 1038 918 915 808 c 128,-1,5
 792 698 792 698 578 698 c 0,6,7
 364 698 364 698 240.5 808 c 128,-1,8
 117 918 117 918 117 1108 c 0,9,10
 117 1298 117 1298 240.5 1409 c 128,-1,11
 364 1520 364 1520 578 1520 c 0,0,1
166 573 m 1,12,-1
 989 573 l 1,13,-1
 989 373 l 1,14,-1
 166 373 l 1,15,-1
 166 573 l 1,12,-1
578 1350 m 0,16,17
 494 1350 494 1350 448.5 1287 c 128,-1,18
 403 1224 403 1224 403 1108 c 0,19,20
 403 992 403 992 448.5 930 c 128,-1,21
 494 868 494 868 578 868 c 0,22,23
 661 868 661 868 706.5 930 c 128,-1,24
 752 992 752 992 752 1108 c 0,25,26
 752 1224 752 1224 706.5 1287 c 128,-1,27
 661 1350 661 1350 578 1350 c 0,16,17
EndSplineSet
EndChar
StartChar: guillemotright
Encoding: 187 187 187
Width: 1323
Flags: W
Fore
672 1063 m 1,0,-1
 1165 692 l 1,1,-1
 1165 506 l 1,2,-1
 672 137 l 1,3,-1
 672 379 l 1,4,-1
 965 600 l 1,5,-1
 672 821 l 1,6,-1
 672 1063 l 1,0,-1
193 1063 m 1,7,-1
 684 692 l 1,8,-1
 684 506 l 1,9,-1
 193 137 l 1,10,-1
 193 379 l 1,11,-1
 485 600 l 1,12,-1
 193 821 l 1,13,-1
 193 1063 l 1,7,-1
EndSplineSet
EndChar
StartChar: onequarter
Encoding: 188 188 188
Width: 2120
Flags: W
Fore
1593 641 m 1,0,-1
 1354 317 l 1,1,-1
 1593 317 l 1,2,-1
 1593 641 l 1,0,-1
1575 836 m 1,3,-1
 1823 836 l 1,4,-1
 1823 317 l 1,5,-1
 1960 317 l 1,6,-1
 1960 162 l 1,7,-1
 1823 162 l 1,8,-1
 1823 0 l 1,9,-1
 1593 0 l 1,10,-1
 1593 162 l 1,11,-1
 1202 162 l 1,12,-1
 1202 330 l 1,13,-1
 1575 836 l 1,3,-1
733 -29 m 1,14,-1
 510 -29 l 1,15,-1
 1444 1520 l 1,16,-1
 1667 1520 l 1,17,-1
 733 -29 l 1,14,-1
119 825 m 1,18,-1
 324 825 l 1,19,-1
 324 1346 l 1,20,-1
 100 1294 l 1,21,-1
 100 1454 l 1,22,-1
 330 1503 l 1,23,-1
 553 1503 l 1,24,-1
 553 825 l 1,25,-1
 758 825 l 1,26,-1
 758 668 l 1,27,-1
 119 668 l 1,28,-1
 119 825 l 1,18,-1
EndSplineSet
Ligature: 0 1 'frac' one slash four
Ligature: 0 1 'frac' one fraction four
EndChar
StartChar: onehalf
Encoding: 189 189 189
Width: 2120
Flags: W
Fore
1649 168 m 1,0,-1
 2021 168 l 1,1,-1
 2021 0 l 1,2,-1
 1346 0 l 1,3,-1
 1346 154 l 1,4,-1
 1661 422 l 2,5,6
 1723 475 1723 475 1748.5 514 c 128,-1,7
 1774 553 1774 553 1774 592 c 0,8,9
 1774 642 1774 642 1737 673.5 c 128,-1,10
 1700 705 1700 705 1640 705 c 0,11,12
 1578 705 1578 705 1508.5 682.5 c 128,-1,13
 1439 660 1439 660 1354 612 c 1,14,-1
 1354 799 l 1,15,16
 1442 826 1442 826 1522.5 839 c 128,-1,17
 1603 852 1603 852 1677 852 c 0,18,19
 1836 852 1836 852 1925.5 788.5 c 128,-1,20
 2015 725 2015 725 2015 614 c 0,21,22
 2015 542 2015 542 1978.5 480 c 128,-1,23
 1942 418 1942 418 1843 334 c 2,24,-1
 1649 168 l 1,0,-1
733 -29 m 1,25,-1
 510 -29 l 1,26,-1
 1444 1520 l 1,27,-1
 1667 1520 l 1,28,-1
 733 -29 l 1,25,-1
119 825 m 1,29,-1
 324 825 l 1,30,-1
 324 1346 l 1,31,-1
 100 1294 l 1,32,-1
 100 1454 l 1,33,-1
 330 1503 l 1,34,-1
 553 1503 l 1,35,-1
 553 825 l 1,36,-1
 758 825 l 1,37,-1
 758 668 l 1,38,-1
 119 668 l 1,39,-1
 119 825 l 1,29,-1
EndSplineSet
Ligature: 0 1 'frac' one slash two
Ligature: 0 1 'frac' one fraction two
EndChar
StartChar: threequarters
Encoding: 190 190 190
Width: 2120
Flags: W
Fore
1575 836 m 1,0,-1
 1823 836 l 1,1,-1
 1823 317 l 1,2,-1
 1960 317 l 1,3,-1
 1960 162 l 1,4,-1
 1823 162 l 1,5,-1
 1823 0 l 1,6,-1
 1593 0 l 1,7,-1
 1593 162 l 1,8,-1
 1202 162 l 1,9,-1
 1202 330 l 1,10,-1
 1575 836 l 1,0,-1
1593 641 m 1,11,-1
 1354 317 l 1,12,-1
 1593 317 l 1,13,-1
 1593 641 l 1,11,-1
606 1120 m 1,14,15
 699 1102 699 1102 750 1047 c 128,-1,16
 801 992 801 992 801 911 c 0,17,18
 801 782 801 782 701.5 717.5 c 128,-1,19
 602 653 602 653 401 653 c 0,20,21
 320 653 320 653 246 664.5 c 128,-1,22
 172 676 172 676 104 698 c 1,23,-1
 104 872 l 1,24,25
 170 836 170 836 234 817.5 c 128,-1,26
 298 799 298 799 358 799 c 0,27,28
 453 799 453 799 505 831 c 128,-1,29
 557 863 557 863 557 922 c 0,30,31
 557 986 557 986 504 1016.5 c 128,-1,32
 451 1047 451 1047 336 1047 c 2,33,-1
 262 1047 l 1,34,-1
 262 1184 l 1,35,-1
 346 1184 l 2,36,37
 444 1184 444 1184 489.5 1207.5 c 128,-1,38
 535 1231 535 1231 535 1282 c 0,39,40
 535 1327 535 1327 495.5 1349.5 c 128,-1,41
 456 1372 456 1372 377 1372 c 0,42,43
 324 1372 324 1372 263 1359 c 128,-1,44
 202 1346 202 1346 131 1319 c 1,45,-1
 131 1485 l 1,46,47
 196 1502 196 1502 272 1511 c 128,-1,48
 348 1520 348 1520 434 1520 c 0,49,50
 601 1520 601 1520 689.5 1464 c 128,-1,51
 778 1408 778 1408 778 1303 c 0,52,53
 778 1234 778 1234 733 1186 c 128,-1,54
 688 1138 688 1138 606 1120 c 1,14,15
733 -29 m 1,55,-1
 510 -29 l 1,56,-1
 1444 1520 l 1,57,-1
 1667 1520 l 1,58,-1
 733 -29 l 1,55,-1
EndSplineSet
Ligature: 0 1 'frac' three slash four
Ligature: 0 1 'frac' three fraction four
EndChar
StartChar: questiondown
Encoding: 191 191 191
Width: 1188
Flags: W
Fore
487 987 m 1,0,-1
 848 987 l 1,1,-1
 848 938 l 2,2,3
 848 857 848 857 815.5 794 c 128,-1,4
 783 731 783 731 674 631 c 2,5,-1
 610 573 l 2,6,7
 554 522 554 522 528 476 c 128,-1,8
 502 430 502 430 502 383 c 0,9,10
 502 313 502 313 550 273 c 128,-1,11
 598 233 598 233 684 233 c 0,12,13
 765 233 765 233 859.5 267 c 128,-1,14
 954 301 954 301 1055 367 c 1,15,-1
 1055 53 l 1,16,17
 936 11 936 11 834.5 -9 c 128,-1,18
 733 -29 733 -29 641 -29 c 0,19,20
 397 -29 397 -29 269 70.5 c 128,-1,21
 141 170 141 170 141 360 c 0,22,23
 141 459 141 459 180 536.5 c 128,-1,24
 219 614 219 614 313 702 c 1,25,-1
 377 760 l 2,26,27
 445 821 445 821 466 859 c 128,-1,28
 487 897 487 897 487 942 c 2,29,-1
 487 987 l 1,0,-1
848 1137 m 1,30,-1
 487 1137 l 1,31,-1
 487 1493 l 1,32,-1
 848 1493 l 1,33,-1
 848 1137 l 1,30,-1
EndSplineSet
EndChar
StartChar: Aring
Encoding: 197 197 197
Width: 1585
Flags: W
Fore
1032 1464 m 1,0,-1
 1575 0 l 1,1,-1
 1188 0 l 1,2,-1
 1094 272 l 1,3,-1
 492 272 l 1,4,-1
 397 0 l 1,5,-1
 10 0 l 1,6,-1
 553 1464 l 1,7,8
 530 1498 530 1498 519 1535.5 c 128,-1,9
 508 1573 508 1573 508 1616 c 0,10,11
 508 1733 508 1733 591.5 1817 c 128,-1,12
 675 1901 675 1901 793 1901 c 0,13,14
 909 1901 909 1901 993 1817 c 128,-1,15
 1077 1733 1077 1733 1077 1616 c 0,16,17
 1077 1569 1077 1569 1066 1531 c 128,-1,18
 1055 1493 1055 1493 1032 1464 c 1,0,-1
662 1616 m 0,19,20
 662 1562 662 1562 700.5 1523.5 c 128,-1,21
 739 1485 739 1485 793 1485 c 0,22,23
 847 1485 847 1485 885.5 1523.5 c 128,-1,24
 924 1562 924 1562 924 1616 c 0,25,26
 924 1670 924 1670 885 1708.5 c 128,-1,27
 846 1747 846 1747 793 1747 c 0,28,29
 739 1747 739 1747 700.5 1708.5 c 128,-1,30
 662 1670 662 1670 662 1616 c 0,19,20
588 549 m 1,31,-1
 997 549 l 1,32,-1
 793 1143 l 1,33,-1
 588 549 l 1,31,-1
EndSplineSet
LCarets: 0 65535 '    ' 1 0 
Ligature: 0 0 'liga' A uni030A
EndChar
StartChar: AE
Encoding: 198 198 198
Width: 2222
Flags: W
Fore
891 1237 m 1,0,-1
 635 627 l 1,1,-1
 1012 627 l 1,2,-1
 1012 1237 l 1,3,-1
 891 1237 l 1,0,-1
625 1493 m 1,4,-1
 2050 1493 l 1,5,-1
 2050 1202 l 1,6,-1
 1397 1202 l 1,7,-1
 1397 924 l 1,8,-1
 2011 924 l 1,9,-1
 2011 633 l 1,10,-1
 1397 633 l 1,11,-1
 1397 291 l 1,12,-1
 2073 291 l 1,13,-1
 2073 0 l 1,14,-1
 1012 0 l 1,15,-1
 1012 350 l 1,16,-1
 518 350 l 1,17,-1
 371 0 l 1,18,-1
 0 0 l 1,19,-1
 625 1493 l 1,4,-1
EndSplineSet
KernsSLIFO: 45 -36 0 0
EndChar
StartChar: Eth
Encoding: 208 208 208
Width: 1716
Flags: W
Fore
592 1202 m 1,0,-1
 592 881 l 1,1,-1
 827 881 l 1,2,-1
 827 621 l 1,3,-1
 592 621 l 1,4,-1
 592 291 l 1,5,-1
 729 291 l 2,6,7
 965 291 965 291 1089.5 408 c 128,-1,8
 1214 525 1214 525 1214 748 c 0,9,10
 1214 970 1214 970 1090 1086 c 128,-1,11
 966 1202 966 1202 729 1202 c 2,12,-1
 592 1202 l 1,0,-1
207 1493 m 1,13,-1
 612 1493 l 2,14,15
 953 1493 953 1493 1119 1444.5 c 128,-1,16
 1285 1396 1285 1396 1405 1280 c 0,17,18
 1509 1179 1509 1179 1560.5 1047 c 128,-1,19
 1612 915 1612 915 1612 748 c 0,20,21
 1612 579 1612 579 1560.5 446.5 c 128,-1,22
 1509 314 1509 314 1405 213 c 0,23,24
 1284 97 1284 97 1116 48.5 c 128,-1,25
 948 0 948 0 612 0 c 2,26,-1
 207 0 l 1,27,-1
 207 621 l 1,28,-1
 33 621 l 1,29,-1
 33 881 l 1,30,-1
 207 881 l 1,31,-1
 207 1493 l 1,13,-1
EndSplineSet
KernsSLIFO: 7922 -149 0 0 562 -149 0 0 374 -149 0 0 221 -149 0 0 8222 -36 0 0 8218 -36 0 0 376 -149 0 0 89 -149 0 0 45 38 0 0
EndChar
StartChar: multiply
Encoding: 215 215 215
Width: 1716
Flags: W
Fore
1460 1075 m 1,0,-1
 1026 641 l 1,1,-1
 1460 209 l 1,2,-1
 1292 41 l 1,3,-1
 858 473 l 1,4,-1
 424 41 l 1,5,-1
 256 209 l 1,6,-1
 690 641 l 1,7,-1
 256 1075 l 1,8,-1
 424 1243 l 1,9,-1
 858 809 l 1,10,-1
 1292 1243 l 1,11,-1
 1460 1075 l 1,0,-1
EndSplineSet
EndChar
StartChar: Oslash
Encoding: 216 216 216
Width: 1741
Flags: W
AnchorPoint: "above" 844 1520 basechar 0
Fore
604 371 m 1,0,1
 656 309 656 309 721.5 279.5 c 128,-1,2
 787 250 787 250 870 250 c 0,3,4
 1047 250 1047 250 1144 380 c 128,-1,5
 1241 510 1241 510 1241 745 c 0,6,7
 1241 813 1241 813 1233.5 871.5 c 128,-1,8
 1226 930 1226 930 1210 979 c 1,9,-1
 604 371 l 1,0,1
1133 1126 m 1,10,11
 1082 1184 1082 1184 1017 1212.5 c 128,-1,12
 952 1241 952 1241 870 1241 c 0,13,14
 694 1241 694 1241 597 1111 c 128,-1,15
 500 981 500 981 500 745 c 0,16,17
 500 681 500 681 507 624.5 c 128,-1,18
 514 568 514 568 528 522 c 1,19,-1
 1133 1126 l 1,10,11
250 244 m 1,20,21
 176 344 176 344 139 469 c 128,-1,22
 102 594 102 594 102 745 c 0,23,24
 102 1108 102 1108 306.5 1314 c 128,-1,25
 511 1520 511 1520 870 1520 c 0,26,27
 1024 1520 1024 1520 1148 1482.5 c 128,-1,28
 1272 1445 1272 1445 1374 1368 c 1,29,-1
 1573 1567 l 1,30,-1
 1686 1452 l 1,31,-1
 1485 1253 l 1,32,33
 1562 1154 1562 1154 1600 1026.5 c 128,-1,34
 1638 899 1638 899 1638 745 c 0,35,36
 1638 383 1638 383 1434 177 c 128,-1,37
 1230 -29 1230 -29 870 -29 c 0,38,39
 717 -29 717 -29 589.5 10.5 c 128,-1,40
 462 50 462 50 360 129 c 1,41,-1
 158 -74 l 1,42,-1
 45 39 l 1,43,-1
 250 244 l 1,20,21
EndSplineSet
KernsSLIFO: 221 -36 0 0 193 -36 0 0 194 -36 0 0 376 -36 0 0 195 -36 0 0 192 -36 0 0 196 -36 0 0 89 -36 0 0 88 -73 0 0 86 -36 0 0 65 -36 0 0 46 -45 0 0 45 38 0 0 44 -45 0 0
EndChar
StartChar: Thorn
Encoding: 222 222 222
Width: 1511
Flags: W
Fore
573 258 m 1,0,-1
 573 0 l 1,1,-1
 188 0 l 1,2,-1
 188 1493 l 1,3,-1
 573 1493 l 1,4,-1
 573 1233 l 1,5,-1
 827 1233 l 2,6,7
 1112 1233 1112 1233 1264.5 1106.5 c 128,-1,8
 1417 980 1417 980 1417 745 c 0,9,10
 1417 511 1417 511 1264.5 384.5 c 128,-1,11
 1112 258 1112 258 827 258 c 2,12,-1
 573 258 l 1,0,-1
573 956 m 1,13,-1
 573 537 l 1,14,-1
 786 537 l 2,15,16
 898 537 898 537 959 591.5 c 128,-1,17
 1020 646 1020 646 1020 745 c 0,18,19
 1020 846 1020 846 959 901 c 128,-1,20
 898 956 898 956 786 956 c 2,21,-1
 573 956 l 1,13,-1
EndSplineSet
EndChar
StartChar: germandbls
Encoding: 223 223 223
Width: 1473
Flags: W
Fore
172 1114 m 2,0,1
 172 1336 172 1336 307 1446 c 128,-1,2
 442 1556 442 1556 715 1556 c 0,3,4
 977 1556 977 1556 1111 1444 c 128,-1,5
 1245 1332 1245 1332 1245 1114 c 2,6,-1
 1245 1043 l 1,7,8
 1094 1033 1094 1033 1022 994 c 128,-1,9
 950 955 950 955 950 881 c 0,10,11
 950 844 950 844 974.5 815.5 c 128,-1,12
 999 787 999 787 1092 735 c 2,13,-1
 1161 698 l 2,14,15
 1277 634 1277 634 1330.5 549.5 c 128,-1,16
 1384 465 1384 465 1384 348 c 0,17,18
 1384 159 1384 159 1269.5 65 c 128,-1,19
 1155 -29 1155 -29 924 -29 c 0,20,21
 859 -29 859 -29 790 -16.5 c 128,-1,22
 721 -4 721 -4 647 20 c 1,23,-1
 647 264 l 1,24,25
 703 237 703 237 760.5 223 c 128,-1,26
 818 209 818 209 872 209 c 0,27,28
 944 209 944 209 988 245 c 128,-1,29
 1032 281 1032 281 1032 338 c 0,30,31
 1032 385 1032 385 1004.5 419 c 128,-1,32
 977 453 977 453 879 508 c 2,33,-1
 809 547 l 2,34,35
 721 596 721 596 679 663.5 c 128,-1,36
 637 731 637 731 637 821 c 0,37,38
 637 937 637 937 706.5 1016 c 128,-1,39
 776 1095 776 1095 921 1145 c 1,40,41
 920 1230 920 1230 872 1274.5 c 128,-1,42
 824 1319 824 1319 733 1319 c 0,43,44
 632 1319 632 1319 581 1264 c 128,-1,45
 530 1209 530 1209 530 1100 c 2,46,-1
 530 0 l 1,47,-1
 172 0 l 1,48,-1
 172 1114 l 2,0,1
EndSplineSet
EndChar
StartChar: ae
Encoding: 230 230 230
Width: 2146
Flags: W
AnchorPoint: "above" 1063 1147 basechar 0
Fore
1679 682 m 1,0,1
 1679 784 1679 784 1619.5 846.5 c 128,-1,2
 1560 909 1560 909 1464 909 c 0,3,4
 1361 909 1361 909 1297 850.5 c 128,-1,5
 1233 792 1233 792 1217 682 c 1,6,-1
 1679 682 l 1,0,1
674 504 m 2,7,8
 562 504 562 504 505.5 466 c 128,-1,9
 449 428 449 428 449 354 c 0,10,11
 449 286 449 286 494.5 247.5 c 128,-1,12
 540 209 540 209 621 209 c 0,13,14
 722 209 722 209 791 281.5 c 128,-1,15
 860 354 860 354 860 463 c 2,16,-1
 860 504 l 1,17,-1
 674 504 l 2,7,8
186 1090 m 1,18,19
 305 1118 305 1118 416.5 1132.5 c 128,-1,20
 528 1147 528 1147 625 1147 c 0,21,22
 775 1147 775 1147 883.5 1108.5 c 128,-1,23
 992 1070 992 1070 1063 991 c 1,24,25
 1140 1068 1140 1068 1242 1107.5 c 128,-1,26
 1344 1147 1344 1147 1466 1147 c 0,27,28
 1731 1147 1731 1147 1889.5 988 c 128,-1,29
 2048 829 2048 829 2048 563 c 2,30,-1
 2048 461 l 1,31,-1
 1210 461 l 1,32,33
 1224 335 1224 335 1301.5 272 c 128,-1,34
 1379 209 1379 209 1520 209 c 0,35,36
 1633 209 1633 209 1751.5 242.5 c 128,-1,37
 1870 276 1870 276 1995 344 c 1,38,-1
 1995 68 l 1,39,40
 1868 20 1868 20 1740.5 -4.5 c 128,-1,41
 1613 -29 1613 -29 1487 -29 c 0,42,43
 1308 -29 1308 -29 1175.5 24.5 c 128,-1,44
 1043 78 1043 78 971 178 c 1,45,46
 870 71 870 71 758.5 21 c 128,-1,47
 647 -29 647 -29 508 -29 c 0,48,49
 314 -29 314 -29 201 69.5 c 128,-1,50
 88 168 88 168 88 336 c 0,51,52
 88 533 88 533 223.5 625 c 128,-1,53
 359 717 359 717 649 717 c 2,54,-1
 860 717 l 1,55,-1
 860 745 l 2,56,57
 860 830 860 830 793 869.5 c 128,-1,58
 726 909 726 909 584 909 c 0,59,60
 469 909 469 909 370 886 c 128,-1,61
 271 863 271 863 186 817 c 1,62,-1
 186 1090 l 1,18,19
EndSplineSet
EndChar
StartChar: eth
Encoding: 240 240 240
Width: 1407
Flags: W
Fore
920 743 m 1,0,1
 865 770 865 770 811 783.5 c 128,-1,2
 757 797 757 797 705 797 c 0,3,4
 588 797 588 797 524.5 730.5 c 128,-1,5
 461 664 461 664 461 543 c 0,6,7
 461 395 461 395 526 311 c 128,-1,8
 591 227 591 227 705 227 c 0,9,10
 822 227 822 227 884 312.5 c 128,-1,11
 946 398 946 398 946 559 c 0,12,13
 946 604 946 604 939.5 650 c 128,-1,14
 933 696 933 696 920 743 c 1,0,1
1096 1100 m 1,15,16
 1213 964 1213 964 1266 835.5 c 128,-1,17
 1319 707 1319 707 1319 559 c 0,18,19
 1319 283 1319 283 1156.5 127 c 128,-1,20
 994 -29 994 -29 705 -29 c 0,21,22
 415 -29 415 -29 251.5 127 c 128,-1,23
 88 283 88 283 88 559 c 0,24,25
 88 790 88 790 238.5 922.5 c 128,-1,26
 389 1055 389 1055 653 1055 c 0,27,28
 699 1055 699 1055 738 1048.5 c 128,-1,29
 777 1042 777 1042 813 1028 c 1,30,-1
 623 1247 l 1,31,-1
 250 1128 l 1,32,-1
 213 1257 l 1,33,-1
 520 1354 l 1,34,-1
 332 1556 l 1,35,-1
 684 1556 l 1,36,-1
 795 1440 l 1,37,-1
 1171 1554 l 1,38,-1
 1206 1425 l 1,39,-1
 891 1329 l 1,40,-1
 1096 1100 l 1,15,16
EndSplineSet
EndChar
StartChar: divide
Encoding: 247 247 247
Width: 1716
Flags: W
Fore
705 395 m 1,0,-1
 1012 395 l 1,1,-1
 1012 86 l 1,2,-1
 705 86 l 1,3,-1
 705 395 l 1,0,-1
705 1198 m 1,4,-1
 1012 1198 l 1,5,-1
 1012 889 l 1,6,-1
 705 889 l 1,7,-1
 705 1198 l 1,4,-1
217 760 m 1,8,-1
 1499 760 l 1,9,-1
 1499 524 l 1,10,-1
 217 524 l 1,11,-1
 217 760 l 1,8,-1
EndSplineSet
EndChar
StartChar: oslash
Encoding: 248 248 248
Width: 1407
Flags: W
AnchorPoint: "above" 705 1147 basechar 0
Fore
856 836 m 1,0,1
 827 864 827 864 789.5 877.5 c 128,-1,2
 752 891 752 891 705 891 c 0,3,4
 586 891 586 891 523.5 805.5 c 128,-1,5
 461 720 461 720 461 559 c 0,6,7
 461 518 461 518 464.5 485.5 c 128,-1,8
 468 453 468 453 475 426 c 1,9,-1
 856 836 l 1,0,1
547 287 m 1,10,11
 578 257 578 257 617.5 242 c 128,-1,12
 657 227 657 227 705 227 c 0,13,14
 822 227 822 227 884 312.5 c 128,-1,15
 946 398 946 398 946 559 c 0,16,17
 946 602 946 602 942.5 635.5 c 128,-1,18
 939 669 939 669 932 698 c 1,19,-1
 547 287 l 1,10,11
223 158 m 1,20,21
 156 236 156 236 122 336 c 128,-1,22
 88 436 88 436 88 559 c 0,23,24
 88 835 88 835 251.5 991 c 128,-1,25
 415 1147 415 1147 705 1147 c 0,26,27
 811 1147 811 1147 900.5 1125 c 128,-1,28
 990 1103 990 1103 1065 1059 c 1,29,-1
 1212 1217 l 1,30,-1
 1321 1116 l 1,31,-1
 1180 967 l 1,32,33
 1250 887 1250 887 1284.5 786 c 128,-1,34
 1319 685 1319 685 1319 559 c 0,35,36
 1319 283 1319 283 1156.5 127 c 128,-1,37
 994 -29 994 -29 705 -29 c 0,38,39
 597 -29 597 -29 506 -6.5 c 128,-1,40
 415 16 415 16 338 61 c 1,41,-1
 190 -94 l 1,42,-1
 78 0 l 1,43,-1
 223 158 l 1,20,21
EndSplineSet
EndChar
StartChar: thorn
Encoding: 254 254 254
Width: 1466
Flags: W
Fore
530 162 m 1,0,-1
 530 -426 l 1,1,-1
 172 -426 l 1,2,-1
 172 1556 l 1,3,-1
 530 1556 l 1,4,-1
 530 956 l 1,5,6
 604 1054 604 1054 694 1100.5 c 128,-1,7
 784 1147 784 1147 901 1147 c 0,8,9
 1108 1147 1108 1147 1241 982.5 c 128,-1,10
 1374 818 1374 818 1374 559 c 0,11,12
 1374 300 1374 300 1241 135.5 c 128,-1,13
 1108 -29 1108 -29 901 -29 c 0,14,15
 784 -29 784 -29 694 17.5 c 128,-1,16
 604 64 604 64 530 162 c 1,0,-1
768 887 m 0,17,18
 653 887 653 887 591.5 802.5 c 128,-1,19
 530 718 530 718 530 559 c 0,20,21
 530 400 530 400 591.5 315.5 c 128,-1,22
 653 231 653 231 768 231 c 0,23,24
 883 231 883 231 943.5 315 c 128,-1,25
 1004 399 1004 399 1004 559 c 0,26,27
 1004 719 1004 719 943.5 803 c 128,-1,28
 883 887 883 887 768 887 c 0,17,18
EndSplineSet
EndChar
StartChar: Dcroat
Encoding: 272 272 272
Width: 1716
Flags: W
Fore
592 1202 m 1,0,-1
 592 881 l 1,1,-1
 827 881 l 1,2,-1
 827 621 l 1,3,-1
 592 621 l 1,4,-1
 592 291 l 1,5,-1
 729 291 l 2,6,7
 965 291 965 291 1089.5 408 c 128,-1,8
 1214 525 1214 525 1214 748 c 0,9,10
 1214 970 1214 970 1090 1086 c 128,-1,11
 966 1202 966 1202 729 1202 c 2,12,-1
 592 1202 l 1,0,-1
207 1493 m 1,13,-1
 612 1493 l 2,14,15
 953 1493 953 1493 1119 1444.5 c 128,-1,16
 1285 1396 1285 1396 1405 1280 c 0,17,18
 1509 1179 1509 1179 1560.5 1047 c 128,-1,19
 1612 915 1612 915 1612 748 c 0,20,21
 1612 579 1612 579 1560.5 446.5 c 128,-1,22
 1509 314 1509 314 1405 213 c 0,23,24
 1284 97 1284 97 1116 48.5 c 128,-1,25
 948 0 948 0 612 0 c 2,26,-1
 207 0 l 1,27,-1
 207 621 l 1,28,-1
 33 621 l 1,29,-1
 33 881 l 1,30,-1
 207 881 l 1,31,-1
 207 1493 l 1,13,-1
EndSplineSet
KernsSLIFO: 7922 -149 0 0 562 -149 0 0 374 -149 0 0 221 -149 0 0 8222 -36 0 0 8218 -36 0 0 376 -149 0 0 89 -149 0 0 45 38 0 0
EndChar
StartChar: dcroat
Encoding: 273 273 273
Width: 1466
Flags: W
Fore
934 956 m 1,0,-1
 934 1237 l 1,1,-1
 608 1237 l 1,2,-1
 608 1442 l 1,3,-1
 934 1442 l 1,4,-1
 934 1556 l 1,5,-1
 1294 1556 l 1,6,-1
 1294 1442 l 1,7,-1
 1448 1442 l 1,8,-1
 1448 1237 l 1,9,-1
 1294 1237 l 1,10,-1
 1294 0 l 1,11,-1
 934 0 l 1,12,-1
 934 162 l 1,13,14
 860 63 860 63 771 17 c 128,-1,15
 682 -29 682 -29 565 -29 c 0,16,17
 358 -29 358 -29 225 135.5 c 128,-1,18
 92 300 92 300 92 559 c 0,19,20
 92 818 92 818 225 982.5 c 128,-1,21
 358 1147 358 1147 565 1147 c 0,22,23
 681 1147 681 1147 770.5 1100.5 c 128,-1,24
 860 1054 860 1054 934 956 c 1,0,-1
698 231 m 0,25,26
 813 231 813 231 873.5 315 c 128,-1,27
 934 399 934 399 934 559 c 0,28,29
 934 719 934 719 873.5 803 c 128,-1,30
 813 887 813 887 698 887 c 0,31,32
 584 887 584 887 523.5 803 c 128,-1,33
 463 719 463 719 463 559 c 0,34,35
 463 399 463 399 523.5 315 c 128,-1,36
 584 231 584 231 698 231 c 0,25,26
EndSplineSet
EndChar
StartChar: Hbar
Encoding: 294 294 294
Width: 1994
Flags: W
AnchorPoint: "above" 995 1520 basechar 0
Fore
328 1493 m 1,0,-1
 713 1493 l 1,1,-1
 713 1306 l 1,2,-1
 1281 1306 l 1,3,-1
 1281 1493 l 1,4,-1
 1666 1493 l 1,5,-1
 1666 1306 l 1,6,-1
 1806 1306 l 1,7,-1
 1806 1112 l 1,8,-1
 1666 1112 l 1,9,-1
 1666 0 l 1,10,-1
 1281 0 l 1,11,-1
 1281 633 l 1,12,-1
 713 633 l 1,13,-1
 713 0 l 1,14,-1
 328 0 l 1,15,-1
 328 1112 l 1,16,-1
 188 1112 l 1,17,-1
 188 1306 l 1,18,-1
 328 1306 l 1,19,-1
 328 1493 l 1,0,-1
713 1112 m 1,20,-1
 713 924 l 1,21,-1
 1281 924 l 1,22,-1
 1281 1112 l 1,23,-1
 713 1112 l 1,20,-1
EndSplineSet
EndChar
StartChar: hbar
Encoding: 295 295 295
Width: 1618
Flags: W
AnchorPoint: "above" 510 1520 basechar 0
Fore
1452 682 m 2,0,-1
 1452 0 l 1,1,-1
 1092 0 l 1,2,-1
 1092 111 l 1,3,-1
 1092 520 l 2,4,5
 1092 667 1092 667 1085.5 722 c 128,-1,6
 1079 777 1079 777 1063 803 c 0,7,8
 1042 838 1042 838 1006 857.5 c 128,-1,9
 970 877 970 877 924 877 c 0,10,11
 812 877 812 877 748 790.5 c 128,-1,12
 684 704 684 704 684 551 c 2,13,-1
 684 0 l 1,14,-1
 326 0 l 1,15,-1
 326 1255 l 1,16,-1
 166 1255 l 1,17,-1
 166 1449 l 1,18,-1
 326 1449 l 1,19,-1
 326 1556 l 1,20,-1
 684 1556 l 1,21,-1
 684 1449 l 1,22,-1
 1047 1449 l 1,23,-1
 1047 1255 l 1,24,-1
 684 1255 l 1,25,-1
 684 956 l 1,26,27
 765 1054 765 1054 856 1100.5 c 128,-1,28
 947 1147 947 1147 1057 1147 c 0,29,30
 1251 1147 1251 1147 1351.5 1028 c 128,-1,31
 1452 909 1452 909 1452 682 c 2,0,-1
EndSplineSet
EndChar
StartChar: dotlessi
Encoding: 305 305 305
Width: 702
Flags: W
AnchorPoint: "above" 350 1147 basechar 0
Fore
172 1120 m 1,0,-1
 530 1120 l 1,1,-1
 530 0 l 1,2,-1
 172 0 l 1,3,-1
 172 1120 l 1,0,-1
EndSplineSet
EndChar
StartChar: kgreenlandic
Encoding: 312 312 312
Width: 1362
Flags: W
Fore
172 1120 m 1,0,-1
 530 1120 l 1,1,-1
 530 709 l 1,2,-1
 942 1120 l 1,3,-1
 1358 1120 l 1,4,-1
 811 606 l 1,5,-1
 1401 0 l 1,6,-1
 967 0 l 1,7,-1
 530 467 l 1,8,-1
 530 0 l 1,9,-1
 172 0 l 1,10,-1
 172 1120 l 1,0,-1
EndSplineSet
EndChar
StartChar: Lslash
Encoding: 321 321 321
Width: 1315
Flags: W
Fore
199 1493 m 1,0,-1
 584 1493 l 1,1,-1
 584 1077 l 1,2,-1
 838 1262 l 1,3,-1
 981 1069 l 1,4,-1
 584 797 l 1,5,-1
 584 291 l 1,6,-1
 1260 291 l 1,7,-1
 1260 0 l 1,8,-1
 199 0 l 1,9,-1
 199 524 l 1,10,-1
 51 418 l 1,11,-1
 -92 608 l 1,12,-1
 199 805 l 1,13,-1
 199 1493 l 1,0,-1
EndSplineSet
KernsSLIFO: 366 -73 0 0 356 -339 0 0 253 -139 0 0 221 -319 0 0 217 -73 0 0 219 -73 0 0 218 -73 0 0 210 -73 0 0 212 -73 0 0 211 -73 0 0 376 -319 0 0 255 -139 0 0 8217 -339 0 0 8221 -376 0 0 338 -73 0 0 213 -73 0 0 216 -73 0 0 220 -73 0 0 214 -73 0 0 121 -139 0 0 89 -319 0 0 87 -159 0 0 86 -282 0 0 85 -73 0 0 84 -339 0 0 79 -73 0 0
EndChar
StartChar: lslash
Encoding: 322 322 322
Width: 760
Flags: W
Fore
199 1556 m 1,0,-1
 559 1556 l 1,1,-1
 559 1055 l 1,2,-1
 688 1143 l 1,3,-1
 799 989 l 1,4,-1
 559 825 l 1,5,-1
 559 0 l 1,6,-1
 199 0 l 1,7,-1
 199 641 l 1,8,-1
 74 555 l 1,9,-1
 -37 709 l 1,10,-1
 199 872 l 1,11,-1
 199 1556 l 1,0,-1
EndSplineSet
EndChar
StartChar: Eng
Encoding: 330 330 330
Width: 1714
Flags: W
AnchorPoint: "above" 879 1520 basechar 0
Fore
207 1493 m 1,0,-1
 553 1493 l 1,1,-1
 1161 529 l 1,2,-1
 1161 1493 l 1,3,-1
 1508 1493 l 1,4,-1
 1508 20 l 2,5,6
 1508 -203 1508 -203 1398 -324 c 0,7,8
 1290 -442 1290 -442 1085 -442 c 2,9,-1
 804 -442 l 1,10,-1
 804 -207 l 1,11,-1
 970 -207 l 2,12,13
 1072 -207 1072 -207 1110 -161 c 128,-1,14
 1148 -115 1148 -115 1148 20 c 1,15,-1
 553 964 l 1,16,-1
 553 0 l 1,17,-1
 207 0 l 1,18,-1
 207 1493 l 1,0,-1
EndSplineSet
EndChar
StartChar: eng
Encoding: 331 331 331
Width: 1458
Flags: W
Fore
1298 682 m 2,0,-1
 1298 20 l 2,1,2
 1298 -203 1298 -203 1188 -324 c 0,3,4
 1080 -442 1080 -442 875 -442 c 2,5,-1
 594 -442 l 1,6,-1
 594 -207 l 1,7,-1
 760 -207 l 2,8,9
 862 -207 862 -207 900 -161 c 128,-1,10
 938 -115 938 -115 938 20 c 2,11,-1
 938 522 l 2,12,13
 938 667 938 667 932 722 c 0,14,15
 925 777 925 777 909 803 c 0,16,17
 888 838 888 838 852 858 c 0,18,19
 816 877 816 877 770 877 c 0,20,21
 658 877 658 877 594 790 c 0,22,23
 530 704 530 704 530 551 c 2,24,-1
 530 0 l 1,25,-1
 172 0 l 1,26,-1
 172 1120 l 1,27,-1
 530 1120 l 1,28,-1
 530 956 l 1,29,30
 611 1054 611 1054 702 1100 c 0,31,32
 793 1147 793 1147 903 1147 c 0,33,34
 1097 1147 1097 1147 1198 1028 c 0,35,36
 1298 909 1298 909 1298 682 c 2,0,-1
EndSplineSet
EndChar
StartChar: OE
Encoding: 338 338 338
Width: 2390
Flags: W
Fore
1180 1202 m 1,0,-1
 1075 1202 l 2,1,2
 786 1202 786 1202 643 1089 c 128,-1,3
 500 976 500 976 500 748 c 0,4,5
 500 519 500 519 643.5 405 c 128,-1,6
 787 291 787 291 1075 291 c 2,7,-1
 1180 291 l 1,8,-1
 1180 1202 l 1,0,-1
1090 1493 m 2,9,-1
 2218 1493 l 1,10,-1
 2218 1202 l 1,11,-1
 1565 1202 l 1,12,-1
 1565 924 l 1,13,-1
 2179 924 l 1,14,-1
 2179 633 l 1,15,-1
 1565 633 l 1,16,-1
 1565 291 l 1,17,-1
 2241 291 l 1,18,-1
 2241 0 l 1,19,-1
 1090 0 l 2,20,21
 1077 0 1077 0 1053.5 -1 c 128,-1,22
 1030 -2 1030 -2 1018 -2 c 0,23,24
 576 -2 576 -2 339 192.5 c 128,-1,25
 102 387 102 387 102 748 c 0,26,27
 102 1108 102 1108 339 1301.5 c 128,-1,28
 576 1495 576 1495 1018 1495 c 0,29,30
 1029 1495 1029 1495 1053 1494 c 128,-1,31
 1077 1493 1077 1493 1090 1493 c 2,9,-1
EndSplineSet
EndChar
StartChar: oe
Encoding: 339 339 339
Width: 2241
Flags: W
Fore
1774 682 m 1,0,1
 1774 784 1774 784 1714.5 846.5 c 128,-1,2
 1655 909 1655 909 1559 909 c 0,3,4
 1455 909 1455 909 1390 850.5 c 128,-1,5
 1325 792 1325 792 1309 682 c 1,6,-1
 1774 682 l 1,0,1
2142 563 m 2,7,-1
 2142 461 l 1,8,-1
 1305 461 l 1,9,10
 1318 335 1318 335 1396 272 c 128,-1,11
 1474 209 1474 209 1614 209 c 0,12,13
 1727 209 1727 209 1845.5 242.5 c 128,-1,14
 1964 276 1964 276 2089 344 c 1,15,-1
 2089 68 l 1,16,17
 1963 20 1963 20 1835 -4.5 c 128,-1,18
 1707 -29 1707 -29 1581 -29 c 0,19,20
 1416 -29 1416 -29 1309 11.5 c 128,-1,21
 1202 52 1202 52 1130 139 c 1,22,23
 1048 55 1048 55 941.5 13 c 128,-1,24
 835 -29 835 -29 705 -29 c 0,25,26
 415 -29 415 -29 251.5 127 c 128,-1,27
 88 283 88 283 88 559 c 0,28,29
 88 835 88 835 251.5 991 c 128,-1,30
 415 1147 415 1147 705 1147 c 0,31,32
 839 1147 839 1147 942 1106 c 128,-1,33
 1045 1065 1045 1065 1126 979 c 1,34,35
 1208 1066 1208 1066 1307.5 1106.5 c 128,-1,36
 1407 1147 1407 1147 1542 1147 c 0,37,38
 1820 1147 1820 1147 1981 990 c 128,-1,39
 2142 833 2142 833 2142 563 c 2,7,-1
705 891 m 0,40,41
 586 891 586 891 523.5 805.5 c 128,-1,42
 461 720 461 720 461 559 c 0,43,44
 461 398 461 398 523.5 312.5 c 128,-1,45
 586 227 586 227 705 227 c 0,46,47
 822 227 822 227 884 312.5 c 128,-1,48
 946 398 946 398 946 559 c 0,49,50
 946 720 946 720 884 805.5 c 128,-1,51
 822 891 822 891 705 891 c 0,40,41
EndSplineSet
EndChar
StartChar: Tbar
Encoding: 358 358 358
Width: 1397
Flags: W
TeX: 0 0 0 0
Fore
10 1493 m 1,0,-1
 1386 1493 l 1,1,-1
 1386 1202 l 1,2,-1
 891 1202 l 1,3,-1
 891 697 l 1,4,-1
 1138 697 l 1,5,-1
 1138 505 l 1,6,-1
 891 505 l 1,7,-1
 891 0 l 1,8,-1
 506 0 l 1,9,-1
 506 505 l 1,10,-1
 259 505 l 1,11,-1
 259 697 l 1,12,-1
 506 697 l 1,13,-1
 506 1202 l 1,14,-1
 10 1202 l 1,15,-1
 10 1493 l 1,0,-1
EndSplineSet
EndChar
StartChar: tbar
Encoding: 359 359 359
Width: 979
Flags: W
TeX: 0 0 0 0
Fore
563 1438 m 1,0,-1
 563 1120 l 1,1,-1
 932 1120 l 1,2,-1
 932 864 l 1,3,-1
 563 864 l 1,4,-1
 563 722 l 1,5,-1
 747 722 l 1,6,-1
 747 530 l 1,7,-1
 563 530 l 1,8,-1
 563 389 l 2,9,10
 563 311 563 311 594 284 c 0,11,12
 625 256 625 256 717 256 c 2,13,-1
 901 256 l 1,14,-1
 901 0 l 1,15,-1
 594 0 l 2,16,17
 382 0 382 0 294 88 c 0,18,19
 205 177 205 177 205 389 c 2,20,-1
 205 530 l 1,21,-1
 27 530 l 1,22,-1
 27 722 l 1,23,-1
 205 722 l 1,24,-1
 205 864 l 1,25,-1
 27 864 l 1,26,-1
 27 1120 l 1,27,-1
 205 1120 l 1,28,-1
 205 1438 l 1,29,-1
 563 1438 l 1,0,-1
EndSplineSet
EndChar
StartChar: longs
Encoding: 383 383 383
Width: 891
Flags: W
TeX: 0 0 0 0
Fore
575 0 m 1,0,-1
 217 0 l 1,1,-1
 217 864 l 1,2,-1
 39 864 l 1,3,-1
 39 1120 l 1,4,-1
 217 1120 l 1,5,-1
 217 1198 l 2,6,7
 217 1381 217 1381 319 1468.5 c 128,-1,8
 421 1556 421 1556 635 1556 c 2,9,-1
 909 1556 l 1,10,-1
 909 1321 l 1,11,-1
 711 1321 l 2,12,13
 635 1321 635 1321 605 1293.5 c 0,14,15
 575 1265.29 575 1265.29 575 1198 c 2,16,-1
 575 0 l 1,0,-1
EndSplineSet
EndChar
StartChar: uni0180
Encoding: 384 384 384
Width: 1466
Flags: W
TeX: 117 0 0 0
AnchorPoint: "above" 356 1520 basechar 0
Fore
530 956 m 1,0,1
 604 1054 604 1054 694 1100.5 c 0,2,3
 784 1147 784 1147 901 1147 c 0,4,5
 1108 1147 1108 1147 1241 982.5 c 0,6,7
 1374 818 1374 818 1374 559 c 0,8,9
 1374 300 1374 300 1241 135.5 c 0,10,11
 1108 -29 1108 -29 901 -29 c 0,12,13
 784 -29 784 -29 694 17.5 c 0,14,15
 604 64 604 64 530 162 c 1,16,-1
 530 0 l 1,17,-1
 172 0 l 1,18,-1
 172 1237 l 1,19,-1
 18 1237 l 1,20,-1
 18 1442 l 1,21,-1
 172 1442 l 1,22,-1
 172 1556 l 1,23,-1
 530 1556 l 1,24,-1
 530 1442 l 1,25,-1
 858 1442 l 1,26,-1
 858 1237 l 1,27,-1
 530 1237 l 1,28,-1
 530 956 l 1,0,1
768 231 m 0,29,30
 883 231 883 231 943.5 315 c 0,31,32
 1004 399 1004 399 1004 559 c 0,33,34
 1004 719 1004 719 943.5 803 c 0,35,36
 883 887 883 887 768 887 c 0,37,38
 653 887 653 887 591.5 802.5 c 0,39,40
 530 718 530 718 530 559 c 0,41,42
 530 400 530 400 591.5 315.5 c 0,43,44
 653 231 653 231 768 231 c 0,29,30
EndSplineSet
EndChar
StartChar: uni0181
Encoding: 385 385 385
Width: 1661
Flags: W
TeX: 117 0 0 0
AnchorPoint: "above" 877 1520 basechar 0
Fore
886 915 m 2,0,1
 977 915 977 915 1024 955 c 0,2,3
 1071 995 1071 995 1071 1073 c 0,4,5
 1071 1150 1071 1150 1024 1190.5 c 0,6,7
 977 1231 977 1231 886 1231 c 2,8,-1
 673 1231 l 1,9,-1
 673 915 l 1,10,-1
 886 915 l 2,0,1
899 262 m 2,11,12
 1015 262 1015 262 1073.5 311 c 0,13,14
 1132 360 1132 360 1132 459 c 0,15,16
 1132 556 1132 556 1074 604.5 c 0,17,18
 1016 653 1016 653 899 653 c 2,19,-1
 673 653 l 1,20,-1
 673 262 l 1,21,-1
 899 262 l 2,11,12
1257 799 m 1,22,23
 1381 763 1381 763 1449 666 c 0,24,25
 1517 569 1517 569 1517 428 c 0,26,27
 1517 212 1517 212 1371 106 c 0,28,29
 1225 -0.000488281 1225 -0.000488281 927 0 c 2,30,-1
 288 0 l 1,31,-1
 288 1231 l 1,32,33
 214.647 1231 214.647 1231 208.739 1230.45 c 0,34,35
 163.558 1226.27 163.558 1226.27 149 1210 c 0,36,37
 118.614 1176.04 118.614 1176.04 115.766 1125.9 c 0,38,39
 115 1112.41 115 1112.41 115 1079 c 1,40,-1
 -140 1079 l 1,41,-1
 -140 1156 l 2,42,43
 -140 1294 -140 1294 -91.8705 1359.26 c 0,44,45
 -74.0089 1383.48 -74.0089 1383.48 -41 1411.5 c 0,46,47
 33.7009 1474.91 33.7009 1474.91 172.48 1488.18 c 0,48,49
 222.878 1493 222.878 1493 288 1493 c 2,50,-1
 866 1493 l 2,51,52
 1177 1493 1177 1493 1316.5 1399 c 0,53,54
 1456 1305 1456 1305 1456 1098 c 0,55,56
 1456 989 1456 989 1405 912.5 c 0,57,58
 1354 836 1354 836 1257 799 c 1,22,23
EndSplineSet
EndChar
StartChar: uni0183
Encoding: 387 387 387
Width: 1466
Flags: W
TeX: 117 0 0 0
Fore
530 956 m 1,0,1
 604.005 1054 604.005 1054 694 1100.5 c 0,2,3
 784 1147 784 1147 901 1147 c 0,4,5
 1108 1147 1108 1147 1241 982.5 c 0,6,7
 1374 818.006 1374 818.006 1374 559 c 0,8,9
 1374 299.994 1374 299.994 1241 135.5 c 0,10,11
 1107.99 -29 1107.99 -29 901 -29 c 0,12,13
 784 -29 784 -29 694 17.5 c 0,14,15
 604 64 604 64 530 162 c 1,16,-1
 530 0 l 1,17,-1
 172 0 l 1,18,-1
 172 1556 l 1,19,-1
 1201 1556 l 1,20,-1
 1201 1265 l 1,21,-1
 530 1265 l 1,22,-1
 530 956 l 1,0,1
768 231 m 0,23,24
 883 231 883 231 943.5 315 c 0,25,26
 1004 399 1004 399 1004 559 c 0,27,28
 1004 719 1004 719 943.5 803 c 0,29,30
 883 887 883 887 768 887 c 0,31,32
 653 887 653 887 591.5 802.5 c 0,33,34
 530 718 530 718 530 559 c 0,35,36
 530 400 530 400 591.5 315.5 c 0,37,38
 653 231 653 231 768 231 c 0,23,24
EndSplineSet
EndChar
StartChar: uni0186
Encoding: 390 390 390
Width: 1503
Flags: W
TeX: 117 0 0 0
AnchorPoint: "above" 605 1520 basechar 0
Fore
102 82 m 1,0,-1
 102 391 l 1,1,2
 209 318 209 318 313 284 c 128,-1,3
 417 250 417 250 532 250 c 0,4,5
 738 250 738 250 856 382 c 128,-1,6
 974 514 974 514 974 745 c 0,7,8
 974 977 974 977 856 1109 c 128,-1,9
 738 1241 738 1241 532 1241 c 0,10,11
 417 1241 417 1241 313 1207 c 128,-1,12
 209 1173 209 1173 102 1100 c 1,13,-1
 102 1409 l 1,14,15
 208 1464 208 1464 323 1492 c 128,-1,16
 438 1520 438 1520 563 1520 c 0,17,18
 936 1520 936 1520 1154 1311.5 c 128,-1,19
 1372 1103 1372 1103 1372 745 c 0,20,21
 1372 388 1372 388 1154 179.5 c 128,-1,22
 936 -29 936 -29 563 -29 c 0,23,24
 438 -29 438 -29 323 -1 c 128,-1,25
 208 27 208 27 102 82 c 1,0,-1
EndSplineSet
EndChar
StartChar: uni0187
Encoding: 391 391 391
Width: 1503
Flags: W
TeX: 117 0 0 0
AnchorPoint: "above" 909 1520 basechar 0
Fore
1372 82 m 1,0,1
 1265.99 26.9955 1265.99 26.9955 1151 -1 c 0,2,3
 1036 -29 1036 -29 911 -29 c 0,4,5
 538 -29 538 -29 320 179.5 c 0,6,7
 102 388 102 388 102 745 c 0,8,9
 102 1103 102 1103 320 1311.5 c 0,10,11
 538 1520 538 1520 911 1520 c 0,12,13
 959.171 1520 959.171 1520 1005.75 1515.85 c 1,14,15
 1040.3 1664.56 1040.3 1664.56 1138.5 1754 c 0,16,17
 1290 1892 1290 1892 1597 1892 c 2,18,-1
 1675 1892 l 1,19,-1
 1675 1601 l 1,20,-1
 1615 1601 l 2,21,22
 1495 1601 1495 1601 1433.5 1534 c 0,23,24
 1372.02 1467.01 1372.02 1467.01 1372 1337.03 c 2,25,-1
 1372 1100 l 1,26,27
 1265.04 1172.98 1265.04 1172.98 1161 1207 c 0,28,29
 1057.02 1241 1057.02 1241 942 1241 c 0,30,31
 736 1241 736 1241 618 1109 c 0,32,33
 500 977 500 977 500 745 c 0,34,35
 500 514 500 514 618 382 c 0,36,37
 736 250 736 250 942 250 c 0,38,39
 1057.01 250 1057.01 250 1161 284 c 0,40,41
 1265.02 318.008 1265.02 318.008 1372 391 c 1,42,-1
 1372 82 l 1,0,1
EndSplineSet
EndChar
StartChar: uni0188
Encoding: 392 392 392
Width: 1214
Flags: W
TeX: 117 0 0 0
AnchorPoint: "above" 733 1147 basechar 0
Fore
1077 1021 m 2,0,-1
 1077 793 l 1,1,2
 1003.99 843.004 1003.99 843.004 930.5 867 c 0,3,4
 857 891 857 891 778 891 c 0,5,6
 628 891 628 891 544.5 803.5 c 0,7,8
 461 716 461 716 461 559 c 0,9,10
 461 402 461 402 544.5 314.5 c 0,11,12
 628 227 628 227 778 227 c 0,13,14
 862.002 227 862.002 227 937.5 252 c 0,15,16
 1012.99 276.999 1012.99 276.999 1077 326 c 1,17,-1
 1077 33 l 1,18,19
 993 1.99995 993 1.99995 906.5 -13.5 c 0,20,21
 820 -29 820 -29 733 -29 c 0,22,23
 430 -29 430 -29 259 126.5 c 0,24,25
 88 282.001 88 282.001 88 559 c 0,26,27
 88 835.997 88 835.997 259 991.5 c 0,28,29
 428.82 1145.93 428.82 1145.93 728.817 1146.99 c 1,30,31
 751.56 1281.73 751.56 1281.73 827 1364.5 c 0,32,33
 935 1483 935 1483 1140 1483 c 2,34,-1
 1317 1483 l 1,35,-1
 1317 1248 l 1,36,-1
 1255 1248 l 2,37,38
 1152.99 1248 1152.99 1248 1115 1202 c 0,39,40
 1077 1155.99 1077 1155.99 1077 1021 c 2,0,-1
EndSplineSet
EndChar
StartChar: uni018A
Encoding: 394 394 394
Width: 1800
Flags: W
TeX: 117 0 0 0
AnchorPoint: "above" 877 1520 basechar 0
Fore
673 1202 m 1,0,-1
 673 291 l 1,1,-1
 811 291 l 2,2,3
 1047 291 1047 291 1171.5 408 c 0,4,5
 1296 525 1296 525 1296 748 c 0,6,7
 1296 970 1296 970 1172 1086 c 0,8,9
 1048 1202 1048 1202 811 1202 c 2,10,-1
 673 1202 l 1,0,-1
288 1231 m 1,11,12
 214.647 1231 214.647 1231 208.739 1230.45 c 0,13,14
 163.558 1226.27 163.558 1226.27 149 1210 c 0,15,16
 118.614 1176.04 118.614 1176.04 115.766 1125.9 c 0,17,18
 115 1112.41 115 1112.41 115 1079 c 1,19,-1
 -140 1079 l 1,20,-1
 -140 1156 l 2,21,22
 -140 1294 -140 1294 -91.8705 1359.26 c 0,23,24
 -74.0089 1383.48 -74.0089 1383.48 -41 1411.5 c 0,25,26
 33.7009 1474.91 33.7009 1474.91 172.48 1488.18 c 0,27,28
 222.878 1493 222.878 1493 288 1493 c 2,29,-1
 694 1493 l 2,30,31
 1034 1493 1034 1493 1200.5 1444.5 c 0,32,33
 1365.86 1396.33 1365.86 1396.33 1486 1280 c 0,34,35
 1591.42 1177.92 1591.42 1177.92 1642 1047 c 0,36,37
 1693 915 1693 915 1693 748 c 0,38,39
 1693 579 1693 579 1642 446.5 c 0,40,41
 1591.15 314.397 1591.15 314.397 1486 213 c 0,42,43
 1365.57 96.8767 1365.57 96.8767 1198 48.5 c 0,44,45
 1030 0.000488281 1030 0.000488281 694 0 c 2,46,-1
 288 0 l 1,47,-1
 288 1231 l 1,11,12
EndSplineSet
EndChar
StartChar: uni018B
Encoding: 395 395 395
Width: 1561
Flags: W
TeX: 117 0 0 0
Fore
806 262 m 2,0,-1
 1032 262 l 1,1,-1
 1032 633 l 1,2,-1
 806 633 l 2,3,4
 684.265 633 684.265 633 631 588 c 0,5,6
 573 540 573 540 573 449 c 0,7,8
 573 356 573 356 631 307 c 0,9,10
 685.183 262 685.183 262 806 262 c 2,0,-1
778 0 m 18,11,12
 495 0 495 0 334 117 c 0,13,14
 188 223.001 188 223.001 188 461 c 0,15,16
 188 700.999 188 700.999 334 807 c 0,17,18
 495 924 495 924 778 924 c 2,19,-1
 1032 924 l 1,20,-1
 1032 1202 l 1,21,-1
 388 1202 l 1,22,-1
 388 1493 l 1,23,-1
 1417 1493 l 1,24,-1
 1417 0 l 1,25,-1
 778 0 l 18,11,12
EndSplineSet
EndChar
StartChar: uni018C
Encoding: 396 396 396
Width: 1466
Flags: W
TeX: 117 0 0 0
Fore
934 956 m 1,0,-1
 934 1265 l 1,1,-1
 265 1265 l 1,2,-1
 265 1556 l 1,3,-1
 1294 1556 l 1,4,-1
 1294 0 l 1,5,-1
 936 0 l 1,6,-1
 936 162 l 1,7,8
 862 64.0005 862 64.0005 772 17.5 c 0,9,10
 682 -29 682 -29 565 -29 c 0,11,12
 358 -29 358 -29 225 135.5 c 0,13,14
 92 300 92 300 92 559 c 0,15,16
 92 818 92 818 225 982.5 c 0,17,18
 357.996 1147 357.996 1147 565 1147 c 0,19,20
 682 1147 682 1147 772 1100.5 c 0,21,22
 858.715 1055.7 858.715 1055.7 934 956 c 1,0,-1
698 231 m 0,23,24
 813 231 813 231 873.5 315 c 0,25,26
 934 399 934 399 934 559 c 0,27,28
 934 719 934 719 873.5 803 c 0,29,30
 813 887 813 887 698 887 c 0,31,32
 584 887 584 887 523.5 803 c 0,33,34
 463 719 463 719 463 559 c 0,35,36
 463 399 463 399 523.5 315 c 0,37,38
 584 231 584 231 698 231 c 0,23,24
EndSplineSet
EndChar
StartChar: uni018D
Encoding: 397 397 397
Width: 1407
Flags: W
TeX: 117 0 0 0
AnchorPoint: "above" 705 1520 basechar 0
Fore
253 -118 m 17,0,1
 374.99 -188 374.99 -188 661 -188 c 0,2,3
 864 -188 864 -188 864 -115 c 0,4,5
 864 -49 864 -49 648 -16 c 0,6,7
 398.979 21.0098 398.979 21.0098 259 133 c 0,8,9
 89 268.004 89 268.004 89 545 c 0,10,11
 89 809.995 89 809.995 253 966 c 0,12,13
 416.995 1123 416.995 1123 704 1123 c 0,14,15
 990 1123 990 1123 1156 966 c 0,16,17
 1320 810 1320 810 1320 535 c 0,18,19
 1320 330 1320 330 1156 166 c 0,20,21
 1105 115.998 1105 115.998 1041 84 c 1,22,23
 1189 5 1189 5 1189 -154 c 0,24,25
 1189 -426 1189 -426 661 -426 c 0,26,27
 395.98 -426 395.98 -426 253 -356 c 1,28,-1
 253 -118 l 17,0,1
789 214 m 1,29,30
 842 236 842 236 884 292 c 0,31,32
 950 379 950 379 950 536 c 0,33,34
 950 693 950 693 884 781 c 0,35,36
 819.001 869 819.001 869 704 869 c 0,37,38
 592 869 592 869 526 780 c 0,39,40
 460 690 460 690 460 544 c 0,41,42
 460 391 460 391 530 317 c 0,43,44
 602.001 239.999 602.001 239.999 701 229 c 0,45,46
 747 224 747 224 789 214 c 1,29,30
EndSplineSet
EndChar
StartChar: uni018E
Encoding: 398 398 398
Width: 1399
Flags: W
TeX: 117 0 0 0
AnchorPoint: "above" 690 1520 basechar 0
Fore
1249 1493 m 1,0,-1
 1249 0 l 1,11,-1
 188 0 l 1,10,-1
 188 291 l 1,9,-1
 864 291 l 1,8,-1
 864 633 l 1,7,-1
 249 633 l 1,6,-1
 249 924 l 1,5,-1
 864 924 l 1,4,-1
 864 1202 l 1,3,-1
 210 1202 l 1,2,-1
 210 1493 l 1,1,-1
 1249 1493 l 1,0,-1
EndSplineSet
EndChar
StartChar: uni018F
Encoding: 399 399 399
Width: 1741
Flags: W
TeX: 117 0 0 0
Fore
1237.65 829 m 8,19,20
 104.884 829 l 17,0,0
 102 381.5 102 381.5 306.5 177 c 128,-1,20
 511 -29 511 -29 870 -29 c 0,18,19
 1230 -29 1230 -29 1434 177 c 128,-1,17
 1638 383 1638 383 1638 745 c 24,6,7
 1638 1106 1638 1106 1416 1313 c 128,-1,8
 1194 1520 1194 1520 808 1520 c 0,9,10
 659 1520 659 1520 522.5 1492 c 128,-1,11
 386 1464 386 1464 265 1409 c 1,12,-1
 265 1100 l 1,13,14
 390 1171 390 1171 513.5 1206 c 128,-1,15
 637 1241 637 1241 761 1241 c 0,16,17
 991 1241 991 1241 1115.5 1112.5 c 128,-1,18
 1237.65 986.421 1237.65 986.421 1237.65 829 c 8,19,20
1224.91 571 m 17,0,0
 1201.49 457.055 1201.49 457.055 1144 380 c 128,-1,8
 1047 250 1047 250 870 250 c 0,6,7
 694 250 694 250 597 380 c 128,-1,5
 539.505 457.056 539.505 457.056 516.089 571 c 9,0,0
 1224.91 571 l 17,0,0
EndSplineSet
EndChar
StartChar: uni0190
Encoding: 400 400 400
Width: 1425
Flags: W
TeX: 117 0 0 0
AnchorPoint: "above" 790 1520 basechar 0
Fore
445 805 m 1,0,1
 310 839 310 839 241 922.5 c 128,-1,2
 172 1006 172 1006 172 1137 c 0,3,4
 172 1329 172 1329 316.5 1424.5 c 128,-1,5
 461 1520 461 1520 752 1520 c 0,6,7
 860 1520 860 1520 972 1504 c 128,-1,8
 1084 1488 1084 1488 1198 1456 c 1,9,-1
 1198 1174 l 1,10,11
 1104 1215 1104 1215 1009 1236 c 128,-1,12
 914 1257 914 1257 821 1257 c 0,13,14
 695 1257 695 1257 626 1210 c 128,-1,15
 557 1163 557 1163 557 1077 c 0,16,17
 557 984 557 984 628 938.5 c 128,-1,18
 699 893 699 893 844 893 c 2,19,-1
 1006 893 l 1,20,-1
 1006 645 l 1,21,-1
 852 645 l 2,22,23
 689 645 689 645 605.5 592.5 c 128,-1,24
 522 540 522 540 522 438 c 0,25,26
 522 339 522 339 603.5 286 c 128,-1,27
 685 233 685 233 838 233 c 0,28,29
 941 233 941 233 1047.5 260.5 c 128,-1,30
 1154 288 1154 288 1262 342 c 1,31,-1
 1262 45 l 1,32,33
 1149 8 1149 8 1033.5 -10.5 c 128,-1,34
 918 -29 918 -29 803 -29 c 0,35,36
 477 -29 477 -29 307 86.5 c 128,-1,37
 137 202 137 202 137 424 c 0,38,39
 137 573 137 573 215.5 669.5 c 128,-1,40
 294 766 294 766 445 805 c 1,0,1
EndSplineSet
EndChar
StartChar: uni0191
Encoding: 401 401 401
Width: 1399
Flags: W
TeX: 117 0 0 0
Fore
188 145 m 2,0,-1
 188 1493 l 1,1,-1
 1227 1493 l 1,2,-1
 1227 1202 l 1,3,-1
 573 1202 l 1,4,-1
 573 924 l 1,5,-1
 1188 924 l 1,6,-1
 1188 633 l 1,7,-1
 573 633 l 1,8,-1
 573 145 l 2,9,10
 573 -134 573 -134 421.5 -272 c 0,11,12
 270 -410 270 -410 -37 -410 c 2,13,-1
 -115 -410 l 1,14,-1
 -115 -119 l 1,15,-1
 -55 -119 l 2,16,17
 65 -119 65 -119 126.5 -52 c 0,18,19
 188 15 188 15 188 145 c 2,0,-1
EndSplineSet
EndChar
StartChar: florin
Encoding: 402 402 402
Width: 1425
Flags: W
Fore
1335 1516 m 1,0,-1
 1335 1262 l 1,1,2
 1289 1291 1289 1291 1247 1305 c 128,-1,3
 1205 1319 1205 1319 1163 1319 c 0,4,5
 1073 1319 1073 1319 1023 1261.5 c 128,-1,6
 973 1204 973 1204 946 1063 c 1,7,-1
 913 895 l 1,8,-1
 1198 895 l 1,9,-1
 1198 657 l 1,10,-1
 866 657 l 1,11,-1
 733 -16 l 1,12,13
 692 -222 692 -222 577.5 -324 c 128,-1,14
 463 -426 463 -426 272 -426 c 0,15,16
 207 -426 207 -426 140.5 -416 c 128,-1,17
 74 -406 74 -406 6 -385 c 1,18,-1
 6 -131 l 1,19,20
 52 -160 52 -160 94.5 -174 c 128,-1,21
 137 -188 137 -188 178 -188 c 0,22,23
 267 -188 267 -188 316.5 -130.5 c 128,-1,24
 366 -73 366 -73 395 68 c 1,25,-1
 512 657 l 1,26,-1
 270 657 l 1,27,-1
 270 895 l 1,28,-1
 559 895 l 1,29,-1
 610 1147 l 2,30,31
 652 1353 652 1353 765.5 1454.5 c 128,-1,32
 879 1556 879 1556 1069 1556 c 0,33,34
 1135 1556 1135 1556 1201 1546 c 128,-1,35
 1267 1536 1267 1536 1335 1516 c 1,0,-1
EndSplineSet
EndChar
StartChar: uni0193
Encoding: 403 403 403
Width: 1681
Flags: W
TeX: 117 0 0 0
AnchorPoint: "above" 930 1520 basechar 0
Fore
1530 111 m 1,0,1
 1386 41.0021 1386 41.0021 1231 6 c 0,2,3
 1076 -29 1076 -29 911 -29 c 0,4,5
 538 -29 538 -29 320 179.5 c 0,6,7
 102 388 102 388 102 745 c 0,8,9
 102 1106 102 1106 324 1313 c 0,10,11
 546 1520 546 1520 932 1520 c 0,12,13
 1022 1520 1022 1520 1107.37 1509.79 c 1,14,15
 1141.3 1662.74 1141.3 1662.74 1241.5 1754 c 0,16,17
 1393 1892 1393 1892 1700 1892 c 2,18,-1
 1778 1892 l 1,19,-1
 1778 1601 l 1,20,-1
 1718 1601 l 2,21,22
 1598 1601 1598 1601 1536.5 1534 c 0,23,24
 1475 1466.99 1475 1466.99 1475 1337 c 2,25,-1
 1475 1100 l 1,26,27
 1349.98 1171.01 1349.98 1171.01 1226.5 1206 c 0,28,29
 1102.99 1241 1102.99 1241 979 1241 c 0,30,31
 748.995 1241 748.995 1241 624.5 1112.5 c 0,32,33
 500 983.995 500 983.995 500 745 c 0,34,35
 500 508 500 508 620 379 c 0,36,37
 740 250 740 250 961 250 c 0,38,39
 1021.01 250 1021.01 250 1072.5 257.5 c 0,40,41
 1124.01 265.003 1124.01 265.003 1165 281 c 1,42,-1
 1165 571 l 1,43,-1
 930 571 l 1,44,-1
 930 829 l 1,45,-1
 1530 829 l 1,46,-1
 1530 111 l 1,0,1
EndSplineSet
EndChar
StartChar: uni0194
Encoding: 404 404 404
Width: 1539
Flags: W
TeX: 0 0 0 0
Fore
768 510 m 1,0,-1
537 762 m 1,1,-1
 39 1493 l 1,2,-1
 441 1493 l 1,3,-1
 768 1012 l 1,4,-1
 1094 1493 l 1,5,-1
 1498 1493 l 1,6,-1
 1000 762 l 1,7,8
 1260.28 380.296 1260.28 380.296 1263 -14 c 0,9,10
 1265.02 -285.237 1265.02 -285.237 760 -290 c 0,11,12
 255.057 -294.857 255.057 -294.857 253 -14 c 0,13,14
 250.173 335.34 250.173 335.34 537 762 c 1,1,-1
768 510 m 1,15,16
 590 245 590 245 590 125.6 c 0,17,18
 591.755 -0.0126953 591.755 -0.0126953 762 0 c 16,19,20
 935 0.0146484 935 0.0146484 935 130 c 0,21,22
 935 278.899 935 278.899 768 510 c 1,15,16
EndSplineSet
EndChar
StartChar: uni0195
Encoding: 405 405 405
Width: 2140
Flags: W
TeX: 117 0 0 0
Fore
938 520 m 2,0,1
 938 667 938 667 931.5 722 c 0,2,3
 925 777 925 777 909 803 c 0,4,5
 888 838 888 838 852 857.5 c 0,6,7
 816 877 816 877 770 877 c 0,8,9
 658 877 658 877 594 790.5 c 0,10,11
 530 704 530 704 530 551 c 2,12,-1
 530 0 l 1,13,-1
 172 0 l 1,14,-1
 172 1556 l 1,15,-1
 530 1556 l 1,16,-1
 530 956 l 1,17,18
 611.007 1054 611.007 1054 702 1100.5 c 0,19,20
 793 1147 793 1147 903 1147 c 0,21,22
 1097 1147 1097 1147 1197.5 1028 c 0,23,24
 1298 909 1298 909 1298 682 c 2,25,-1
 1298 460 l 2,26,27
 1298 291.229 1298 291.229 1307.6 279 c 0,28,29
 1348.74 226.575 1348.74 226.575 1395 231 c 2,30,-1
 1415.9 233 l 2,31,32
 1533.63 233 1533.63 233 1616.35 330 c 0,33,34
 1691.4 418.006 1691.4 418.006 1691.4 560 c 0,35,36
 1691.4 667 1691.4 667 1634.4 782 c 0,37,38
 1593.56 865.985 1593.56 865.985 1509.95 938 c 1,39,-1
 1508 1120 l 1,40,41
 1648.51 1116.73 1648.51 1116.73 1743.43 1075.78 c 0,42,43
 1784.79 1057.93 1784.79 1057.93 1837 1027 c 0,44,45
 1900.22 989.537 1900.22 989.537 1940.65 922.913 c 0,46,47
 1943.8 917.721 1943.8 917.721 1989 835 c 0,48,49
 2048 726.991 2048 726.991 2048 569 c 0,50,51
 2048 315 2048 315 1895 158 c 0,52,53
 1740.99 0 1740.99 0 1498 0 c 2,54,-1
 1361 -2 l 2,55,56
 1159.7 -4.93841 1159.7 -4.93841 1048 116 c 0,57,58
 938 235.83 938 235.83 938 460 c 2,59,-1
 938 520 l 2,0,1
EndSplineSet
EndChar
StartChar: uni0196
Encoding: 406 406 406
Width: 892
Flags: W
TeX: 117 0 0 0
AnchorPoint: "above" 378 1520 basechar 0
Fore
573 1493 m 1,0,-1
 573 555 l 2,1,2
 573 425 573 425 634.5 358 c 0,3,4
 696 291 696 291 816 291 c 2,5,-1
 876 291 l 1,6,-1
 876 0 l 1,7,-1
 798 0 l 2,8,9
 491 0 491 0 339.5 138 c 0,10,11
 188 276 188 276 188 555 c 2,12,-1
 188 1493 l 1,13,-1
 573 1493 l 1,0,-1
EndSplineSet
EndChar
StartChar: uni0197
Encoding: 407 407 407
Width: 797
Flags: W
TeX: 117 0 0 0
AnchorPoint: "above" 378 1520 basechar 0
Fore
201 1493 m 1,0,-1
 586 1493 l 1,1,-1
 586 881 l 1,2,-1
 787 881 l 1,3,-1
 787 621 l 1,4,-1
 586 621 l 1,5,-1
 586 0 l 1,6,-1
 201 0 l 1,7,-1
 201 621 l 1,8,-1
 10 621 l 1,9,-1
 10 881 l 1,10,-1
 201 881 l 1,11,-1
 201 1493 l 1,0,-1
EndSplineSet
EndChar
StartChar: uni0198
Encoding: 408 408 408
Width: 1587
Flags: W
TeX: 117 0 0 0
AnchorPoint: "above" 670 1520 basechar 0
Fore
1732.99 1307.37 m 1,0,-1
 1559 1140 l 1,1,-1
 1525.41 1175.68 l 2,2,3
 1453.42 1252.12 1453.42 1252.12 1392.06 1246.53 c 0,4,5
 1321.42 1240.09 1321.42 1240.09 1219.32 1144.05 c 2,6,-1
 856 786 l 1,7,-1
 1649 0 l 1,8,-1
 1167 0 l 1,9,-1
 573 588 l 1,10,-1
 573 0 l 1,11,-1
 188 0 l 1,12,-1
 188 1493 l 1,13,-1
 573 1493 l 1,14,-1
 573 948 l 1,15,-1
 1058.44 1424.8 l 2,16,17
 1215.35 1572.58 1215.35 1572.58 1340 1579 c 0,18,19
 1461.18 1585.24 1461.18 1585.24 1589.85 1453.71 c 2,20,-1
 1732.99 1307.37 l 1,0,-1
EndSplineSet
EndChar
StartChar: uni0199
Encoding: 409 409 409
Width: 1362
Flags: W
TeX: 117 0 0 0
AnchorPoint: "above" 356 1520 basechar 0
Fore
530 709 m 1,0,-1
 942 1120 l 1,1,-1
 1358 1120 l 1,2,-1
 811 606 l 1,3,-1
 1401 0 l 1,4,-1
 967 0 l 1,5,-1
 530 467 l 1,6,-1
 530 0 l 1,7,-1
 172 0 l 1,8,-1
 172 1094 l 2,9,10
 172 1317 172 1317 282 1438 c 0,11,12
 390 1556 390 1556 595 1556 c 2,13,-1
 876 1556 l 1,14,-1
 876 1321 l 1,15,-1
 710 1321 l 2,16,17
 609.868 1321 609.868 1321 570 1275 c 0,18,19
 530 1228.85 530 1228.85 530 1094 c 2,20,-1
 530 709 l 1,0,-1
EndSplineSet
EndChar
StartChar: uni019A
Encoding: 410 410 410
Width: 738
Flags: W
TeX: 117 0 0 0
AnchorPoint: "above" 377 1520 basechar 0
Fore
193 1556 m 1,0,-1
 551 1556 l 1,1,-1
 551 881 l 1,2,-1
 728 881 l 1,3,-1
 728 621 l 1,4,-1
 551 621 l 1,5,-1
 551 0 l 1,6,-1
 193 0 l 1,7,-1
 193 621 l 1,8,-1
 10 621 l 1,9,-1
 10 881 l 1,10,-1
 193 881 l 1,11,-1
 193 1556 l 1,0,-1
EndSplineSet
EndChar
StartChar: uni019B
Encoding: 411 411 411
Width: 1212
Flags: W
TeX: 117 0 0 0
AnchorPoint: "above" 601 1520 basechar 0
Fore
61 0 m 1,0,-1
 410 1020 l 1,1,-1
 332.667 1229.35 l 1,2,-1
 15 1128 l 1,3,-1
 -22 1257 l 1,4,-1
 286.606 1354.04 l 1,5,-1
 212 1556 l 1,6,-1
 570 1556 l 1,7,-1
 607.892 1454.52 l 1,8,-1
 936 1554 l 1,9,-1
 971 1425 l 1,10,-1
 654.946 1328.5 l 1,11,-1
 1151 0 l 1,12,-1
 793 0 l 1,13,-1
 601 514 l 1,14,-1
 419 0 l 1,15,-1
 61 0 l 1,0,-1
EndSplineSet
EndChar
StartChar: uni019D
Encoding: 413 413 413
Width: 1714
Flags: W
TeX: 117 0 0 0
AnchorPoint: "above" 879 1520 basechar 0
Fore
188 145 m 2,0,-1
 188 1493 l 1,1,-1
 618 1493 l 1,2,-1
 1161 469 l 1,3,-1
 1161 1493 l 1,4,-1
 1526 1493 l 1,5,-1
 1526 0 l 1,6,-1
 1096 0 l 1,7,-1
 553 1024 l 1,8,-1
 553 145 l 2,9,10
 553 -97.3015 553 -97.3015 471.038 -215.441 c 0,11,12
 449.482 -246.511 449.482 -246.511 421.5 -272 c 0,13,14
 270 -410 270 -410 -37 -410 c 2,15,-1
 -115 -410 l 1,16,-1
 -115 -119 l 1,17,-1
 -55 -119 l 2,18,19
 65 -119 65 -119 126.5 -52 c 0,20,21
 188 15 188 15 188 145 c 2,0,-1
EndSplineSet
EndChar
StartChar: uni01A4
Encoding: 420 420 420
Width: 1601
Flags: W
TeX: 117 0 0 0
AnchorPoint: "above" 877 1520 basechar 0
Fore
673 1214 m 1,0,-1
 673 797 l 1,1,-1
 886 797 l 2,2,3
 997.999 797 997.999 797 1059 851.5 c 0,4,5
 1120 906 1120 906 1120 1006 c 0,6,7
 1120 1106 1120 1106 1059 1160 c 0,8,9
 998 1214 998 1214 886 1214 c 2,10,-1
 673 1214 l 1,0,-1
288 1231 m 1,11,12
 214.647 1231 214.647 1231 208.739 1230.45 c 0,13,14
 163.558 1226.27 163.558 1226.27 149 1210 c 0,15,16
 118.614 1176.04 118.614 1176.04 115.766 1125.9 c 0,17,18
 115 1112.41 115 1112.41 115 1079 c 1,19,-1
 -140 1079 l 1,20,-1
 -140 1156 l 2,21,22
 -140 1294 -140 1294 -91.8705 1359.26 c 0,23,24
 -74.0089 1383.48 -74.0089 1383.48 -41 1411.5 c 0,25,26
 33.7009 1474.91 33.7009 1474.91 172.48 1488.18 c 0,27,28
 222.878 1493 222.878 1493 288 1493 c 2,29,-1
 927 1493 l 2,30,31
 1212 1493 1212 1493 1364.5 1366.5 c 0,32,33
 1517 1240 1517 1240 1517 1006 c 0,34,35
 1517 771 1517 771 1364.5 644.5 c 0,36,37
 1212 518 1212 518 927 518 c 2,38,-1
 673 518 l 1,39,-1
 673 0 l 1,40,-1
 288 0 l 1,41,-1
 288 1231 l 1,11,12
EndSplineSet
EndChar
StartChar: uni01A5
Encoding: 421 421 421
Width: 1466
Flags: W
TeX: 117 0 0 0
Fore
530 1198 m 2,0,-1
 530 956 l 1,1,2
 604.005 1054 604.005 1054 694 1100.5 c 0,3,4
 784 1147 784 1147 901 1147 c 0,5,6
 1108 1147 1108 1147 1241 982.5 c 0,7,8
 1374 818.004 1374 818.004 1374 559 c 0,9,10
 1374 299.994 1374 299.994 1241 135.5 c 0,11,12
 1107.99 -29 1107.99 -29 901 -29 c 0,13,14
 784 -29 784 -29 694 17.5 c 0,15,16
 604 64 604 64 530 162 c 1,17,-1
 530 -426 l 1,18,-1
 172 -426 l 1,19,-1
 172 1198 l 2,20,21
 172 1366.5 172 1366.5 274 1468.5 c 0,22,23
 361.5 1556 361.5 1556 590 1556 c 2,24,-1
 864 1556 l 1,25,-1
 864 1321 l 1,26,-1
 666 1321 l 2,27,28
 590.006 1321 590.006 1321 560 1293.5 c 0,29,30
 530 1266.01 530 1266.01 530 1198 c 2,0,-1
768 887 m 0,31,32
 653 887 653 887 591.5 802.5 c 0,33,34
 530 718 530 718 530 559 c 0,35,36
 530 400 530 400 591.5 315.5 c 0,37,38
 653 231 653 231 768 231 c 0,39,40
 883 231 883 231 943.5 315 c 0,41,42
 1004 399 1004 399 1004 559 c 0,43,44
 1004 719 1004 719 943.5 803 c 0,45,46
 883 887 883 887 768 887 c 0,31,32
EndSplineSet
EndChar
StartChar: uni01A7
Encoding: 423 423 423
Width: 1475
Flags: W
TeX: 117 0 0 0
AnchorPoint: "above" 703 1520 basechar 0
Fore
151 1446 m 1,0,-1
 151 1130 l 1,1,2
 274 1185 274 1185 391 1213 c 128,-1,3
 508 1241 508 1241 612 1241 c 0,4,5
 750 1241 750 1241 816 1203 c 128,-1,6
 882 1165 882 1165 882 1085 c 0,7,8
 882 1025 882 1025 837.5 991.5 c 128,-1,9
 793 958 793 958 676 934 c 2,10,-1
 512 901 l 2,11,12
 263 851 263 851 158 749 c 128,-1,13
 53 647 53 647 53 459 c 0,14,15
 53 212 53 212 199.5 91.5 c 128,-1,16
 346 -29 346 -29 647 -29 c 0,17,18
 789 -29 789 -29 932 -2 c 128,-1,19
 1075 25 1075 25 1218 78 c 1,20,-1
 1218 403 l 1,21,22
 1075 327 1075 327 941.5 288.5 c 128,-1,23
 808 250 808 250 684 250 c 0,24,25
 558 250 558 250 491 292 c 128,-1,26
 424 334 424 334 424 412 c 0,27,28
 424 482 424 482 469.5 520 c 128,-1,29
 515 558 515 558 651 588 c 2,30,-1
 800 621 l 2,31,32
 1024 669 1024 669 1127.5 774 c 128,-1,33
 1231 879 1231 879 1231 1057 c 0,34,35
 1231 1280 1231 1280 1087 1400 c 128,-1,36
 943 1520 943 1520 673 1520 c 0,37,38
 550 1520 550 1520 420 1501.5 c 128,-1,39
 290 1483 290 1483 151 1446 c 1,0,-1
EndSplineSet
EndChar
StartChar: uni01A8
Encoding: 424 424 424
Width: 1219
Flags: W
TeX: 117 0 0 0
AnchorPoint: "above" 602 1147 basechar 0
Fore
106 1085 m 1,0,-1
 106 813 l 1,1,2
 221 861 221 861 328 885 c 128,-1,3
 435 909 435 909 530 909 c 0,4,5
 632 909 632 909 681.5 883.5 c 128,-1,6
 731 858 731 858 731 805 c 0,7,8
 731 762 731 762 693.5 739 c 128,-1,9
 656 716 656 716 559 705 c 1,10,-1
 496 696 l 2,11,12
 221 661 221 661 126 581 c 128,-1,13
 31 501 31 501 31 330 c 0,14,15
 31 151 31 151 163 61 c 128,-1,16
 295 -29 295 -29 557 -29 c 0,17,18
 668 -29 668 -29 786.5 -11.5 c 128,-1,19
 905 6 905 6 1030 41 c 1,20,-1
 1030 313 l 1,21,22
 923 261 923 261 810.5 235 c 128,-1,23
 698 209 698 209 582 209 c 0,24,25
 477 209 477 209 424 238 c 128,-1,26
 371 267 371 267 371 324 c 0,27,28
 371 372 371 372 407.5 395.5 c 128,-1,29
 444 419 444 419 553 432 c 2,30,-1
 616 440 l 2,31,32
 855 470 855 470 951 551 c 128,-1,33
 1047 632 1047 632 1047 797 c 0,34,35
 1047 975 1047 975 925 1061 c 128,-1,36
 803 1147 803 1147 551 1147 c 0,37,38
 452 1147 452 1147 343 1132 c 128,-1,39
 234 1117 234 1117 106 1085 c 1,0,-1
EndSplineSet
EndChar
StartChar: uni01AB
Encoding: 427 427 427
Width: 979
Flags: W
TeX: 117 0 0 0
AnchorPoint: "above" 394 1520 basechar 0
Fore
563 1438 m 1,0,-1
 563 1120 l 1,1,-1
 932 1120 l 1,2,-1
 932 864 l 1,3,-1
 563 864 l 1,4,-1
 563 389 l 2,5,6
 563 311 563 311 594 283.5 c 0,7,8
 625 256 625 256 717 256 c 2,9,-1
 901 256 l 1,10,-1
 900.782 -5.4904e-16 l 2,11,12
 896.148 -210.324 896.148 -210.324 793 -323.5 c 0,13,14
 685 -442 685 -442 480 -442 c 2,15,-1
 303 -442 l 1,16,-1
 303 -207 l 1,17,-1
 365 -207 l 2,18,19
 467.001 -207 467.001 -207 505 -161 c 0,20,21
 540.318 -118.245 540.318 -118.245 542.811 1.38952 c 1,22,23
 370.911 11.0893 370.911 11.0893 293.5 88.5 c 0,24,25
 205 177 205 177 205 389 c 2,26,-1
 205 864 l 1,27,-1
 27 864 l 1,28,-1
 27 1120 l 1,29,-1
 205 1120 l 1,30,-1
 205 1438 l 1,31,-1
 563 1438 l 1,0,-1
EndSplineSet
EndChar
StartChar: uni01AC
Encoding: 428 428 428
Width: 1447
Flags: W
TeX: 117 0 0 0
AnchorPoint: "above" 761 1520 basechar 0
Fore
644 1493 m 1,0,-1
 1436 1493 l 1,1,-1
 1436 1202 l 1,2,-1
 941 1202 l 1,3,-1
 941 0 l 1,4,-1
 556 0 l 1,5,-1
 556 1202 l 1,6,-1
 553 1202 l 2,7,8
 400.006 1202 400.006 1202 351.5 1164 c 0,9,10
 303 1126 303 1126 303 1021 c 2,11,-1
 303 972 l 1,12,-1
 30 972 l 1,13,-1
 30 1149 l 2,14,15
 30 1330.01 30 1330.01 126 1411.5 c 0,16,17
 222.006 1493 222.006 1493 436 1493 c 2,18,-1
 644 1493 l 1,0,-1
EndSplineSet
EndChar
StartChar: uni01AD
Encoding: 429 429 429
Width: 979
Flags: W
TeX: 117 0 0 0
AnchorPoint: "above" 382 1755 basechar 0
Fore
563 1433 m 2,0,-1
 563 1120 l 1,1,-1
 932 1120 l 1,2,-1
 932 864 l 1,3,-1
 563 864 l 1,4,-1
 563 389 l 2,5,6
 563 311 563 311 594 283.5 c 0,7,8
 625 256 625 256 717 256 c 2,9,-1
 901 256 l 1,10,-1
 901 0 l 1,11,-1
 594 0 l 2,12,13
 382 0 382 0 293.5 88.5 c 0,14,15
 205 177 205 177 205 389 c 2,16,-1
 205 864 l 1,17,-1
 27 864 l 1,18,-1
 27 1120 l 1,19,-1
 205 1120 l 1,20,-1
 205 1433 l 2,21,22
 205 1601.5 205 1601.5 307 1703.5 c 0,23,24
 394.5 1791 394.5 1791 623 1791 c 2,25,-1
 897 1791 l 1,26,-1
 897 1556 l 1,27,-1
 699 1556 l 2,28,29
 623.006 1556 623.006 1556 593 1528.5 c 0,30,31
 563 1501.01 563 1501.01 563 1433 c 2,0,-1
EndSplineSet
EndChar
StartChar: uni01AE
Encoding: 430 430 430
Width: 1397
Flags: W
TeX: 117 0 0 0
AnchorPoint: "above" 711 1520 basechar 0
Fore
506 1202 m 1,0,-1
 10 1202 l 1,1,-1
 10 1493 l 1,2,-1
 1386 1493 l 1,3,-1
 1386 1202 l 1,4,-1
 891 1202 l 1,5,-1
 891 145 l 2,6,7
 891 15.0005 891 15.0005 952.5 -52 c 0,8,9
 1014 -119.001 1014 -119.001 1134 -119 c 2,10,-1
 1194 -119 l 1,11,-1
 1194 -410 l 1,12,-1
 1116 -410 l 2,13,14
 809 -410 809 -410 657.5 -272 c 0,15,16
 506 -134 506 -134 506 145 c 2,17,-1
 506 1202 l 1,0,-1
EndSplineSet
EndChar
StartChar: uni01B1
Encoding: 433 433 433
Width: 1575
Flags: W
TeX: 117 0 0 0
Fore
1227 1224 m 1,0,-1
 1518 1224 l 1,1,-1
 1518 1480 l 1,2,-1
 909 1480 l 1,3,-1
 909 1189 l 1,4,5
 1035 1103 1035 1103 1101 971.5 c 0,6,7
 1167 840 1167 840 1167 675 c 0,8,9
 1167 472 1167 472 1065.5 355.5 c 0,10,11
 964.004 239 964.004 239 786 239 c 0,12,13
 608.996 239 608.996 239 507.5 355.5 c 0,14,15
 406 472 406 472 406 675 c 0,16,17
 406 839 406 839 472 971.5 c 0,18,19
 538 1104 538 1104 664 1189 c 1,20,-1
 664 1480 l 1,21,-1
 55 1480 l 1,22,-1
 55 1224 l 1,23,-1
 346 1224 l 1,24,25
 220 1103 220 1103 159 964 c 0,26,27
 97.999 825 97.999 825 98 661 c 0,28,29
 98 348.01 98 348.01 286 159.5 c 0,30,31
 473.994 -29 473.994 -29 786 -29 c 0,32,33
 1099.01 -29 1099.01 -29 1287 159.5 c 0,34,35
 1475 348.01 1475 348.01 1475 661 c 0,36,37
 1475 825.011 1475 825.011 1414 964 c 0,38,39
 1352.99 1103.01 1352.99 1103.01 1227 1224 c 1,0,-1
EndSplineSet
EndChar
StartChar: uni01B5
Encoding: 437 437 437
Width: 1485
Flags: W
TeX: 117 0 0 0
AnchorPoint: "above" 717 1520 basechar 0
Fore
115 1493 m 1,0,-1
 1370 1493 l 1,1,-1
 1370 1260 l 1,2,-1
 1056.71 881 l 1,3,-1
 1251 881 l 1,4,-1
 1251 621 l 1,5,-1
 841.786 621 l 1,6,-1
 569 291 l 1,7,-1
 1393 291 l 1,8,-1
 1393 0 l 1,9,-1
 92 0 l 1,10,-1
 92 233 l 1,11,-1
 412.731 621 l 1,12,-1
 234 621 l 1,13,-1
 234 881 l 1,14,-1
 627.653 881 l 1,15,-1
 893 1202 l 1,16,-1
 115 1202 l 1,17,-1
 115 1493 l 1,0,-1
EndSplineSet
EndChar
StartChar: uni01B6
Encoding: 438 438 438
Width: 1192
Flags: W
TeX: 117 0 0 0
AnchorPoint: "above" 596 1147 basechar 0
Fore
117 1120 m 1,0,-1
 1094 1120 l 1,1,-1
 1094 870 l 1,2,-1
 913.349 682 l 1,3,-1
 1037 682 l 1,4,-1
 1037 461 l 1,5,-1
 700.987 461 l 1,6,-1
 504 256 l 1,7,-1
 1094 256 l 1,8,-1
 1094 0 l 1,9,-1
 92 0 l 1,10,-1
 92 250 l 1,11,-1
 294.752 461 l 1,12,-1
 178 461 l 1,13,-1
 178 682 l 1,14,-1
 507.114 682 l 1,15,-1
 682 864 l 1,16,-1
 117 864 l 1,17,-1
 117 1120 l 1,0,-1
EndSplineSet
EndChar
StartChar: uni01BB
Encoding: 443 443 443
Width: 1425
Flags: W
TeX: 117 0 0 0
Fore
590 283 m 1,0,-1
 1247 283 l 1,1,-1
 1247 0 l 1,2,-1
 162 0 l 1,3,-1
 162 283 l 1,4,-1
 459.994 546 l 1,5,-1
 234 546 l 1,6,-1
 234 806 l 1,7,-1
 749.892 806 l 1,8,9
 791.216 850.19 791.216 850.19 815 893 c 0,10,11
 850 956 850 956 850 1024 c 0,12,13
 850 1128.99 850 1128.99 779.5 1193 c 0,14,15
 709.006 1257 709.006 1257 592 1257 c 0,16,17
 501.985 1257 501.985 1257 395 1218.5 c 0,18,19
 287.96 1179.98 287.96 1179.98 166 1104 c 1,20,-1
 166 1432 l 1,21,22
 295.969 1474.99 295.969 1474.99 423 1497.5 c 0,23,24
 550 1520 550 1520 672 1520 c 0,25,26
 940.006 1520 940.006 1520 1088.5 1402 c 0,27,28
 1237 1283.99 1237 1283.99 1237 1073 c 0,29,30
 1237 951 1237 951 1174 845.5 c 0,31,32
 1162.81 826.767 1162.81 826.767 1147.39 806 c 1,33,-1
 1174 806 l 1,34,-1
 1174 546 l 1,35,-1
 889.632 546 l 1,36,-1
 590 283 l 1,0,-1
EndSplineSet
EndChar
StartChar: uni01C0
Encoding: 448 448 448
Width: 762
Flags: W
TeX: 117 0 0 0
Fore
188 1493 m 1,0,-1
 573 1493 l 1,1,-1
 573 -426 l 1,2,-1
 188 -426 l 1,3,-1
 188 1493 l 1,0,-1
EndSplineSet
EndChar
StartChar: uni01C2
Encoding: 450 450 450
Width: 1114
Flags: W
TeX: 117 0 0 0
Fore
361 1493 m 1,0,-1
 746 1493 l 1,1,-1
 746 933 l 1,2,-1
 1097 933 l 1,3,-1
 1097 698 l 1,4,-1
 746 698 l 1,5,-1
 746 478 l 1,6,-1
 1097 478 l 1,7,-1
 1097 241 l 1,8,-1
 746 241 l 1,9,-1
 746 -426 l 1,10,-1
 361 -426 l 1,11,-1
 361 241 l 1,12,-1
 10 241 l 1,13,-1
 10 478 l 1,14,-1
 361 478 l 1,15,-1
 361 698 l 1,16,-1
 10 698 l 1,17,-1
 10 933 l 1,18,-1
 361 933 l 1,19,-1
 361 1493 l 1,0,-1
EndSplineSet
EndChar
StartChar: dotlessj
Encoding: 567 567 567
Width: 702
Flags: W
AnchorPoint: "above" 351 1147 basechar 0
Fore
172 1120 m 1,0,-1
 530 1120 l 1,1,-1
 530 20 l 2,2,3
 530 -205 530 -205 422 -323.5 c 128,-1,4
 314 -442 314 -442 109 -442 c 2,5,-1
 -68 -442 l 1,6,-1
 -68 -207 l 1,7,-1
 -6 -207 l 2,8,9
 96 -207 96 -207 134 -161 c 128,-1,10
 172 -115 172 -115 172 20 c 2,11,-1
 172 1120 l 1,0,-1
EndSplineSet
EndChar
StartChar: uni0238
Encoding: 568 568 568
Width: 2228
Flags: W
TeX: 117 0 0 0
Fore
698 231 m 0,0,1
 813 231 813 231 873.5 315 c 0,2,3
 934 399 934 399 934 559 c 0,4,5
 934 719 934 719 873.5 803 c 0,6,7
 813 887 813 887 698 887 c 0,8,9
 584 887 584 887 523.5 803 c 0,10,11
 463 719 463 719 463 559 c 0,12,13
 463 399 463 399 523.5 315 c 0,14,15
 584 231 584 231 698 231 c 0,0,1
1530 231 m 0,16,17
 1645 231 1645 231 1705.5 315 c 0,18,19
 1766 399 1766 399 1766 559 c 0,20,21
 1766 719 1766 719 1705.5 803 c 0,22,23
 1645 887 1645 887 1530 887 c 0,24,25
 1415 887 1415 887 1353.5 802.5 c 0,26,27
 1303.09 733.239 1303.09 733.239 1294 613.923 c 2,28,-1
 1294 504.077 l 2,29,30
 1303.09 384.762 1303.09 384.762 1353.5 315.5 c 0,31,32
 1415 231 1415 231 1530 231 c 0,16,17
1292 1556 m 1,33,-1
 1294 1556 l 1,34,-1
 1294 958.635 l 1,35,36
 1367.21 1054.63 1367.21 1054.63 1456 1100.5 c 0,37,38
 1546 1147 1546 1147 1663 1147 c 0,39,40
 1870 1147 1870 1147 2003 982.5 c 0,41,42
 2136 818 2136 818 2136 559 c 0,43,44
 2136 300 2136 300 2003 135.5 c 0,45,46
 1870 -29.0005 1870 -29.0005 1663 -29 c 0,47,48
 1546 -29 1546 -29 1456 17.5 c 0,49,50
 1367.21 63.3727 1367.21 63.3727 1294 159.365 c 1,51,-1
 1294 0 l 1,52,-1
 1292 0 l 1,53,-1
 934 0 l 1,54,-1
 934 162 l 1,55,56
 860 63 860 63 771 17 c 0,57,58
 682 -29 682 -29 565 -29 c 0,59,60
 358 -29 358 -29 225 135.5 c 0,61,62
 92 300 92 300 92 559 c 0,63,64
 92 818 92 818 225 982.5 c 0,65,66
 358 1147 358 1147 565 1147 c 0,67,68
 681 1147 681 1147 770.5 1100.5 c 0,69,70
 860 1054 860 1054 934 956 c 1,71,-1
 934 1556 l 1,72,-1
 1292 1556 l 1,33,-1
EndSplineSet
EndChar
StartChar: uni0239
Encoding: 569 569 569
Width: 2228
Flags: W
TeX: 117 0 0 0
Fore
698 887 m 0,0,1
 584 887 584 887 523.5 803 c 0,2,3
 463 719 463 719 463 559 c 0,4,5
 463 399 463 399 523.5 315 c 0,6,7
 584 231 584 231 698 231 c 0,8,9
 813 231 813 231 873.5 315 c 0,10,11
 934 399 934 399 934 559 c 0,12,13
 934 719 934 719 873.5 803 c 0,14,15
 813 887 813 887 698 887 c 0,0,1
1530 887 m 0,16,17
 1415 887 1415 887 1353.5 802.5 c 0,18,19
 1303.09 733.239 1303.09 733.239 1294 613.923 c 2,20,-1
 1294 504.077 l 2,21,22
 1303.09 384.762 1303.09 384.762 1353.5 315.5 c 0,23,24
 1415 231 1415 231 1530 231 c 0,25,26
 1645 231 1645 231 1705.5 315 c 0,27,28
 1766 399 1766 399 1766 559 c 0,29,30
 1766 719 1766 719 1705.5 803 c 0,31,32
 1645 887 1645 887 1530 887 c 0,16,17
1294 159.365 m 1,33,-1
 1294 -426 l 1,34,-1
 1292 -426 l 1,35,-1
 934 -426 l 1,36,-1
 934 162 l 1,37,38
 860 63 860 63 771 17 c 0,39,40
 682 -29 682 -29 565 -29 c 0,41,42
 358 -29 358 -29 225 135.5 c 0,43,44
 92 300 92 300 92 559 c 0,45,46
 92 818 92 818 225 981.5 c 0,47,48
 358 1145 358 1145 565 1145 c 0,49,50
 682 1145 682 1145 771 1099 c 0,51,52
 860 1053 860 1053 934 954 c 1,53,-1
 934 1120 l 1,54,-1
 1292 1120 l 1,55,-1
 1294 1120 l 1,56,-1
 1294 958.635 l 1,57,58
 1367.21 1054.63 1367.21 1054.63 1456 1100.5 c 0,59,60
 1546 1147 1546 1147 1663 1147 c 0,61,62
 1870 1147 1870 1147 2003 982.5 c 0,63,64
 2136 818 2136 818 2136 559 c 0,65,66
 2136 300 2136 300 2003 135.5 c 0,67,68
 1870 -29.0005 1870 -29.0005 1663 -29 c 0,69,70
 1546 -29 1546 -29 1456 17.5 c 0,71,72
 1367.21 63.3727 1367.21 63.3727 1294 159.365 c 1,33,-1
EndSplineSet
EndChar
StartChar: uni0250
Encoding: 592 592 592
Width: 1382
Flags: W
AnchorPoint: "above" 698 1147 basechar 0
Fore
635 614 m 2,0,1
 747 614 747 614 803.5 652 c 128,-1,2
 860 690 860 690 860 764 c 0,3,4
 860 832 860 832 814.5 870.5 c 128,-1,5
 769 909 769 909 688 909 c 0,6,7
 587 909 587 909 518 836.5 c 128,-1,8
 449 764 449 764 449 655 c 2,9,-1
 449 614 l 1,10,-1
 635 614 l 2,0,1
88 479 m 2,11,-1
 88 1118 l 1,12,-1
 449 1118 l 1,13,-1
 449 952 l 1,14,15
 521 1054 521 1054 611 1100.5 c 128,-1,16
 701 1147 701 1147 830 1147 c 0,17,18
 1004 1147 1004 1147 1112.5 1045.5 c 128,-1,19
 1221 944 1221 944 1221 782 c 0,20,21
 1221 585 1221 585 1085.5 493 c 128,-1,22
 950 401 950 401 660 401 c 2,23,-1
 449 401 l 1,24,-1
 449 373 l 2,25,26
 449 288 449 288 516 248.5 c 128,-1,27
 583 209 583 209 725 209 c 0,28,29
 840 209 840 209 939 232 c 128,-1,30
 1038 255 1038 255 1123 301 c 1,31,-1
 1123 28 l 1,32,33
 1008 0 1008 0 892 -14.5 c 128,-1,34
 776 -29 776 -29 660 -29 c 0,35,36
 357 -29 357 -29 222.5 90.5 c 128,-1,37
 88 210 88 210 88 479 c 2,11,-1
EndSplineSet
EndChar
StartChar: uni0251
Encoding: 593 593 593
Width: 1466
Flags: W
TeX: 0 0 0 0
AnchorPoint: "above" 698 1147 basechar 0
Fore
934 956 m 1,0,-1
 934 1120 l 1,1,-1
 1294 1120 l 1,2,-1
 1294 0 l 1,3,-1
 934 0 l 1,4,-1
 934 162 l 1,5,6
 860 63 860 63 771 17 c 128,-1,7
 682 -29 682 -29 565 -29 c 0,8,9
 358 -29 358 -29 225 135.5 c 128,-1,10
 92 300 92 300 92 559 c 0,11,12
 92 818 92 818 225 982.5 c 128,-1,13
 358 1147 358 1147 565 1147 c 0,14,15
 681 1147 681 1147 770.5 1100.5 c 128,-1,16
 860 1054 860 1054 934 956 c 1,0,-1
698 231 m 0,17,18
 813 231 813 231 873.5 315 c 128,-1,19
 934 399 934 399 934 559 c 0,20,21
 934 719 934 719 873.5 803 c 128,-1,22
 813 887 813 887 698 887 c 0,23,24
 584 887 584 887 523.5 803 c 128,-1,25
 463 719 463 719 463 559 c 0,26,27
 463 399 463 399 523.5 315 c 128,-1,28
 584 231 584 231 698 231 c 0,17,18
EndSplineSet
EndChar
StartChar: uni0252
Encoding: 594 594 594
Width: 1466
Flags: W
TeX: 0 0 0 0
AnchorPoint: "above" 698 1147 basechar 0
Fore
452 162 m 1,0,-1
 452 -2 l 1,1,-1
 92 -2 l 1,2,-1
 92 1118 l 1,3,-1
 452 1118 l 1,4,-1
 452 956 l 1,5,6
 526 1055 526 1055 615 1101 c 128,-1,7
 704 1147 704 1147 821 1147 c 0,8,9
 1028 1147 1028 1147 1161 982.5 c 128,-1,10
 1294 818 1294 818 1294 559 c 0,11,12
 1294 300 1294 300 1161 135.5 c 128,-1,13
 1028 -29 1028 -29 821 -29 c 0,14,15
 705 -29 705 -29 615.5 17.5 c 128,-1,16
 526 64 526 64 452 162 c 1,0,-1
688 887 m 0,17,18
 573 887 573 887 512.5 803 c 128,-1,19
 452 719 452 719 452 559 c 0,20,21
 452 399 452 399 512.5 315 c 128,-1,22
 573 231 573 231 688 231 c 0,23,24
 802 231 802 231 862.5 315 c 128,-1,25
 923 399 923 399 923 559 c 0,26,27
 923 719 923 719 862.5 803 c 128,-1,28
 802 887 802 887 688 887 c 0,17,18
EndSplineSet
EndChar
StartChar: uni0253
Encoding: 595 595 595
Width: 1466
Flags: W
TeX: 0 0 0 0
AnchorPoint: "above" 356 1520 basechar 0
Fore
768 231 m 0,0,1
 883 231 883 231 943.5 315 c 0,2,3
 1004 399 1004 399 1004 559 c 0,4,5
 1004 719 1004 719 943.5 803 c 0,6,7
 883 887 883 887 768 887 c 0,8,9
 653 887 653 887 591.5 802.5 c 0,10,11
 530 718 530 718 530 559 c 0,12,13
 530 400 530 400 591.5 315.5 c 0,14,15
 653 231 653 231 768 231 c 0,0,1
532 958.635 m 1,16,17
 605.214 1054.63 605.214 1054.63 694 1100.5 c 0,18,19
 784 1147 784 1147 901 1147 c 0,20,21
 1108 1147 1108 1147 1241 982.5 c 0,22,23
 1374 818 1374 818 1374 559 c 0,24,25
 1374 300 1374 300 1241 135.5 c 0,26,27
 1108 -29 1108 -29 901 -29 c 0,28,29
 784 -29 784 -29 694 17.5 c 0,30,31
 604 64 604 64 530 162 c 1,32,-1
 530 0 l 1,33,-1
 172 0 l 1,34,-1
 172 1094 l 2,35,36
 172 1317 172 1317 282 1438 c 0,37,38
 390 1556 390 1556 595 1556 c 2,39,-1
 876 1556 l 1,40,-1
 876 1321 l 1,41,-1
 710 1321 l 2,42,43
 608 1321 608 1321 570 1275 c 0,44,45
 532 1229 532 1229 532 1094 c 2,46,-1
 532 958.635 l 1,16,17
EndSplineSet
EndChar
StartChar: uni0254
Encoding: 596 596 596
Width: 1214
Flags: W
AnchorPoint: "above" 441 1147 basechar 0
Fore
88 1085 m 1,0,1
 173 1116 173 1116 258.5 1131.5 c 128,-1,2
 344 1147 344 1147 432 1147 c 0,3,4
 735 1147 735 1147 906 991.5 c 128,-1,5
 1077 836 1077 836 1077 559 c 128,-1,6
 1077 282 1077 282 906 126.5 c 128,-1,7
 735 -29 735 -29 432 -29 c 0,8,9
 345 -29 345 -29 258.5 -13.5 c 128,-1,10
 172 2 172 2 88 33 c 1,11,-1
 88 326 l 1,12,13
 152 277 152 277 227.5 252 c 128,-1,14
 303 227 303 227 387 227 c 0,15,16
 537 227 537 227 620.5 314.5 c 128,-1,17
 704 402 704 402 704 559 c 128,-1,18
 704 716 704 716 620.5 803.5 c 128,-1,19
 537 891 537 891 387 891 c 0,20,21
 308 891 308 891 234.5 867 c 128,-1,22
 161 843 161 843 88 793 c 1,23,-1
 88 1085 l 1,0,1
EndSplineSet
EndChar
StartChar: uni0255
Encoding: 597 597 597
Width: 1214
Flags: W
TeX: 0 0 0 0
AnchorPoint: "above" 733 1147 basechar 0
Fore
661 232 m 1,0,1
 718 208 718 208 772 207 c 2,2,-1
 777 207 l 2,3,4
 924 207 924 207 923 264 c 0,5,6
 922 339 922 339 791 339 c 0,7,8
 708 339 708 339 661 232 c 1,0,1
1077 1085 m 1,9,-1
 1077 793 l 1,10,11
 1004 843 1004 843 930 867 c 0,12,13
 857 891 857 891 778 891 c 0,14,15
 628 891 628 891 544 804 c 0,16,17
 461 716 461 716 461 559 c 0,18,19
 461 436 461 436 512 356 c 1,20,21
 614 532 614 532 781 532 c 0,22,23
 1067 527 1067 527 1070 294 c 0,24,25
 1075 -29 1075 -29 760 -29 c 2,26,-1
 737 -29 l 2,27,28
 733 -29 l 0,29,30
 729 -29 729 -29 726 -29 c 0,31,32
 657 -29 657 -29 654 -28 c 0,33,34
 651 -28 651 -28 648 -27 c 1,35,-1
 648 -141 l 1,36,-1
 448 -140 l 1,37,38
 448 -53 448 -53 449 15 c 1,39,40
 339 53 339 53 259 126 c 0,41,42
 88 282 88 282 88 559 c 0,43,44
 88 836 88 836 259 992 c 0,45,46
 430 1147 430 1147 733 1147 c 0,47,48
 821 1147 821 1147 906 1132 c 0,49,50
 992 1116 992 1116 1077 1085 c 1,9,-1
EndSplineSet
EndChar
StartChar: uni0256
Encoding: 598 598 598
Width: 1620
Flags: W
TeX: 0 0 0 0
Fore
698 231 m 0,0,1
 813 231 813 231 873.5 315 c 0,2,3
 934 399 934 399 934 559 c 0,4,5
 934 719 934 719 873.5 803 c 0,6,7
 813 887 813 887 698 887 c 0,8,9
 584 887 584 887 523.5 803 c 0,10,11
 463 719 463 719 463 559 c 0,12,13
 463 399 463 399 523.5 315 c 0,14,15
 584 231 584 231 698 231 c 0,0,1
1357 -442 m 2,16,17
 1051.37 -442 1051.37 -442 964.73 -187.062 c 0,18,19
 936.607 -104.313 936.607 -104.313 934.226 -9.96766e-11 c 1,20,-1
 934 162 l 1,21,22
 860 63 860 63 771 17 c 0,23,24
 682 -29 682 -29 565 -29 c 0,25,26
 358 -29 358 -29 225 135.5 c 0,27,28
 92 300 92 300 92 559 c 0,29,30
 92 818 92 818 225 982.5 c 0,31,32
 358 1147 358 1147 565 1147 c 0,33,34
 681 1147 681 1147 770.5 1100.5 c 0,35,36
 860 1054 860 1054 934 956 c 1,37,-1
 934 1556 l 1,38,-1
 1294 1556 l 1,39,-1
 1294 20 l 2,40,41
 1294 -114.999 1294 -114.999 1332 -161 c 0,42,43
 1370 -207 1370 -207 1472 -207 c 2,44,-1
 1638 -207 l 1,45,-1
 1638 -442 l 1,46,-1
 1357 -442 l 2,16,17
EndSplineSet
EndChar
StartChar: uni0257
Encoding: 599 599 599
Width: 1622
Flags: W
TeX: 0 0 0 0
AnchorPoint: "above" 1114 1520 basechar 0
Fore
698 231 m 0,0,1
 813 231 813 231 873.5 315 c 0,2,3
 934 399 934 399 934 559 c 0,4,5
 934 719 934 719 873.5 803 c 0,6,7
 813 887 813 887 698 887 c 0,8,9
 584 887 584 887 523.5 803 c 0,10,11
 463 719 463 719 463 559 c 0,12,13
 463 399 463 399 523.5 315 c 0,14,15
 584 231 584 231 698 231 c 0,0,1
934 956 m 1,16,-1
 936 1094 l 2,17,18
 939.284 1320.61 939.284 1320.61 1046 1438 c 0,19,20
 1154 1556 1154 1556 1359 1556 c 2,21,-1
 1640 1556 l 1,22,-1
 1640 1321 l 1,23,-1
 1474 1321 l 2,24,25
 1372 1321 1372 1321 1334 1275 c 0,26,27
 1296 1229 1296 1229 1296 1094 c 2,28,-1
 1294 0 l 1,29,-1
 934 0 l 1,30,-1
 934 162 l 1,31,32
 860 63 860 63 771 17 c 0,33,34
 682 -29 682 -29 565 -29 c 0,35,36
 358 -29 358 -29 225 135.5 c 0,37,38
 92 300 92 300 92 559 c 0,39,40
 92 818 92 818 225 982.5 c 0,41,42
 358 1147 358 1147 565 1147 c 0,43,44
 681 1147 681 1147 770.5 1100.5 c 0,45,46
 816.374 1076.67 816.374 1076.67 879.14 1012.17 c 0,47,48
 926.845 963.155 926.845 963.155 934 956 c 1,16,-1
EndSplineSet
EndChar
StartChar: uni0258
Encoding: 600 600 600
Width: 1389
Flags: W
AnchorPoint: "above" 693 1147 basechar 0
Fore
88 563 m 2,0,1
 88 829 88 829 246.5 988 c 128,-1,2
 405 1147 405 1147 669 1147 c 0,3,4
 959 1147 959 1147 1124.5 990 c 128,-1,5
 1290 833 1290 833 1290 559 c 0,6,7
 1290 280 1290 280 1121.5 125.5 c 128,-1,8
 953 -29 953 -29 649 -29 c 0,9,10
 522 -29 522 -29 395 -4.5 c 128,-1,11
 268 20 268 20 141 68 c 1,12,-1
 141 344 l 1,13,14
 266 276 266 276 384.5 242.5 c 128,-1,15
 503 209 503 209 616 209 c 0,16,17
 756 209 756 209 834 272 c 128,-1,18
 912 335 912 335 925 461 c 1,19,-1
 88 461 l 1,20,-1
 88 563 l 2,0,1
456 682 m 1,21,-1
 921 682 l 1,22,23
 905 792 905 792 840 850.5 c 128,-1,24
 775 909 775 909 671 909 c 0,25,26
 575 909 575 909 515.5 846.5 c 128,-1,27
 456 784 456 784 456 682 c 1,21,-1
EndSplineSet
EndChar
StartChar: uni0259
Encoding: 601 601 601
Width: 1389
Flags: W
AnchorPoint: "above" 693 1147 basechar 0
Fore
88 555 m 2,0,-1
 88 657 l 1,1,-1
 925 657 l 1,2,3
 912 783 912 783 834 846 c 128,-1,4
 756 909 756 909 616 909 c 0,5,6
 503 909 503 909 384.5 875.5 c 128,-1,7
 266 842 266 842 141 774 c 1,8,-1
 141 1050 l 1,9,10
 268 1098 268 1098 395 1122.5 c 128,-1,11
 522 1147 522 1147 649 1147 c 0,12,13
 953 1147 953 1147 1121.5 992.5 c 128,-1,14
 1290 838 1290 838 1290 559 c 0,15,16
 1290 285 1290 285 1124.5 128 c 128,-1,17
 959 -29 959 -29 669 -29 c 0,18,19
 405 -29 405 -29 246.5 130 c 128,-1,20
 88 289 88 289 88 555 c 2,0,-1
456 436 m 1,21,22
 456 334 456 334 515.5 271.5 c 128,-1,23
 575 209 575 209 671 209 c 0,24,25
 775 209 775 209 840 267.5 c 128,-1,26
 905 326 905 326 921 436 c 1,27,-1
 456 436 l 1,21,22
EndSplineSet
EndChar
StartChar: uni025A
Encoding: 602 602 602
Width: 1794
Flags: W
TeX: 0 0 0 0
AnchorPoint: "above" 693 1147 basechar 0
Fore
921 540.125 m 1,0,-1
 496.247 294.961 l 1,1,2
 505.007 282.638 505.007 282.638 515.5 271.5 c 0,3,4
 575 209 575 209 671 209 c 0,5,6
 775 209 775 209 840 267.5 c 0,7,8
 905 326 905 326 921 436 c 2,9,-1
 921 540.125 l 1,0,-1
1270.1 736.047 m 1,10,11
 1290 654.875 1290 654.875 1290 559 c 0,12,13
 1290 285 1290 285 1124.5 128 c 0,14,15
 959 -29 959 -29 669 -29 c 0,16,17
 405 -29 405 -29 246.5 130 c 0,18,19
 160.642 216.131 160.642 216.131 121.293 333.671 c 1,20,-1
 890 777.484 l 1,21,22
 868.136 818.459 868.136 818.459 834 846 c 0,23,24
 755.915 909 755.915 909 616 909 c 0,25,26
 503 909 503 909 384.5 875.5 c 0,27,28
 266 842 266 842 141 774 c 1,29,-1
 141 1050 l 1,30,31
 268 1098 268 1098 395 1122.5 c 0,32,33
 522 1147 522 1147 649 1147 c 0,34,35
 953 1147 953 1147 1121.5 992.5 c 0,36,37
 1147.31 968.836 1147.31 968.836 1169.16 942.25 c 1,38,-1
 1389 1072 l 1,39,-1
 1588 1073.55 l 1,40,-1
 1588 903.35 l 2,41,42
 1588 727.397 1588 727.397 1626 671.05 c 0,43,44
 1664 615.85 1664 615.85 1769 615.85 c 2,45,-1
 1812 615.85 l 1,46,-1
 1812 436.45 l 1,47,-1
 1716 436.45 l 2,48,49
 1532.86 436.45 1532.86 436.45 1454 546.85 c 0,50,51
 1388.85 638.067 1388.85 638.067 1389 804 c 1,52,-1
 1270.1 736.047 l 1,10,11
EndSplineSet
EndChar
StartChar: uni025C
Encoding: 604 604 604
Width: 1116
Flags: W
TeX: 0 0 0 0
AnchorPoint: "above" 493 1147 basechar 0
Fore
763 604 m 1,0,1
 884 574 884 574 947 502 c 128,-1,2
 1010 430 1010 430 1010 318 c 0,3,4
 1010 145 1010 145 874 58 c 128,-1,5
 738 -29 738 -29 477 -29 c 0,6,7
 385 -29 385 -29 292 -15 c 0,8,9
 200 -1 200 -1 110 27 c 1,10,-1
 110 279 l 1,11,12
 181 243 181 243 275 221 c 0,13,14
 360 201 360 201 437 201 c 0,15,16
 553 201 553 201 618 240 c 0,17,18
 684 280 684 280 684 338 c 0,19,20
 684 398 684 398 617 437 c 0,21,22
 555 474 555 474 426 474 c 2,23,-1
 308 474 l 1,24,-1
 308 698 l 1,25,-1
 432 698 l 2,26,27
 549 698 549 698 599 728 c 0,28,29
 656 762 656 762 656 806 c 0,30,31
 656 848 656 848 600 884 c 0,32,33
 545 919 545 919 450 919 c 0,34,35
 391 919 391 919 306 903 c 128,-1,36
 221 887 221 887 161 860 c 1,37,-1
 161 1099 l 1,38,39
 252 1123 252 1123 342 1135 c 0,40,41
 431 1147 431 1147 518 1147 c 0,42,43
 750 1147 750 1147 866 1075 c 0,44,45
 982 1004 982 1004 982 853 c 0,46,47
 982 756 982 756 926 692 c 0,48,49
 871 629 871 629 763 604 c 1,0,1
EndSplineSet
EndChar
StartChar: uni025D
Encoding: 605 605 605
Width: 1669
Flags: W
TeX: 0 0 0 0
AnchorPoint: "above" 493 1147 basechar 0
Fore
763 604 m 1,0,1
 884 574 884 574 947 502 c 0,2,3
 1010 430 1010 430 1010 318 c 0,4,5
 1010 145 1010 145 874 58 c 0,6,7
 738 -29 738 -29 477 -29 c 0,8,9
 385 -29 385 -29 292 -15 c 0,10,11
 200 -1 200 -1 110 27 c 1,12,-1
 110 279 l 1,13,14
 180.784 243.109 180.784 243.109 275 221 c 0,15,16
 360.227 201 360.227 201 437 201 c 0,17,18
 553 201 553 201 618 240 c 0,19,20
 684 280 684 280 684 338 c 0,21,22
 684 398 684 398 617 437 c 0,23,24
 555 474 555 474 426 474 c 2,25,-1
 308 474 l 1,26,-1
 308 698 l 1,27,-1
 432 698 l 2,28,29
 548.853 698 548.853 698 599 728 c 0,30,31
 656 762.1 656 762.1 656 806 c 0,32,33
 656 848 656 848 600 884 c 0,34,35
 545 919 545 919 450 919 c 0,36,37
 391 919 391 919 306 903 c 0,38,39
 221 887 221 887 161 860 c 1,40,-1
 161 1099 l 1,41,42
 251.48 1122.86 251.48 1122.86 342 1135 c 0,43,44
 431.498 1147 431.498 1147 518 1147 c 0,45,46
 749.187 1147 749.187 1147 866 1075 c 0,47,48
 936.539 1031.52 936.539 1031.52 964.165 958.94 c 1,49,-1
 1152 1072 l 1,50,-1
 1351 1074 l 1,51,-1
 1351 903 l 2,52,53
 1351 727 1351 727 1389 671 c 0,54,55
 1427 616 1427 616 1532 616 c 2,56,-1
 1575 616 l 1,57,-1
 1575 436 l 1,58,-1
 1479 436 l 2,59,60
 1295 436 1295 436 1217 547 c 0,61,62
 1151 638.001 1151 638.001 1152 804 c 1,63,-1
 838 626 l 1,64,-1
 838 628.754 l 1,65,66
 804.385 613.58 804.385 613.58 763 604 c 1,0,1
EndSplineSet
EndChar
StartChar: uni025E
Encoding: 606 606 606
Width: 1396
Flags: W
TeX: 0 0 0 0
AnchorPoint: "above" 765 1147 basechar 0
Fore
733 914.8 m 0,0,1
 400.868 914.8 400.868 914.8 400 552 c 1,2,3
 400 188.2 400 188.2 773 188.2 c 0,4,5
 859.966 188.2 859.966 188.2 910 216 c 0,6,7
 976 252.671 976 252.671 976 316 c 0,8,9
 976 387.697 976 387.697 904 420 c 0,10,11
 855.857 441.6 855.857 441.6 764 441.6 c 2,12,-1
 599 441.6 l 9,13,-1
 599 661.4 l 1,14,-1
 765 661.4 l 2,15,16
 844.837 661.4 844.837 661.4 898 684 c 0,17,18
 976 717.988 976 717.988 976 792 c 0,19,20
 976 846.689 976 846.689 902 882 c 0,21,22
 831.739 915.527 831.739 915.527 733 914.8 c 0,0,1
432 1099 m 0,23,24
 543.446 1144 543.446 1144 791 1145 c 0,25,26
 1051.63 1145 1051.63 1145 1189.65 1059 c 0,27,28
 1327.67 972 1327.67 972 1327.67 824 c 0,29,30
 1327.67 725.807 1327.67 725.807 1254.54 650 c 0,31,32
 1185.23 578.158 1185.23 578.158 1016 552 c 1,33,34
 1179.5 525.859 1179.5 525.859 1254.54 453 c 0,35,36
 1327.67 382 1327.67 382 1327.67 279 c 0,37,38
 1327.67 131 1327.67 131 1189.65 45 c 0,39,40
 1053.59 -40.7672 1053.59 -40.7672 791 -42 c 0,41,42
 544.029 -42.9265 544.029 -42.9265 432 18 c 0,43,44
 56 220.312 56 220.312 56 552 c 0,45,46
 56 947.931 56 947.931 432 1099 c 0,23,24
EndSplineSet
EndChar
StartChar: uni025F
Encoding: 607 607 607
Width: 702
Flags: W
AnchorPoint: "above" 351 1147 basechar 0
Fore
172 1120 m 1,0,-1
 530 1120 l 1,1,-1
 530 256 l 1,2,-1
 708 256 l 1,3,-1
 708 0 l 1,4,-1
 530 0 l 1,5,6
 525.148 -210.323 525.148 -210.323 422 -323.5 c 0,7,8
 314 -442 314 -442 109 -442 c 2,9,-1
 -68 -442 l 1,10,-1
 -68 -207 l 1,11,-1
 -6 -207 l 2,12,13
 96 -207 96 -207 134 -161 c 0,14,15
 169.113 -118.495 169.113 -118.495 171.781 -5.2599e-07 c 1,16,-1
 -40 0 l 1,17,-1
 -40 256 l 1,18,-1
 172 256 l 1,19,-1
 172 1120 l 1,0,-1
EndSplineSet
EndChar
StartChar: uni0260
Encoding: 608 608 608
Width: 1622
Flags: W
TeX: 0 0 0 0
AnchorPoint: "above" 698 1520 basechar 0
Fore
698 887 m 2,0,1
 587 887 587 887 525 805 c 0,2,3
 463 723 463 723 463 573 c 0,4,5
 463 419 463 419 523 339.5 c 0,6,7
 583 260 583 260 698 260 c 0,8,9
 810 260 810 260 872 342 c 0,10,11
 934 424 934 424 934 573 c 2,12,-1
 934 887 l 1,13,-1
 698 887 l 2,0,1
934 190 m 1,14,15
 860 92 860 92 771 46 c 0,16,17
 682 0 682 0 565 0 c 0,18,19
 360 0 360 0 226 161.5 c 0,20,21
 92 323 92 323 92 573 c 0,22,23
 92 799 92 799 226 959.5 c 0,24,25
 360 1120 360 1120 565 1120 c 2,26,-1
 934 1120 l 1,27,-1
 936.384 1120 l 1,28,29
 942.5 1324.15 942.5 1324.15 1046 1438 c 0,30,31
 1154 1556 1154 1556 1359 1556 c 2,32,-1
 1640 1556 l 1,33,-1
 1640 1321 l 1,34,-1
 1474 1321 l 2,35,36
 1372 1321 1372 1321 1334 1275 c 0,37,38
 1296 1229 1296 1229 1296 1094 c 2,39,-1
 1296 874 l 1,40,-1
 1294 874 l 1,41,-1
 1294 113 l 2,42,43
 1294 -157 1294 -157 1123.5 -299.5 c 0,44,45
 953 -442 953 -442 629 -442 c 0,46,47
 524 -442 524 -442 426 -426 c 0,48,49
 328 -410 328 -410 229 -377 c 1,50,-1
 229 -98 l 1,51,52
 323 -152 323 -152 413 -178.5 c 0,53,54
 503 -205 503 -205 594 -205 c 0,55,56
 770 -205 770 -205 852 -128 c 0,57,58
 934 -51 934 -51 934 113 c 2,59,-1
 934 190 l 1,14,15
EndSplineSet
EndChar
StartChar: uni0261
Encoding: 609 609 609
Width: 1466
Flags: W
TeX: 0 0 0 0
AnchorPoint: "above" 698 1147 basechar 0
Fore
934 190 m 1,0,1
 860 92 860 92 771 46 c 128,-1,2
 682 0 682 0 565 0 c 0,3,4
 360 0 360 0 226 161.5 c 128,-1,5
 92 323 92 323 92 573 c 0,6,7
 92 799 92 799 226 959.5 c 128,-1,8
 360 1120 360 1120 565 1120 c 2,9,-1
 934 1120 l 1,10,-1
 1294 1120 l 1,11,-1
 1294 113 l 2,12,13
 1294 -157 1294 -157 1123.5 -299.5 c 128,-1,14
 953 -442 953 -442 629 -442 c 0,15,16
 524 -442 524 -442 426 -426 c 128,-1,17
 328 -410 328 -410 229 -377 c 1,18,-1
 229 -98 l 1,19,20
 323 -152 323 -152 413 -178.5 c 128,-1,21
 503 -205 503 -205 594 -205 c 0,22,23
 770 -205 770 -205 852 -128 c 128,-1,24
 934 -51 934 -51 934 113 c 2,25,-1
 934 190 l 1,0,1
698 887 m 1,26,27
 587 887 587 887 525 805 c 128,-1,28
 463 723 463 723 463 573 c 0,29,30
 463 419 463 419 523 339.5 c 128,-1,31
 583 260 583 260 698 260 c 0,32,33
 810 260 810 260 872 342 c 128,-1,34
 934 424 934 424 934 573 c 1,35,-1
 934 887 l 1,36,-1
 698 887 l 1,26,27
EndSplineSet
EndChar
StartChar: uni0262
Encoding: 610 610 610
Width: 1285
Flags: W
TeX: 0 0 0 0
AnchorPoint: "above" 698 1147 basechar 0
Fore
1116.16 101.15 m 1,0,1
 1012.48 50.5752 1012.48 50.5752 900.88 25.2871 c 0,2,3
 789.279 0 789.279 0 670.479 0 c 0,4,5
 401.92 0 401.92 0 244.96 150.642 c 0,6,7
 88 301.282 88 301.282 88 559.215 c 0,8,9
 88 820.037 88 820.037 247.84 969.595 c 0,10,11
 407.68 1119.15 407.68 1119.15 685.6 1119.15 c 0,12,13
 792.88 1119.15 792.88 1119.15 891.16 1098.92 c 0,14,15
 989.439 1078.69 989.439 1078.69 1076.56 1038.96 c 1,16,-1
 1076.56 802.878 l 1,17,18
 986.561 851.61 986.561 851.61 897.64 875.634 c 0,19,20
 808.721 899.657 808.721 899.657 719.439 899.657 c 0,21,22
 553.84 899.657 553.84 899.657 464.2 811.457 c 0,23,24
 374.561 723.259 374.561 723.259 374.561 559.215 c 0,25,26
 374.561 396.544 374.561 396.544 460.96 308.002 c 0,27,28
 547.36 219.459 547.36 219.459 706.479 219.459 c 0,29,30
 749.68 219.459 749.68 219.459 786.76 224.607 c 0,31,32
 823.84 229.755 823.84 229.755 853.36 240.736 c 1,33,-1
 852 409 l 1,34,-1
 576 409 l 1,35,-1
 576 630 l 1,36,-1
 1116 630 l 1,37,-1
 1116.16 101.15 l 1,0,1
EndSplineSet
EndChar
StartChar: uni0263
Encoding: 611 611 611
Width: 1505
Flags: W
TeX: 0 0 0 0
AnchorPoint: "above" 722 1147 basechar 0
Fore
929 590 m 1,0,1
 1217 205 1217 205 1217 -179 c 0,2,3
 1218.47 -410.721 1218.47 -410.721 737 -415 c 0,4,5
 209.785 -419.848 209.785 -419.848 207 -179 c 0,6,7
 205.514 162.713 205.514 162.713 518 588 c 1,8,-1
 114 1135 l 1,9,-1
 493 1135 l 1,10,-1
 722 803 l 1,11,-1
 954 1135 l 1,12,-1
 1333 1135 l 1,13,-1
 929 590 l 1,0,1
722 369 m 1,14,15
 497.452 58.5127 497.452 58.5127 500 -66.5996 c 0,16,17
 502.49 -190.809 502.49 -190.809 716 -190.8 c 16,18,19
 920 -190.785 920 -190.785 920 -66.5996 c 0,20,21
 920 95 920 95 722 369 c 1,14,15
EndSplineSet
EndChar
StartChar: uni0264
Encoding: 612 612 612
Width: 1301
Flags: W
TeX: 0 0 0 0
AnchorPoint: "above" 659 1147 basechar 0
Fore
658 136 m 0,0,1
 710 136 710 136 710 222.75 c 0,2,3
 710 282.235 710 282.235 659 354 c 1,4,5
 607.438 280 607.438 280 607.438 222.75 c 0,6,7
 607.232 140 607.232 140 658 136 c 0,0,1
449 586 m 1,8,-1
 51 1120 l 1,9,-1
 430 1120 l 1,10,-1
 659 788 l 1,11,-1
 891 1120 l 1,12,-1
 1270 1120 l 1,13,-1
 865 575 l 1,14,15
 1042.3 335.898 1042.3 335.898 1044 132.25 c 0,16,17
 1047.18 -120 1047.18 -120 661.25 -120 c 0,18,19
 265 -120 265 -120 265 132.25 c 0,20,21
 265 344 265 344 449 586 c 1,8,-1
EndSplineSet
EndChar
StartChar: uni0265
Encoding: 613 613 613
Width: 1458
Flags: W
AnchorPoint: "above" 724 1147 basechar 0
Fore
162 436 m 2,0,-1
 162 1118 l 1,1,-1
 522 1118 l 1,2,-1
 522 1007 l 1,3,-1
 522 598 l 2,4,5
 522 451 522 451 528.5 396 c 128,-1,6
 535 341 535 341 551 315 c 0,7,8
 572 280 572 280 608 260.5 c 128,-1,9
 644 241 644 241 690 241 c 0,10,11
 802 241 802 241 866 327.5 c 128,-1,12
 930 414 930 414 930 567 c 2,13,-1
 930 1118 l 1,14,-1
 1288 1118 l 1,15,-1
 1288 -438 l 1,16,-1
 930 -438 l 1,17,-1
 930 162 l 1,18,19
 849 64 849 64 758 17.5 c 128,-1,20
 667 -29 667 -29 557 -29 c 0,21,22
 363 -29 363 -29 262.5 90 c 128,-1,23
 162 209 162 209 162 436 c 2,0,-1
EndSplineSet
EndChar
StartChar: uni0266
Encoding: 614 614 614
Width: 1458
Flags: W
AnchorPoint: "above" 356 1520 basechar 0
Fore
1298 682 m 2,0,-1
 1298 0 l 1,1,-1
 938 0 l 1,2,-1
 938 111 l 1,3,-1
 938 520 l 2,4,5
 938 667 938 667 931.5 722 c 0,6,7
 925 777 925 777 909 803 c 0,8,9
 888 838 888 838 852 857.5 c 0,10,11
 816 877 816 877 770 877 c 0,12,13
 658 877 658 877 594 790.5 c 0,14,15
 530 704 530 704 530 551 c 2,16,-1
 530 0 l 1,17,-1
 172 0 l 1,18,-1
 172 1094 l 2,19,20
 172 1317 172 1317 282 1438 c 0,21,22
 390 1556 390 1556 595 1556 c 2,23,-1
 876 1556 l 1,24,-1
 876 1321 l 1,25,-1
 710 1321 l 2,26,27
 608 1321 608 1321 570 1275 c 0,28,29
 532 1229 532 1229 532 1094 c 2,30,-1
 532 958.41 l 1,31,32
 612.123 1054.57 612.123 1054.57 702 1100.5 c 0,33,34
 793 1147 793 1147 903 1147 c 0,35,36
 1097 1147 1097 1147 1197.5 1028 c 0,37,38
 1298 909 1298 909 1298 682 c 2,0,-1
EndSplineSet
EndChar
StartChar: uni0267
Encoding: 615 615 615
Width: 1458
Flags: W
AnchorPoint: "above" 356 1520 basechar 0
Fore
532 958.41 m 1,0,1
 612.123 1054.57 612.123 1054.57 702 1100.5 c 0,2,3
 793 1147 793 1147 903 1147 c 0,4,5
 1097 1147 1097 1147 1197.5 1028 c 0,6,7
 1298 909 1298 909 1298 682 c 2,8,-1
 1298 240 l 1,9,-1
 1298 20 l 1,10,-1
 1298 0 l 2,11,12
 1293.02 -208.483 1293.02 -208.483 1188 -324 c 0,13,14
 1080 -442 1080 -442 875 -442 c 2,15,-1
 594 -442 l 1,16,-1
 594 -207 l 1,17,-1
 760 -207 l 2,18,19
 862 -207 862 -207 900 -161 c 0,20,21
 938 -115 938 -115 938 20 c 2,22,-1
 938 111 l 1,23,-1
 938 240 l 1,24,-1
 938 520 l 2,25,26
 938 667 938 667 931.5 722 c 0,27,28
 925 777 925 777 909 803 c 0,29,30
 888 838 888 838 852 857.5 c 0,31,32
 816 877 816 877 770 877 c 0,33,34
 658 877 658 877 594 790.5 c 0,35,36
 530 704 530 704 530 551 c 2,37,-1
 530 0 l 1,38,-1
 172 0 l 1,39,-1
 172 1094 l 2,40,41
 172 1317 172 1317 282 1438 c 0,42,43
 390 1556 390 1556 595 1556 c 2,44,-1
 876 1556 l 1,45,-1
 876 1321 l 1,46,-1
 710 1321 l 2,47,48
 608 1321 608 1321 570 1275 c 0,49,50
 532 1229 532 1229 532 1094 c 2,51,-1
 532 958.41 l 1,0,1
EndSplineSet
EndChar
StartChar: uni0268
Encoding: 616 616 616
Width: 1117
Flags: W
AnchorPoint: "above" 565 1583 basechar 0
Fore
386 1556 m 1,0,-1
 744 1556 l 1,1,-1
 744 1264 l 1,2,-1
 386 1264 l 1,3,-1
 386 1556 l 1,0,-1
386 1120 m 1,4,-1
 744 1120 l 1,5,-1
 744 632 l 1,6,-1
 945 632 l 1,7,-1
 945 438 l 1,8,-1
 744 438 l 1,9,-1
 744 0 l 1,10,-1
 386 0 l 1,11,-1
 386 438 l 1,12,-1
 172 438 l 1,13,-1
 172 632 l 1,14,-1
 386 632 l 1,15,-1
 386 1120 l 1,4,-1
EndSplineSet
EndChar
StartChar: uni0269
Encoding: 617 617 617
Width: 902
Flags: W
TeX: 0 0 0 0
AnchorPoint: "above" 350 1147 basechar 0
Fore
170 1120 m 9,0,-1
 530 1120 l 9,1,-1
 530 460 l 2,2,3
 530 325 530 325 568 279 c 0,4,5
 613.125 224.375 613.125 224.375 708 233 c 2,6,-1
 730 235 l 1,7,-1
 730 0 l 1,8,-1
 593 -2 l 2,9,10
 391.703 -4.93864 391.703 -4.93864 280 116 c 0,11,12
 170 235.829 170 235.829 170 460 c 2,13,-1
 170 1120 l 9,0,-1
EndSplineSet
EndChar
StartChar: uni026A
Encoding: 618 618 618
Width: 1117
Flags: W
TeX: 0 0 0 0
AnchorPoint: "above" 566 1147 basechar 0
Fore
945 235 m 1,0,-1
 945 0 l 1,1,-1
 172 0 l 1,2,-1
 172 235 l 1,3,-1
 387 235 l 1,4,-1
 387 885 l 1,5,-1
 172 885 l 1,6,-1
 172 1120 l 1,7,-1
 945 1120 l 1,8,-1
 945 885 l 1,9,-1
 745 885 l 1,10,-1
 745 235 l 1,11,-1
 945 235 l 1,0,-1
EndSplineSet
EndChar
StartChar: uni026B
Encoding: 619 619 619
Width: 1144
Flags: W
AnchorPoint: "above" 574 1520 basechar 0
Fore
395.2 1556 m 1,0,-1
 753.2 1556 l 1,1,-1
 753.2 792.358 l 1,2,3
 775.038 799.809 775.038 799.809 789.55 820 c 0,4,5
 812.55 852 812.55 852 812.55 909 c 2,6,-1
 812.55 917 l 1,7,-1
 972.4 917 l 1,8,9
 972.4 781 972.4 781 913.175 707 c 0,10,11
 855.678 635.159 855.678 635.159 753.2 633.062 c 1,12,-1
 753.2 0 l 1,13,-1
 395.2 0 l 1,14,-1
 395.2 761.546 l 1,15,16
 369.402 755.277 369.402 755.277 353.7 733 c 0,17,18
 331.851 702 331.851 702 331.851 643 c 2,19,-1
 331.851 635 l 1,20,-1
 172 635 l 1,21,22
 172 771 172 771 231.226 845 c 0,23,24
 289.84 918.237 289.84 918.237 395.2 918.992 c 1,25,-1
 395.2 1556 l 1,0,-1
EndSplineSet
EndChar
StartChar: uni026C
Encoding: 620 620 620
Width: 1420
Flags: W
TeX: 0 0 0 0
AnchorPoint: "above" 867 1520 basechar 0
Fore
688.051 1556 m 1,0,-1
 1046.05 1556 l 1,1,-1
 1046.05 813 l 1,2,-1
 1248.05 813 l 1,3,-1
 1248.05 600 l 1,4,-1
 1046.05 600 l 1,5,-1
 1046.05 0 l 1,6,-1
 688.051 0 l 1,7,-1
 688.051 600.435 l 1,8,-1
 483.051 601 l 2,9,10
 175.766 601.846 175.766 601.846 172.051 877 c 0,11,12
 167.822 1190.08 167.822 1190.08 516.051 1188 c 0,13,14
 622.271 1187.36 622.271 1187.36 688.051 1132.86 c 1,15,-1
 688.051 1556 l 1,0,-1
634.051 918 m 0,16,17
 588.225 952 588.225 952 499.051 952 c 0,18,19
 376.628 952 376.628 952 378.051 886 c 0,20,21
 379.669 811 379.669 811 484.051 811 c 2,22,-1
 684.051 811 l 1,23,24
 664.051 895 664.051 895 634.051 918 c 0,16,17
EndSplineSet
EndChar
StartChar: uni026D
Encoding: 621 621 621
Width: 702
Flags: W
AnchorPoint: "above" 356 1520 basechar 0
Fore
174 1556 m 1,0,-1
 534 1556 l 1,1,-1
 534 20 l 2,2,3
 534 -113.88 534 -113.88 572 -161 c 0,4,5
 609.097 -207 609.097 -207 712 -207 c 2,6,-1
 878 -207 l 1,7,-1
 878 -442 l 1,8,-1
 597 -442 l 2,9,10
 391.544 -442 391.544 -442 284 -324 c 0,11,12
 174 -203 174 -203 174 -0 c 2,13,-1
 174 1556 l 1,0,-1
EndSplineSet
EndChar
StartChar: uni026E
Encoding: 622 622 622
Width: 1723
Flags: W
TeX: 0 0 0 0
AnchorPoint: "above" 356 1520 basechar 0
Fore
172 1556 m 1,0,-1
 530 1556 l 1,1,-1
 530 1120 l 1,2,-1
 1505 1120 l 1,3,-1
 1505 870 l 1,4,-1
 1087 436 l 1,5,6
 1248.94 426.523 1248.94 426.523 1335 404 c 0,7,8
 1460.31 371.205 1460.31 371.205 1546.5 258.5 c 0,9,10
 1625 155.854 1625 155.854 1625 13 c 0,11,12
 1625 -209 1625 -209 1455 -324.5 c 0,13,14
 1285 -440 1285 -440 959 -440 c 0,15,16
 844 -440 844 -440 728.5 -421.5 c 0,17,18
 613 -403 613 -403 500 -366 c 1,19,-1
 500 -69 l 1,20,21
 608 -123 608 -123 714.5 -150.5 c 0,22,23
 821 -178 821 -178 924 -178 c 0,24,25
 1077 -178 1077 -178 1158.5 -125 c 0,26,27
 1240 -72.0005 1240 -72.0005 1240 27 c 0,28,29
 1240 129 1240 129 1156.5 181.5 c 0,30,31
 1073 234 1073 234 910 234 c 2,32,-1
 723 234 l 1,33,-1
 723 478.956 l 1,34,-1
 1093 864 l 1,35,-1
 530 864 l 1,36,-1
 530 0 l 1,37,-1
 172 0 l 1,38,-1
 172 1556 l 1,0,-1
EndSplineSet
EndChar
StartChar: uni026F
Encoding: 623 623 623
Width: 2134
Flags: W
AnchorPoint: "above" 1071 1147 basechar 0
Fore
924 184 m 1,0,1
 856 80 856 80 762.5 25.5 c 128,-1,2
 669 -29 669 -29 557 -29 c 0,3,4
 364 -29 364 -29 263 90 c 128,-1,5
 162 209 162 209 162 436 c 2,6,-1
 162 1118 l 1,7,-1
 522 1118 l 1,8,-1
 522 534 l 1,9,10
 521 521 521 521 520.5 507 c 128,-1,11
 520 493 520 493 520 467 c 0,12,13
 520 348 520 348 555 294.5 c 128,-1,14
 590 241 590 241 668 241 c 0,15,16
 770 241 770 241 825.5 325 c 128,-1,17
 881 409 881 409 883 568 c 1,18,-1
 883 1118 l 1,19,-1
 1243 1118 l 1,20,-1
 1243 534 l 2,21,22
 1243 348 1243 348 1275 294.5 c 128,-1,23
 1307 241 1307 241 1389 241 c 0,24,25
 1492 241 1492 241 1548 325.5 c 128,-1,26
 1604 410 1604 410 1604 567 c 2,27,-1
 1604 1118 l 1,28,-1
 1964 1118 l 1,29,-1
 1964 -2 l 1,30,-1
 1604 -2 l 1,31,-1
 1604 162 l 1,32,33
 1538 67 1538 67 1452.5 19 c 128,-1,34
 1367 -29 1367 -29 1264 -29 c 0,35,36
 1148 -29 1148 -29 1059 27 c 128,-1,37
 970 83 970 83 924 184 c 1,0,1
EndSplineSet
EndChar
StartChar: uni0270
Encoding: 624 624 624
Width: 2134
Flags: W
AnchorPoint: "above" 1071 1147 basechar 0
Fore
924 184 m 1,0,1
 856 80 856 80 762.5 25.5 c 128,-1,2
 669 -29 669 -29 557 -29 c 0,3,4
 364 -29 364 -29 263 90 c 128,-1,5
 162 209 162 209 162 436 c 2,6,-1
 162 1118 l 1,7,-1
 522 1118 l 1,8,-1
 522 534 l 1,9,10
 521 521 521 521 520.5 507 c 128,-1,11
 520 493 520 493 520 467 c 0,12,13
 520 348 520 348 555 294.5 c 128,-1,14
 590 241 590 241 668 241 c 0,15,16
 770 241 770 241 825.5 325 c 128,-1,17
 881 409 881 409 883 568 c 1,18,-1
 883 1118 l 1,19,-1
 1243 1118 l 1,20,-1
 1243 534 l 2,21,22
 1243 348 1243 348 1275 294.5 c 128,-1,23
 1307 241 1307 241 1389 241 c 0,24,25
 1492 241 1492 241 1548 325.5 c 128,-1,26
 1604 410 1604 410 1604 567 c 2,27,-1
 1604 1118 l 1,28,-1
 1964 1118 l 1,29,-1
 1964 -428 l 1,30,-1
 1604 -428 l 1,31,-1
 1604 162 l 1,32,33
 1538 67 1538 67 1452.5 19 c 128,-1,34
 1367 -29 1367 -29 1264 -29 c 0,35,36
 1148 -29 1148 -29 1059 27 c 128,-1,37
 970 83 970 83 924 184 c 1,0,1
EndSplineSet
EndChar
StartChar: uni0271
Encoding: 625 625 625
Width: 2134
Flags: W
AnchorPoint: "above" 1071 1147 basechar 0
Fore
1210 934 m 1,0,1
 1278 1038 1278 1038 1371.5 1092.5 c 0,2,3
 1465 1147 1465 1147 1577 1147 c 0,4,5
 1770 1147 1770 1147 1871 1028 c 0,6,7
 1972 909 1972 909 1972 682 c 2,8,-1
 1974 20 l 2,9,10
 1974 -203 1974 -203 1864 -324 c 0,11,12
 1756 -442 1756 -442 1551 -442 c 2,13,-1
 1270 -442 l 1,14,-1
 1270 -207 l 1,15,-1
 1436 -207 l 2,16,17
 1538 -207 1538 -207 1576 -161 c 0,18,19
 1613.74 -115.313 1613.74 -115.313 1613.78 2.81808e-06 c 2,20,-1
 1614 651 l 2,21,22
 1614 770 1614 770 1579 823.5 c 0,23,24
 1544 877 1544 877 1466 877 c 0,25,26
 1364 877 1364 877 1308.5 793 c 0,27,28
 1253 709 1253 709 1251 550 c 2,29,-1
 1251 0 l 1,30,-1
 891 0 l 1,31,-1
 891 584 l 2,32,33
 891 770 891 770 859 823.5 c 0,34,35
 827 877 827 877 745 877 c 0,36,37
 642 877 642 877 586 792.5 c 0,38,39
 530 708 530 708 530 551 c 2,40,-1
 530 0 l 1,41,-1
 170 0 l 1,42,-1
 170 1120 l 1,43,-1
 530 1120 l 1,44,-1
 530 956 l 1,45,46
 596 1051 596 1051 681.5 1099 c 0,47,48
 767 1147 767 1147 870 1147 c 0,49,50
 986 1147 986 1147 1075 1091 c 0,51,52
 1164 1035 1164 1035 1210 934 c 1,0,1
EndSplineSet
EndChar
StartChar: uni0272
Encoding: 626 626 626
Width: 1458
Flags: W
AnchorPoint: "above" 681 1147 basechar 0
Fore
1298 682 m 2,0,-1
 1298 0 l 1,1,-1
 938 0 l 1,2,-1
 938 111 l 1,3,-1
 938 522 l 2,4,5
 938 667 938 667 931.5 722 c 0,6,7
 925 777 925 777 909 803 c 0,8,9
 888 838 888 838 852 857.5 c 0,10,11
 816 877 816 877 770 877 c 0,12,13
 658 877 658 877 594 790.5 c 0,14,15
 530 704 530 704 530 551 c 2,16,-1
 530 240 l 1,17,-1
 530 20 l 1,18,-1
 530 0 l 2,19,20
 525.016 -208.483 525.016 -208.483 420 -324 c 0,21,22
 312 -442 312 -442 107 -442 c 2,23,-1
 -174 -442 l 1,24,-1
 -174 -207 l 1,25,-1
 -8 -207 l 2,26,27
 92.0929 -207 92.0929 -207 132 -161 c 0,28,29
 171.998 -114.895 171.998 -114.895 171.998 20 c 2,30,-1
 171.998 240 l 1,31,-1
 171.998 1120 l 1,32,-1
 530 1120 l 1,33,-1
 530 956 l 1,34,35
 611 1054 611 1054 702 1100.5 c 0,36,37
 793 1147 793 1147 903 1147 c 0,38,39
 1097 1147 1097 1147 1197.5 1028 c 0,40,41
 1298 909 1298 909 1298 682 c 2,0,-1
EndSplineSet
EndChar
StartChar: uni0273
Encoding: 627 627 627
Width: 1624
Flags: W
AnchorPoint: "above" 681 1147 basechar 0
Fore
932 722 m 2,0,1
 929.319 771.598 929.319 771.598 909 803 c 0,2,3
 888.472 836.725 888.472 836.725 852 858 c 0,4,5
 814 877 814 877 770 877 c 0,6,7
 666.764 877 666.764 877 594 790 c 0,8,9
 530 714.87 530 714.87 530 551 c 2,10,-1
 530 0 l 1,11,-1
 172 0 l 1,12,-1
 172 1120 l 1,13,-1
 530 1120 l 1,14,-1
 530 956 l 1,15,16
 613.452 1056.45 613.452 1056.45 702 1100 c 0,17,18
 791.594 1147 791.594 1147 903 1147 c 0,19,20
 1095.57 1147 1095.57 1147 1198 1028 c 0,21,22
 1298 908.303 1298 908.303 1298 682 c 2,23,-1
 1298 20 l 2,24,25
 1298 -113.88 1298 -113.88 1336 -161 c 0,26,27
 1373.1 -207 1373.1 -207 1476 -207 c 2,28,-1
 1642 -207 l 1,29,-1
 1642 -442 l 1,30,-1
 1361 -442 l 2,31,32
 1155.54 -442 1155.54 -442 1048 -324 c 0,33,34
 932 -196.4 932 -196.4 932 0 c 2,35,-1
 932 722 l 2,0,1
EndSplineSet
EndChar
StartChar: uni0274
Encoding: 628 628 628
Width: 1315
Flags: W
TeX: 0 0 0 0
AnchorPoint: "above" 651 1147 basechar 0
Fore
106 1120 m 1,0,-1
 536 1120 l 1,1,-1
 844 469 l 1,2,-1
 844 1120 l 1,3,-1
 1209 1120 l 1,4,-1
 1209 0 l 1,5,-1
 779 0 l 1,6,-1
 471 651 l 1,7,-1
 471 0 l 1,8,-1
 106 0 l 1,9,-1
 106 1120 l 1,0,-1
EndSplineSet
EndChar
StartChar: uni0275
Encoding: 629 629 629
Width: 1407
Flags: W
AnchorPoint: "above" 705 1147 basechar 0
Fore
705 1147 m 0,0,1
 994 1147 994 1147 1156.5 991 c 0,2,3
 1319 835 1319 835 1319 559 c 0,4,5
 1319 283 1319 283 1156.5 127 c 0,6,7
 994 -29 994 -29 705 -29 c 0,8,9
 415 -29 415 -29 251.5 127 c 0,10,11
 88 283 88 283 88 559 c 0,12,13
 88 835 88 835 251.5 991 c 0,14,15
 415 1147 415 1147 705 1147 c 0,0,1
705 891 m 0,16,17
 586 891 586 891 523.5 805.5 c 0,18,19
 476.015 740.541 476.015 740.541 464.607 632 c 1,20,-1
 907 632 l 1,21,-1
 942.422 632 l 1,22,23
 931.105 740.541 931.105 740.541 884 805.5 c 0,24,25
 822 891 822 891 705 891 c 0,16,17
935.248 438 m 1,26,-1
 549 438 l 1,27,-1
 471.839 438 l 1,28,29
 487.027 362.394 487.027 362.394 523.5 312.5 c 0,30,31
 586 227 586 227 705 227 c 0,32,33
 822 227 822 227 884 312.5 c 0,34,35
 920.181 362.395 920.181 362.395 935.248 438 c 1,26,-1
EndSplineSet
EndChar
StartChar: uni0276
Encoding: 630 630 630
Width: 1861
Flags: W
TeX: 0 0 0 0
AnchorPoint: "above" 1095 1147 basechar 0
Fore
898 901.5 m 1,0,-1
 787 901.5 l 2,1,2
 613.6 901.5 613.6 901.5 527.8 816.75 c 128,-1,3
 442 732 442 732 442 561 c 0,4,5
 442 389.25 442 389.25 528.1 303.75 c 0,6,7
 614.2 218.25 614.2 218.25 787 218.25 c 2,8,-1
 898 218.25 l 1,9,-1
 898 901.5 l 1,0,-1
829 1119.75 m 2,10,-1
 1675 1119.75 l 1,11,-1
 1675 901.5 l 1,12,-1
 1258 901.5 l 1,13,-1
 1258 693 l 1,14,-1
 1645.75 693 l 1,15,-1
 1645.75 474.75 l 1,16,-1
 1258 474.75 l 1,17,-1
 1258 218.25 l 1,18,-1
 1692.25 218.25 l 1,19,-1
 1692.25 0 l 1,20,-1
 829 0 l 2,21,22
 819.25 0 819.25 0 801.625 -0.75 c 128,-1,23
 784 -1.5 784 -1.5 775 -1.5 c 0,24,25
 443.5 -1.5 443.5 -1.5 265.75 144.375 c 128,-1,26
 88 290.25 88 290.25 88 561 c 0,27,28
 88 831 88 831 265.75 976.125 c 128,-1,29
 443.5 1121.25 443.5 1121.25 775 1121.25 c 0,30,31
 783.25 1121.25 783.25 1121.25 801.25 1120.5 c 128,-1,32
 819.25 1119.75 819.25 1119.75 829 1119.75 c 2,10,-1
EndSplineSet
EndChar
StartChar: uni0277
Encoding: 631 631 631
Width: 1396
Flags: W
TeX: 0 0 0 0
AnchorPoint: "above" 705 1147 basechar 0
Fore
915.989 565.771 m 0,0,1
 915.989 919.447 915.989 919.447 698.511 920 c 1,2,3
 480.031 920 480.031 920 480.031 563.955 c 0,4,5
 480.031 403.912 480.031 403.912 496.711 334.207 c 0,6,7
 512.511 264 512.511 264 535.511 264 c 0,8,9
 569.233 264 569.233 264 580.511 342 c 0,10,11
 588.776 399.163 588.776 399.163 588.471 489.515 c 2,12,-1
 588.11 596.01 l 9,13,-1
 807.91 596.01 l 1,14,-1
 807.95 488.451 l 2,15,16
 807.987 391.56 807.987 391.56 815.511 346.972 c 0,17,18
 829.511 264 829.511 264 856.511 264 c 0,19,20
 882.898 263.443 882.898 263.443 896.311 342.717 c 0,21,22
 916.401 461.464 916.401 461.464 915.989 565.771 c 0,0,1
1245.51 828.495 m 0,23,24
 1290.51 725.407 1290.51 725.407 1291.51 496.42 c 0,25,26
 1291.51 255.337 1291.51 255.337 1205.51 127.668 c 0,27,28
 1118.51 0 1118.51 0 970.511 0 c 0,29,30
 872.317 0 872.317 0 796.511 67.6455 c 0,31,32
 724.669 131.753 724.669 131.753 698.511 288.295 c 1,33,34
 672.369 137.062 672.369 137.062 599.511 67.6455 c 0,35,36
 528.511 0 528.511 0 425.511 0 c 0,37,38
 277.511 0 277.511 0 191.511 127.668 c 0,39,40
 105.743 253.527 105.743 253.527 104.511 496.42 c 0,41,42
 103.495 709.211 103.495 709.211 151.511 828.495 c 0,43,44
 291.511 1176.29 291.511 1176.29 698.511 1176.29 c 0,45,46
 1094.44 1176.29 1094.44 1176.29 1245.51 828.495 c 0,23,24
EndSplineSet
EndChar
StartChar: uni0278
Encoding: 632 632 632
Width: 1583
Flags: W
TeX: 0 0 0 0
AnchorPoint: "above" 787 1632 basechar 0
Fore
1174 -191 m 1,0,-1
 1174 -426 l 1,1,-1
 401 -426 l 1,4,-1
 401 -191 l 1,5,-1
 616 -191 l 1,6,-1
 616 -19.0801 l 1,7,8
 373.77 10.3389 373.77 10.3389 251.5 127 c 0,9,10
 88 283 88 283 88 559 c 0,11,12
 88 835.037 88 835.037 251.5 991 c 0,13,14
 373.796 1107.66 373.796 1107.66 616 1137.08 c 1,15,-1
 616 1321 l 1,16,-1
 401 1321 l 1,17,-1
 401 1556 l 1,18,-1
 1174 1556 l 1,21,-1
 1174 1321 l 1,22,-1
 974 1321 l 1,23,-1
 974 1136.52 l 1,24,25
 1212.11 1106.57 1212.11 1106.57 1332.5 991 c 0,26,27
 1495 835 1495 835 1495 559 c 0,28,29
 1495 282.917 1495 282.917 1332.5 127 c 0,30,31
 1212.06 11.4375 1212.06 11.4375 974 -18.5186 c 1,32,-1
 974 -191 l 1,33,-1
 1174 -191 l 1,0,-1
616 250.388 m 1,34,-1
 616 867.612 l 1,35,36
 553.312 846.283 553.312 846.283 523.5 805.5 c 0,37,38
 461 720 461 720 461 559 c 0,39,40
 461 398 461 398 523.5 312.5 c 0,41,42
 553.312 271.717 553.312 271.717 616 250.388 c 1,34,-1
974 865.572 m 1,43,-1
 974 252.405 l 1,44,45
 1031.8 273.606 1031.8 273.606 1060 312.5 c 0,46,47
 1122 398 1122 398 1122 559 c 0,48,49
 1122 720.173 1122 720.173 1060 805.5 c 0,50,51
 1031.75 844.373 1031.75 844.373 974 865.572 c 1,43,-1
EndSplineSet
EndChar
StartChar: uni0279
Encoding: 633 633 633
Width: 1102
Flags: W
AnchorPoint: "above" 825 1147 basechar 0
Fore
172 305 m 1,0,1
 219 283 219 283 265.5 272.5 c 128,-1,2
 312 262 312 262 359 262 c 0,3,4
 497 262 497 262 571.5 350.5 c 128,-1,5
 646 439 646 439 646 604 c 2,6,-1
 646 1120 l 1,7,-1
 1004 1120 l 1,8,-1
 1004 0 l 1,9,-1
 646 0 l 1,10,-1
 646 184 l 1,11,12
 577 74 577 74 487.5 23.5 c 128,-1,13
 398 -27 398 -27 273 -27 c 0,14,15
 255 -27 255 -27 234 -25.5 c 128,-1,16
 213 -24 213 -24 173 -19 c 1,17,-1
 172 305 l 1,0,1
EndSplineSet
EndChar
StartChar: uni027A
Encoding: 634 634 634
Width: 1102
Flags: W
AnchorPoint: "above" 825 1520 basechar 0
Fore
172 305 m 1,0,1
 219 283 219 283 265.5 272.5 c 128,-1,2
 312 262 312 262 359 262 c 0,3,4
 497 262 497 262 571.5 350.5 c 0,5,6
 646 437.766 646 437.766 646 604 c 2,7,-1
 646 1557 l 1,8,-1
 1004 1557 l 1,9,-1
 1004 0 l 1,10,-1
 646 0 l 1,11,-1
 646 184 l 1,12,13
 577 74 577 74 487.5 23.5 c 128,-1,14
 398 -27 398 -27 273 -27 c 0,15,16
 255 -27 255 -27 234 -25.5 c 128,-1,17
 213 -24 213 -24 173 -19 c 1,18,-1
 172 305 l 1,0,1
EndSplineSet
EndChar
StartChar: uni027B
Encoding: 635 635 635
Width: 1331
Flags: W
AnchorPoint: "above" 825 1147 basechar 0
Fore
172 305 m 1,0,1
 219 283 219 283 265.5 272.5 c 0,2,3
 312 262 312 262 359 262 c 0,4,5
 497 262 497 262 571.5 350.5 c 0,6,7
 646 439 646 439 646 604 c 2,8,-1
 646 1120 l 1,9,-1
 1004 1120 l 1,10,-1
 1005 20 l 2,11,12
 1005 -115 1005 -115 1043 -161 c 0,13,14
 1081 -207 1081 -207 1183 -207 c 2,15,-1
 1349 -207 l 1,16,-1
 1349 -442 l 1,17,-1
 1068 -442 l 2,18,19
 863 -442 863 -442 755 -324 c 0,20,21
 645 -203 645 -203 645 20 c 2,22,-1
 645 182.411 l 1,23,24
 576.352 73.6345 576.352 73.6345 487.5 23.5 c 0,25,26
 398 -27 398 -27 273 -27 c 0,27,28
 255 -27 255 -27 234 -25.5 c 0,29,30
 213 -24 213 -24 173 -19 c 1,31,-1
 172 305 l 1,0,1
EndSplineSet
EndChar
StartChar: uni027C
Encoding: 636 636 636
Width: 1010
Flags: W
AnchorPoint: "above" 597 1147 basechar 0
Fore
1004 815 m 1,0,1
 957 837 957 837 910.5 847.5 c 128,-1,2
 864 858 864 858 817 858 c 0,3,4
 681.563 858 681.563 858 604.5 769.5 c 0,5,6
 530 683.943 530 683.943 530 516 c 2,7,-1
 530 -426 l 1,8,-1
 172 -426 l 1,9,-1
 172 1120 l 1,10,-1
 530 1120 l 1,11,-1
 530 936 l 1,12,13
 599 1046 599 1046 688.5 1096.5 c 128,-1,14
 778 1147 778 1147 903 1147 c 0,15,16
 921 1147 921 1147 942 1145.5 c 128,-1,17
 963 1144 963 1144 1003 1139 c 1,18,-1
 1004 815 l 1,0,1
EndSplineSet
EndChar
StartChar: uni027D
Encoding: 637 637 637
Width: 1010
Flags: W
AnchorPoint: "above" 597 1147 basechar 0
Fore
1004 815 m 1,0,1
 957 837 957 837 910.5 847.5 c 0,2,3
 864 858 864 858 817 858 c 0,4,5
 679 858 679 858 604.5 769.5 c 0,6,7
 530 681 530 681 530 516 c 2,8,-1
 530 20 l 2,9,10
 530 -115 530 -115 568 -161 c 0,11,12
 606 -207 606 -207 708 -207 c 2,13,-1
 874 -207 l 1,14,-1
 874 -442 l 1,15,-1
 593 -442 l 2,16,17
 388 -442 388 -442 280 -324 c 0,18,19
 170 -203 170 -203 170 20 c 2,20,-1
 170 1120 l 1,21,-1
 530 1120 l 1,22,-1
 530 936 l 1,23,24
 599 1046 599 1046 688.5 1096.5 c 0,25,26
 778 1147 778 1147 903 1147 c 0,27,28
 921 1147 921 1147 942 1145.5 c 0,29,30
 963 1144 963 1144 1003 1139 c 1,31,-1
 1004 815 l 1,0,1
EndSplineSet
EndChar
StartChar: uni027E
Encoding: 638 638 638
Width: 1220
Flags: W
AnchorPoint: "above" 807 1147 basechar 0
Fore
945 235 m 1,0,-1
 945 0 l 1,1,-1
 172 0 l 1,2,-1
 172 235 l 1,3,-1
 381.68 235 l 1,4,-1
 381 658 l 2,5,6
 380.662 880.623 380.662 880.623 491 1002 c 0,7,8
 599 1120 599 1120 804 1120 c 2,9,-1
 1085 1120 l 1,10,-1
 1085 885 l 1,11,-1
 919 885 l 2,12,13
 814.574 885 814.574 885 779 839 c 0,14,15
 740.8 789.604 740.8 789.604 741 658 c 2,16,-1
 741.68 235 l 1,17,-1
 945 235 l 1,0,-1
EndSplineSet
EndChar
StartChar: uni027F
Encoding: 639 639 639
Width: 1220
Flags: W
AnchorPoint: "above" 450 1147 basechar 0
Fore
312 235 m 1,0,-1
 515.32 235 l 1,1,-1
 516 658 l 2,2,3
 516.2 789.604 516.2 789.604 478 839 c 0,4,5
 442.426 885 442.426 885 338 885 c 2,6,-1
 172 885 l 1,7,-1
 172 1120 l 1,8,-1
 453 1120 l 2,9,10
 658 1120 658 1120 766 1002 c 0,11,12
 876.338 880.623 876.338 880.623 876 658 c 2,13,-1
 875.32 235 l 1,14,-1
 1085 235 l 1,15,-1
 1085 0 l 1,16,-1
 312 0 l 1,17,-1
 312 235 l 1,0,-1
EndSplineSet
EndChar
StartChar: uni0280
Encoding: 640 640 640
Width: 1315
Flags: W
AnchorPoint: "above" 602 1147 basechar 0
Fore
543 630 m 2,0,1
 634 630 634 630 673 662 c 0,2,3
 713 694 713 694 713 767 c 0,4,5
 713 839 713 839 673 871 c 0,6,7
 634 901 634 901 543 901 c 2,8,-1
 464 901 l 1,9,-1
 464 630 l 1,10,-1
 543 630 l 2,0,1
464 409 m 1,11,-1
 464 0 l 1,12,-1
 106 0 l 1,13,-1
 106 1120 l 1,14,-1
 601 1120 l 2,15,16
 837 1120 837 1120 947 1046 c 0,17,18
 1057 971 1057 971 1057 811 c 0,19,20
 1057 700 1057 700 1000 628 c 0,21,22
 943 557 943 557 828 524 c 1,23,24
 891 510 891 510 941 462 c 0,25,26
 991.118 414.889 991.118 414.889 1042 318 c 2,27,-1
 1209 0 l 1,28,-1
 846 0 l 1,29,-1
 701 278 l 2,30,31
 663.95 349.033 663.95 349.033 621 378 c 0,32,33
 576 409 576 409 501 409 c 2,34,-1
 464 409 l 1,11,-1
EndSplineSet
EndChar
StartChar: uni0281
Encoding: 641 641 641
Width: 1315
Flags: W
AnchorPoint: "above" 602 1147 basechar 0
Fore
543 490 m 2,0,-1
 464 490 l 1,1,-1
 464 219 l 1,2,-1
 543 219 l 2,3,4
 634 219 634 219 673 249 c 0,5,6
 713 281 713 281 713 353 c 0,7,8
 713 426 713 426 673 458 c 0,9,10
 634 490 634 490 543 490 c 2,0,-1
464 711 m 1,11,-1
 501 711 l 2,12,13
 576 711 576 711 621 742 c 0,14,15
 663.95 770.967 663.95 770.967 701 842 c 2,16,-1
 846 1120 l 1,17,-1
 1209 1120 l 1,18,-1
 1042 802 l 2,19,20
 991.118 705.111 991.118 705.111 941 658 c 0,21,22
 891 610 891 610 828 596 c 1,23,24
 943 563 943 563 1000 492 c 0,25,26
 1057 420 1057 420 1057 309 c 0,27,28
 1057 149 1057 149 947 74 c 0,29,30
 837 0 837 0 601 0 c 2,31,-1
 106 0 l 1,32,-1
 106 1120 l 1,33,-1
 464 1120 l 1,34,-1
 464 711 l 1,11,-1
EndSplineSet
EndChar
StartChar: uni0282
Encoding: 642 642 642
Width: 1219
Flags: W
TeX: 0 0 0 0
AnchorPoint: "above" 602 1147 basechar 0
Fore
1047 1085 m 1,0,-1
 1047 813 l 1,1,2
 932 861 932 861 825 885 c 0,3,4
 718 909 718 909 623 909 c 0,5,6
 521 909 521 909 471.5 883.5 c 0,7,8
 422 858 422 858 422 805 c 0,9,10
 422 762 422 762 459.5 739 c 0,11,12
 497 716 497 716 594 705 c 2,13,-1
 657 696 l 2,14,15
 932 661 932 661 1027 581 c 0,16,17
 1122 501 1122 501 1122 330 c 0,18,19
 1122 151 1122 151 990 61 c 0,20,21
 858 -29 858 -29 596 -29 c 0,22,23
 541.007 -29 541.007 -29 484.174 -24.7046 c 1,24,25
 489.679 -123.085 489.679 -123.085 521 -161 c 0,26,27
 559 -207 559 -207 661 -207 c 2,28,-1
 827 -207 l 1,29,-1
 827 -442 l 1,30,-1
 546 -442 l 2,31,32
 341 -442 341 -442 233 -324 c 0,33,34
 123 -203 123 -203 123 20 c 2,35,-1
 123 41 l 1,36,-1
 123 240 l 1,37,-1
 123 313 l 1,38,39
 230 261 230 261 342.5 235 c 0,40,41
 455 209 455 209 571 209 c 0,42,43
 676 209 676 209 729 238 c 0,44,45
 782 267 782 267 782 324 c 0,46,47
 782 372 782 372 745.5 395.5 c 0,48,49
 709 419 709 419 600 432 c 2,50,-1
 537 440 l 2,51,52
 297.513 470.411 297.513 470.411 202 551 c 0,53,54
 106 632 106 632 106 797 c 0,55,56
 106 975 106 975 228 1061 c 0,57,58
 350 1147 350 1147 602 1147 c 0,59,60
 701 1147 701 1147 810 1132 c 0,61,62
 919 1117 919 1117 1047 1085 c 1,0,-1
EndSplineSet
EndChar
StartChar: uni0283
Encoding: 643 643 643
Width: 850
Flags: W
AnchorPoint: "above" 355 1520 basechar 0
Fore
868 1556 m 1,0,-1
 868 1321 l 1,1,-1
 670 1321 l 2,2,3
 594 1321 594 1321 564 1294 c 0,4,5
 534 1266 534 1266 534 1198 c 2,6,-1
 534 -0 l 2,7,8
 534 -205 534 -205 426 -324 c 0,9,10
 318 -442 318 -442 113 -442 c 2,11,-1
 -64 -442 l 1,12,-1
 -64 -207 l 1,13,-1
 -2 -207 l 2,14,15
 100 -207 100 -207 138 -161 c 0,16,17
 176 -115 176 -115 176 20 c 2,18,-1
 176 1198 l 2,19,20
 176 1381 176 1381 278 1468 c 0,21,22
 380 1556 380 1556 594 1556 c 2,23,-1
 868 1556 l 1,0,-1
EndSplineSet
EndChar
StartChar: uni0284
Encoding: 644 644 644
Width: 891
Flags: W
AnchorPoint: "above" 396 1520 basechar 0
Fore
909 1556 m 1,0,-1
 909 1321 l 1,1,-1
 711 1321 l 2,2,3
 635 1321 635 1321 605 1293.5 c 0,4,5
 575 1266 575 1266 575 1198 c 0,6,7
 575.527 1117.4 575.527 1117.4 575 256 c 1,8,-1
 753 256 l 1,9,-1
 753 0 l 1,10,-1
 575 0 l 1,11,12
 570.148 -210.323 570.148 -210.323 467 -323.5 c 0,13,14
 359 -442 359 -442 154 -442 c 2,15,-1
 -23 -442 l 1,16,-1
 -23 -207 l 1,17,-1
 39 -207 l 2,18,19
 141 -207 141 -207 179 -161 c 0,20,21
 214.113 -118.495 214.113 -118.495 216.781 -5.2599e-07 c 1,22,-1
 5 0 l 1,23,-1
 5 256 l 1,24,-1
 217 256 l 1,25,-1
 217 864 l 1,26,-1
 39 864 l 1,27,-1
 39 1120 l 1,28,-1
 217 1120 l 1,29,-1
 217 1198 l 2,30,31
 217 1381 217 1381 319 1468.5 c 0,32,33
 421 1556 421 1556 635 1556 c 2,34,-1
 909 1556 l 1,0,-1
EndSplineSet
EndChar
StartChar: uni0285
Encoding: 645 645 645
Width: 1239
Flags: W
AnchorPoint: "above" 602 1147 basechar 0
Fore
172 1147 m 1,0,-1
 446 1147 l 2,1,2
 660 1147 660 1147 762 1059 c 0,3,4
 864 972 864 972 864 789 c 2,5,-1
 864 20 l 2,6,7
 864 -115 864 -115 902 -161 c 0,8,9
 940 -207 940 -207 1042 -207 c 2,10,-1
 1104 -207 l 1,11,-1
 1104 -442 l 1,12,-1
 927 -442 l 2,13,14
 722 -442 722 -442 614 -324 c 0,15,16
 506 -205 506 -205 506 0 c 2,17,-1
 506 789 l 2,18,19
 506 857 506 857 476 885 c 0,20,21
 446 912 446 912 370 912 c 2,22,-1
 172 912 l 1,23,-1
 172 1147 l 1,0,-1
EndSplineSet
EndChar
StartChar: uni0286
Encoding: 646 646 646
Width: 1130
Flags: W
TeX: 0 0 0 0
AnchorPoint: "above" 635 1520 basechar 0
Fore
280.051 -444 m 1,0,1
 249.912 -444.18 249.912 -444.18 222.414 -442 c 2,2,-1
 216.051 -442 l 1,3,-1
 216.051 -441.461 l 1,4,5
 -67.7676 -415.836 -67.7676 -415.836 -63.9492 -133 c 0,6,7
 -60.2344 142.154 -60.2344 142.154 247.051 143 c 2,8,-1
 456.051 143.576 l 1,9,-1
 456.051 1198 l 2,10,11
 456.051 1381 456.051 1381 558.051 1468 c 0,12,13
 660.051 1556 660.051 1556 874.051 1556 c 2,14,-1
 1148.05 1556 l 1,15,-1
 1148.05 1321 l 1,16,-1
 950.051 1321 l 2,17,18
 874.051 1321 874.051 1321 844.051 1294 c 0,19,20
 814.051 1266 814.051 1266 814.051 1198 c 2,21,-1
 814.051 144 l 1,22,-1
 982.051 144 l 1,23,-1
 982.051 -67 l 1,24,25
 926.641 -67.3926 926.641 -67.3926 810.893 -67.5938 c 1,26,27
 795.584 -225.348 795.584 -225.348 706.051 -324 c 0,28,29
 598.051 -442 598.051 -442 393.051 -442 c 2,30,-1
 279.916 -442 l 1,31,32
 279.979 -443.004 279.979 -443.004 280.051 -444 c 1,0,1
450.858 -67.6426 m 1,33,34
 311.502 -67.4502 311.502 -67.4502 248.051 -67 c 0,35,36
 143.669 -67 143.669 -67 142.051 -142 c 0,37,38
 140.803 -199.881 140.803 -199.881 234.769 -207 c 2,39,-1
 278.051 -207 l 2,40,41
 380.051 -207 380.051 -207 418.051 -161 c 0,42,43
 442.005 -132.003 442.005 -132.003 450.858 -67.6426 c 1,33,34
EndSplineSet
EndChar
StartChar: uni0287
Encoding: 647 647 647
Width: 979
Flags: W
AnchorPoint: "above" 577 1147 basechar 0
Fore
396 -318 m 1,0,-1
 396 0 l 1,1,-1
 27 0 l 1,2,-1
 27 256 l 1,3,-1
 396 256 l 1,4,-1
 396 731 l 2,5,6
 396 809 396 809 365 836.5 c 128,-1,7
 334 864 334 864 242 864 c 2,8,-1
 58 864 l 1,9,-1
 58 1120 l 1,10,-1
 365 1120 l 2,11,12
 577 1120 577 1120 665.5 1031.5 c 128,-1,13
 754 943 754 943 754 731 c 2,14,-1
 754 256 l 1,15,-1
 932 256 l 1,16,-1
 932 0 l 1,17,-1
 754 0 l 1,18,-1
 754 -318 l 1,19,-1
 396 -318 l 1,0,-1
EndSplineSet
EndChar
StartChar: uni0288
Encoding: 648 648 648
Width: 979
Flags: W
AnchorPoint: "above" 394 1520 basechar 0
Fore
205 1120 m 1,0,-1
 205 1438 l 1,1,-1
 563 1438 l 1,2,-1
 563 1120 l 1,3,-1
 932 1120 l 1,4,-1
 932 864 l 1,5,-1
 563 864 l 1,6,-1
 563 20 l 2,7,8
 563 -115 563 -115 601 -161 c 0,9,10
 639 -207 639 -207 741 -207 c 2,11,-1
 906 -207 l 1,12,-1
 906 -442 l 1,13,-1
 626 -442 l 2,14,15
 421 -442 421 -442 313 -323.5 c 0,16,17
 205 -205 205 -205 205 20 c 2,18,-1
 205 864 l 1,19,-1
 27 864 l 1,20,-1
 27 1120 l 1,21,-1
 205 1120 l 1,0,-1
EndSplineSet
EndChar
StartChar: uni0289
Encoding: 649 649 649
Width: 1885
Flags: W
AnchorPoint: "above" 950 1147 basechar 0
Fore
1713 632 m 1,0,-1
 1713 438 l 1,1,-1
 1512 438 l 1,2,-1
 1512 0 l 1,3,-1
 1154 0 l 1,4,-1
 1154 162 l 1,5,6
 1073 64 1073 64 982.5 17.5 c 0,7,8
 892 -29 892 -29 783 -29 c 0,9,10
 635.1 3.74121 635.1 3.74121 588.462 22.8057 c 0,11,12
 526.485 48.1416 526.485 48.1416 487.5 90 c 0,13,14
 386 209 386 209 386 436 c 2,15,-1
 386 438 l 1,16,-1
 172 438 l 1,17,-1
 172 632 l 1,18,-1
 386 632 l 1,19,-1
 386 1120 l 1,20,-1
 746 1120 l 1,21,-1
 746 1008 l 2,22,23
 746 917 746 917 745 779.5 c 0,24,25
 744.301 683.404 744.301 683.404 744.091 632 c 1,26,-1
 1154 632 l 1,27,-1
 1154 1120 l 1,28,-1
 1512 1120 l 1,29,-1
 1512 632 l 1,30,-1
 1713 632 l 1,0,-1
1139.87 438 m 1,31,-1
 747.803 438 l 1,32,33
 749.16 417.141 749.16 417.141 751 401.5 c 0,34,35
 757.997 342.028 757.997 342.028 775 315 c 0,36,37
 797.028 279.985 797.028 279.985 832.5 261 c 0,38,39
 868 242 868 242 914 242 c 0,40,41
 1026 242 1026 242 1090 328 c 0,42,43
 1123.92 373.587 1123.92 373.587 1139.87 438 c 1,31,-1
EndSplineSet
EndChar
StartChar: uni028A
Encoding: 650 650 650
Width: 1575
Flags: W
TeX: 0 0 0 0
AnchorPoint: "above" 789 1147 basechar 0
Fore
709.7 837 m 1,0,1
 633.611 760.86 633.611 760.86 598.35 680 c 0,2,3
 548.2 565 548.2 565 548.2 458 c 0,4,5
 548.2 316 548.2 316 615.35 228 c 0,6,7
 682.5 141 682.5 141 793 141 c 24,8,9
 904.263 141 904.263 141 970.65 228 c 0,10,11
 1037.8 316 1037.8 316 1037.8 458 c 0,12,13
 1037.8 565 1037.8 565 986.8 680 c 0,14,15
 950.25 764 950.25 764 875.45 836 c 1,16,-1
 875.45 1120 l 1,17,-1
 1413 1120 l 1,18,-1
 1413 923 l 1,19,-1
 1170.68 923 l 1,20,21
 1259.57 863.961 1259.57 863.961 1340.92 731 c 0,22,23
 1407 623 1407 623 1407 465 c 0,24,25
 1407 211 1407 211 1235.64 54 c 0,26,27
 1063.16 -104 1063.16 -104 791 -104 c 0,28,29
 518.84 -104 518.84 -104 347.48 53 c 0,30,31
 175 210 175 210 175 457 c 0,32,33
 175 619 175 619 238.84 731 c 0,34,35
 311.64 858 311.64 858 404.6 923 c 1,36,-1
 162 923 l 1,37,-1
 162 1120 l 1,38,-1
 709.7 1120 l 1,39,-1
 709.7 837 l 1,0,1
EndSplineSet
EndChar
StartChar: uni028B
Encoding: 651 651 651
Width: 1372
Flags: W
TeX: 0 0 0 0
AnchorPoint: "above" 724 1147 basechar 0
Fore
1069 1027 m 24,0,1
 1148.36 967.961 1148.36 967.961 1221 835 c 0,2,3
 1280 727 1280 727 1280 569 c 0,4,5
 1280 315 1280 315 1127 158 c 0,6,7
 973 0 973 0 730 0 c 0,8,-1
 593 -2 l 2,9,10
 391.703 -4.93864 391.703 -4.93864 280 116 c 0,11,12
 170 235.829 170 235.829 170 460 c 2,13,-1
 170 1120 l 9,14,-1
 530 1120 l 9,15,-1
 530 460 l 2,16,17
 530 291.23 530 291.23 539.6 279 c 0,18,19
 580.743 226.574 580.743 226.574 627 231 c 2,20,-1
 647.9 233 l 8,21,22
 765.624 233 765.624 233 848.35 330 c 0,23,24
 923.4 418 923.4 418 923.4 560 c 0,25,26
 923.4 667 923.4 667 866.4 782 c 0,27,28
 825.55 866 825.55 866 741.95 938 c 1,29,-1
 740 1120 l 0,30,31
 950.566 1115.1 950.566 1115.1 1069 1027 c 24,0,1
EndSplineSet
EndChar
StartChar: uni028C
Encoding: 652 652 652
Width: 1335
Flags: W
AnchorPoint: "above" 668 1147 basechar 0
Fore
1305 0 m 1,0,-1
 947 0 l 1,1,-1
 668 774 l 1,2,-1
 390 0 l 1,3,-1
 31 0 l 1,4,-1
 472 1120 l 1,5,-1
 865 1120 l 1,6,-1
 1305 0 l 1,0,-1
EndSplineSet
EndChar
StartChar: uni028D
Encoding: 653 653 653
Width: 1892
Flags: W
AnchorPoint: "above" 946 1147 basechar 0
Fore
1821 0 m 1,0,-1
 1473 0 l 1,1,-1
 1285 772 l 1,2,-1
 1096 0 l 1,3,-1
 797 0 l 1,4,-1
 609 764 l 1,5,-1
 420 0 l 1,6,-1
 72 0 l 1,7,-1
 367 1120 l 1,8,-1
 758 1120 l 1,9,-1
 947 350 l 1,10,-1
 1135 1120 l 1,11,-1
 1526 1120 l 1,12,-1
 1821 0 l 1,0,-1
EndSplineSet
EndChar
StartChar: uni028E
Encoding: 654 654 654
Width: 1335
Flags: W
AnchorPoint: "above" 661 1520 basechar 0
Fore
1298 0 m 1,0,-1
 940 0 l 1,1,-1
 639 760 l 1,2,-1
 383 0 l 1,3,-1
 25 0 l 1,4,-1
 496 1226 l 1,5,6
 567 1413 567 1413 661.5 1487.5 c 128,-1,7
 756 1562 756 1562 911 1562 c 2,8,-1
 1118 1562 l 1,9,-1
 1118 1327 l 1,10,-1
 1006 1327 l 2,11,12
 915 1327 915 1327 873.5 1298 c 128,-1,13
 832 1269 832 1269 809 1194 c 1,14,-1
 799 1163 l 1,15,-1
 1298 0 l 1,0,-1
EndSplineSet
EndChar
StartChar: uni028F
Encoding: 655 655 655
Width: 1483
Flags: W
TeX: 0 0 0 0
AnchorPoint: "above" 741 1147 basechar 0
Fore
132 1120 m 1,0,-1
 504 1120 l 1,1,-1
 741 775 l 1,2,-1
 976 1120 l 1,3,-1
 1351 1120 l 1,4,-1
 896 472 l 1,5,-1
 896 0 l 1,6,-1
 588 0 l 1,7,-1
 588 472 l 1,8,-1
 132 1120 l 1,0,-1
EndSplineSet
EndChar
StartChar: uni0290
Encoding: 656 656 656
Width: 1421
Flags: W
TeX: 0 0 0 0
AnchorPoint: "above" 596 1147 basechar 0
Fore
117 1120 m 1,0,-1
 1094 1120 l 1,1,-1
 1094 870 l 1,2,-1
 504 256 l 1,3,-1
 1095 256 l 1,4,-1
 1095 20 l 2,5,6
 1095 -105.858 1095 -105.858 1110.17 -138.182 c 0,7,8
 1118.66 -156.289 1118.66 -156.289 1133 -161 c 1,9,10
 1142.66 -207 1142.66 -207 1273 -207 c 2,11,-1
 1439 -207 l 1,12,-1
 1439 -442 l 1,13,-1
 1158 -442 l 2,14,15
 953 -442 953 -442 845 -324 c 0,16,17
 739.984 -208.483 739.984 -208.483 735.226 2.98917e-07 c 1,18,-1
 92 0 l 1,19,-1
 92 250 l 1,20,-1
 682 864 l 1,21,-1
 117 864 l 1,22,-1
 117 1120 l 1,0,-1
EndSplineSet
EndChar
StartChar: uni0291
Encoding: 657 657 657
Width: 1401
Flags: W
TeX: 0 0 0 0
AnchorPoint: "above" 596 1147 basechar 0
Fore
117 1120 m 1,0,-1
 1094 1120 l 1,1,-1
 1094 870 l 1,2,-1
 504 256 l 1,3,-1
 665.596 256 l 1,4,5
 673.44 298.82 673.44 298.82 684 339 c 0,6,7
 807.803 533.845 807.803 533.845 975 532 c 0,8,9
 1260.67 528.847 1260.67 528.847 1264 294 c 0,10,11
 1268.05 8.52539 1268.05 8.52539 971.995 0.247795 c 2,12,-1
 842 0 l 1,13,-1
 842 -141 l 1,14,-1
 642 -140 l 1,15,-1
 643 0 l 1,16,-1
 92 0 l 1,17,-1
 92 250 l 1,18,-1
 682 864 l 1,19,-1
 117 864 l 1,20,-1
 117 1120 l 1,0,-1
971 255 m 2,21,22
 1117 255 1117 255 1117 291 c 0,23,24
 1116.59 339 1116.59 339 985 339 c 0,25,26
 890.141 339 890.141 339 855 259 c 1,27,28
 859.75 257 859.75 257 887.5 256 c 2,29,-1
 971 255 l 2,21,22
EndSplineSet
EndChar
StartChar: uni0292
Encoding: 658 658 658
Width: 1312
Flags: W
TeX: 0 0 0 0
AnchorPoint: "above" 596 1147 basechar 0
Fore
312.008 478.956 m 1,0,-1
 682 864 l 1,1,-1
 117 864 l 1,2,-1
 117 1120 l 1,3,-1
 1094 1120 l 1,4,-1
 1094 870 l 1,5,-1
 676 436 l 1,6,7
 837.946 426.522 837.946 426.522 924 404 c 0,8,9
 1049.62 371.123 1049.62 371.123 1135.5 258.5 c 0,10,11
 1214 156.152 1214 156.152 1214 13 c 0,12,13
 1214 -209 1214 -209 1044 -324.5 c 128,-1,14
 874 -440 874 -440 548 -440 c 0,15,16
 433 -440 433 -440 317.5 -421.5 c 128,-1,17
 202 -403 202 -403 89 -366 c 1,18,-1
 89 -69 l 1,19,20
 197 -123 197 -123 303.5 -150.5 c 128,-1,21
 410 -178 410 -178 513 -178 c 0,22,23
 666 -178 666 -178 747.5 -125 c 128,-1,24
 829 -72 829 -72 829 27 c 0,25,26
 829 129 829 129 745.5 181.5 c 128,-1,27
 662 234 662 234 499 234 c 2,28,-1
 312 234 l 1,29,-1
 312.008 478.956 l 1,0,-1
EndSplineSet
EndChar
